SplineFontDB: 3.0
FontName: ModernAntiqua-BoldOblique
FullName: Modern Antiqua Bold Oblique
FamilyName: Modern Antiqua
Weight: Bold
Copyright: Copyright (c) 2020-2024 by Wojciech Kalinowski "wmk69" with Reserved Font Name "ModernAntiqua-BoldOblique".\nThis Font Software is licensed under the SIL Open Font License, Version 1.1.
Version: 3.1.0; 2021-05-28
ItalicAngle: -12
UnderlinePosition: -80
UnderlineWidth: 320
Ascent: 1638
Descent: 410
InvalidEm: 0
LayerCount: 2
Layer: 0 1 "Warstwa t+AUIA-a" 1
Layer: 1 1 "Plan pierwszy" 0
XUID: [1021 783 23647091 7762759]
StyleMap: 0x0021
FSType: 0
OS2Version: 3
OS2_WeightWidthSlopeOnly: 0
OS2_UseTypoMetrics: 1
CreationTime: 1260698820
ModificationTime: 1622218683
PfmFamily: 17
TTFWeight: 700
TTFWidth: 5
LineGap: 300
VLineGap: 0
Panose: 2 5 8 3 6 5 5 13 4 4
OS2TypoAscent: 1950
OS2TypoAOffset: 0
OS2TypoDescent: -537
OS2TypoDOffset: 0
OS2TypoLinegap: 300
OS2WinAscent: 1950
OS2WinAOffset: 0
OS2WinDescent: 537
OS2WinDOffset: 0
HheadAscent: 1950
HheadAOffset: 0
HheadDescent: -537
HheadDOffset: 0
OS2SubXSize: 1434
OS2SubYSize: 1331
OS2SubXOff: 0
OS2SubYOff: 287
OS2SupXSize: 1434
OS2SupYSize: 1331
OS2SupXOff: 0
OS2SupYOff: 977
OS2StrikeYSize: 102
OS2StrikeYPos: 512
OS2CapHeight: 1510
OS2XHeight: 1100
OS2Vendor: '    '
OS2CodePages: 20000093.00000000
OS2UnicodeRanges: 8000002f.4000204b.00000000.00000000
Lookup: 258 0 0 "'kern' Horizontal Kerning lookup 0" { "'kern' Horizontal Kerning lookup 0-1 subtable" [307,0,4] } ['kern' ('DFLT' <'dflt' > 'grek' <'dflt' > 'latn' <'dflt' > ) ]
MarkAttachClasses: 1
DEI: 91125
KernClass2: 69 55 "'kern' Horizontal Kerning lookup 0-1 subtable"
 84 A Agrave Aacute Acircumflex Atilde Adieresis Aring Amacron Abreve Aogonek Aringacute
 28 B germandbls uni1E02 uni1E9E
 47 C Ccedilla Cacute Ccircumflex Cdotaccent Ccaron
 122 D O Q Eth Ograve Oacute Ocircumflex Otilde Odieresis Oslash Dcaron Dcroat Omacron Obreve Ohungarumlaut Oslashacute uni1E0A

StartChar: .notdef
Encoding: 65536 -1 0
Width: 1014
Flags: W
HStem: 0 118<313 751> 1392 118<584 1022>
VStem: 100 814<0 814> 421 814<696 1510>
DStem2: 100 0 287.918 0 0.207912 0.978148<159.707 1462.21> 725.918 0 914 0 0.207912 0.978148<120.636 1423.14>
LayerCount: 2
Fore
SplineSet
100 0 m 5,0,-1
 421 1510 l 5,1,-1
 1235 1510 l 5,2,-1
 914 0 l 5,3,-1
 100 0 l 5,0,-1
313 118 m 5,4,-1
 751 118 l 5,5,-1
 1022 1392 l 5,6,-1
 584 1392 l 5,7,-1
 313 118 l 5,4,-1
EndSplineSet
Validated: 1
EndChar

StartChar: exclam
Encoding: 33 33 4
Width: 664
GlyphClass: 2
Flags: W
HStem: -20 370<277.695 456.305> 1510 20G<617 693>
VStem: 432 374<1239.81 1440.4>
LayerCount: 2
Fore
SplineSet
328 -20 m 0,0,1
 250 -20 250 -20 210 34 c 0,2,3
 181 73 181 73 181 124 c 0,4,5
 181 144 181 144 185 165 c 0,6,7
 201 242 201 242 265.5 296 c 128,-1,8
 330 350 330 350 406 350 c 0,9,10
 484 350 484 350 524 296 c 0,11,12
 553 257 553 257 553 206 c 0,13,14
 553 186 553 186 549 165 c 0,15,16
 533 88 533 88 468.5 34 c 128,-1,17
 404 -20 404 -20 328 -20 c 0,0,1
657 1530 m 0,18,19
 729 1530 729 1530 774 1477 c 0,20,21
 806 1439 806 1439 806 1390 c 0,22,23
 806 1359 806 1359 794 1324 c 2,24,-1
 481 426 l 1,25,-1
 365 426 l 1,26,-1
 432 1324 l 2,27,28
 439 1420 439 1420 518 1483 c 0,29,30
 577 1530 577 1530 657 1530 c 0,18,19
EndSplineSet
Validated: 1
EndChar

StartChar: quotedbl
Encoding: 34 34 5
Width: 741
GlyphClass: 2
Flags: W
HStem: 1125 425<178 295.303 517 634.303>
VStem: 424 227<1271.47 1548> 763 227<1271.47 1548>
LayerCount: 2
Fore
SplineSet
718 1550 m 1,0,1
 964 1550 l 1,2,3
 990 1496 990 1496 990 1437 c 0,4,5
 990 1408 990 1408 984 1379 c 0,6,7
 957 1251 957 1251 844 1125 c 1,8,-1
 658 1125 l 1,9,10
 733 1234 733 1234 756 1343 c 0,11,12
 763 1376 763 1376 763 1407 c 0,13,14
 763 1486 763 1486 718 1550 c 1,0,1
379 1550 m 1,15,-1
 625 1550 l 1,16,17
 651 1496 651 1496 651 1437 c 0,18,19
 651 1408 651 1408 645 1379 c 0,20,21
 618 1251 618 1251 505 1125 c 1,22,-1
 319 1125 l 1,23,24
 394 1234 394 1234 417 1343 c 0,25,26
 424 1376 424 1376 424 1407 c 0,27,28
 424 1486 424 1486 379 1550 c 1,15,-1
EndSplineSet
Validated: 1
EndChar

StartChar: numbersign
Encoding: 35 35 6
Width: 1392
GlyphClass: 2
Flags: W
HStem: 501 162<382 545 752 887 1094 1257> 843 162<455 618 825 960 1167 1330>
DStem2: 483 207 654.657 207 0.207912 0.978148<128.723 300.466 501.964 650.17 851.668 1023.41> 825 207 996.657 207 0.207912 0.978148<128.723 300.466 501.964 650.17 851.668 1023.41>
LayerCount: 2
Fore
SplineSet
887 1299 m 1,0,-1
 825 1005 l 1,1,-1
 995 1005 l 1,2,-1
 1038 1208 l 1,3,-1
 1229 1299 l 1,4,-1
 1167 1005 l 1,5,-1
 1456 1005 l 1,6,-1
 1330 843 l 1,7,-1
 1132 843 l 1,8,-1
 1094 663 l 1,9,-1
 1383 663 l 1,10,-1
 1257 501 l 1,11,-1
 1059 501 l 1,12,-1
 1016 298 l 1,13,-1
 825 207 l 1,14,-1
 887 501 l 1,15,-1
 717 501 l 1,16,-1
 674 298 l 1,17,-1
 483 207 l 1,18,-1
 545 501 l 1,19,-1
 256 501 l 1,20,-1
 382 663 l 1,21,-1
 580 663 l 1,22,-1
 618 843 l 1,23,-1
 329 843 l 1,24,-1
 455 1005 l 1,25,-1
 653 1005 l 1,26,-1
 696 1208 l 1,27,-1
 887 1299 l 1,0,-1
752 663 m 1,28,-1
 922 663 l 1,29,-1
 960 843 l 1,30,-1
 790 843 l 1,31,-1
 752 663 l 1,28,-1
EndSplineSet
Validated: 1
EndChar

StartChar: dollar
Encoding: 36 36 7
Width: 1321
GlyphClass: 2
Flags: W
HStem: 1510 20G<1343 1384>
VStem: 66 15<-20 -11.0278> 194 15<556.34 585> 413 321<1074.15 1270.39> 1019 339<349.636 586.198> 1269 15<1058 1089.29>
DStem2: 598.368 -150 728.271 -150 0.207912 0.978148<102.662 132.904 317.429 849.914 1202.2 1590.74 1723.78 1774.71>
LayerCount: 2
Fore
SplineSet
598 -150 m 1,0,-1
 626 -20 l 1,1,2
 441 -17 441 -17 315 53 c 0,3,4
 270 78 270 78 235 78 c 0,5,6
 153 78 153 78 81 -20 c 1,7,-1
 66 -20 l 1,8,-1
 194 585 l 1,9,-1
 209 585 l 1,10,11
 209 352 209 352 299 238 c 0,12,13
 405 102 405 102 628 102 c 0,14,15
 640 102 640 102 652 103 c 1,16,-1
 781 712 l 1,17,-1
 638 779 l 2,18,19
 413 884 413 884 413 1094 c 0,20,21
 413 1120 413 1120 416 1147 c 0,22,23
 435 1304 435 1304 604 1429 c 0,24,25
 741 1530 741 1530 955 1530 c 1,26,-1
 967 1586 l 1,27,-1
 1113 1660 l 1,28,-1
 1082 1514 l 1,29,30
 1116 1505 1116 1505 1145 1492 c 0,31,32
 1195 1469 1195 1469 1244 1469 c 0,33,34
 1317 1469 1317 1469 1369 1530 c 1,35,-1
 1384 1530 l 1,36,-1
 1284 1058 l 1,37,-1
 1269 1058 l 1,38,39
 1269 1204 1269 1204 1217 1296 c 0,40,41
 1167 1386 1167 1386 1059 1406 c 1,42,-1
 966 970 l 1,43,-1
 1092 911 l 2,44,45
 1358 786 1358 786 1358 550 c 0,46,47
 1358 511 1358 511 1351 470 c 0,48,49
 1314 256 1314 256 1115 118 c 0,50,51
 959 10 959 10 757 -14 c 1,52,-1
 744 -76 l 1,53,-1
 598 -150 l 1,0,-1
848 1026 m 1,54,-1
 929 1406 l 1,55,56
 873 1394 873 1394 830 1361 c 0,57,58
 761 1307 761 1307 741 1230 c 0,59,60
 734 1203 734 1203 734 1179 c 0,61,62
 734 1082 734 1082 848 1026 c 1,54,-1
899 655 m 1,63,-1
 789 134 l 1,64,65
 813 144 813 144 834 158 c 0,66,67
 985 255 985 255 1014 408 c 0,68,69
 1019 436 1019 436 1019 461 c 0,70,71
 1019 583 1019 583 899 655 c 1,63,-1
EndSplineSet
Validated: 1
EndChar

StartChar: percent
Encoding: 37 37 8
Width: 1728
GlyphClass: 2
Flags: W
HStem: -20 115<1204.02 1379.67> 583 115<1293.34 1471.66> 812 115<577.02 752.672> 1415 115<666.336 844.655>
VStem: 339 218<942.71 1272> 865 218<1075.06 1399.37> 966 218<110.71 439.996> 1492 218<243.056 567.369>
DStem2: 317 77 499 -40 0.642064 0.766651<27.1574 1920.3>
LayerCount: 2
Fore
SplineSet
787 1530 m 128,-1,1
 923 1530 923 1530 1009 1444 c 0,2,3
 1083 1370 1083 1370 1083 1258 c 0,4,5
 1083 1214 1083 1214 1073 1170 c 0,6,7
 1037 1000 1037 1000 893 898 c 0,8,9
 771 812 771 812 635 812 c 128,-1,10
 499 812 499 812 413 898 c 0,11,12
 339 972 339 972 339 1085 c 0,13,14
 339 1133 339 1133 347 1171 c 0,15,16
 387 1344 387 1344 529 1444 c 0,17,0
 651 1530 651 1530 787 1530 c 128,-1,1
767 1415 m 0,18,19
 700 1415 700 1415 645 1348 c 0,20,21
 596 1288 596 1288 571 1171 c 0,22,23
 557 1105 557 1105 557 1056 c 0,24,25
 557 1019 557 1019 567 992 c 0,26,27
 590 927 590 927 655 927 c 128,-1,28
 720 927 720 927 775 994 c 0,29,30
 825 1054 825 1054 851 1173 c 0,31,32
 865 1237 865 1237 865 1284 c 0,33,34
 865 1321 865 1321 855 1349 c 0,35,36
 833 1415 833 1415 767 1415 c 0,18,19
1262 -20 m 128,-1,38
 1126 -20 1126 -20 1040 66 c 0,39,40
 966 140 966 140 966 253 c 0,41,42
 966 301 966 301 974 339 c 0,43,44
 1014 512 1014 512 1156 612 c 0,45,46
 1278 698 1278 698 1414 698 c 128,-1,47
 1550 698 1550 698 1636 612 c 0,48,49
 1710 538 1710 538 1710 426 c 0,50,51
 1710 382 1710 382 1700 338 c 0,52,53
 1664 168 1664 168 1520 66 c 0,54,37
 1398 -20 1398 -20 1262 -20 c 128,-1,38
1282 95 m 128,-1,56
 1347 95 1347 95 1402 162 c 0,57,58
 1452 222 1452 222 1478 341 c 0,59,60
 1492 405 1492 405 1492 452 c 0,61,62
 1492 489 1492 489 1482 517 c 0,63,64
 1460 583 1460 583 1394 583 c 0,65,66
 1327 583 1327 583 1272 516 c 0,67,68
 1223 456 1223 456 1198 339 c 0,69,70
 1184 273 1184 273 1184 224 c 0,71,72
 1184 187 1184 187 1194 160 c 0,73,55
 1217 95 1217 95 1282 95 c 128,-1,56
499 -40 m 1,74,-1
 317 77 l 1,75,-1
 1549 1550 l 1,76,-1
 1741 1443 l 1,77,-1
 499 -40 l 1,74,-1
EndSplineSet
Validated: 1
EndChar

StartChar: quotesingle
Encoding: 39 39 9
Width: 402
GlyphClass: 2
Flags: W
HStem: 1125 425<178 295.303>
VStem: 424 227<1271.47 1548>
LayerCount: 2
Fore
SplineSet
379 1550 m 1,0,1
 625 1550 l 1,2,3
 651 1496 651 1496 651 1437 c 0,4,5
 651 1408 651 1408 645 1379 c 0,6,7
 618 1251 618 1251 505 1125 c 1,8,-1
 319 1125 l 1,9,10
 394 1234 394 1234 417 1343 c 0,11,12
 424 1376 424 1376 424 1407 c 0,13,14
 424 1486 424 1486 379 1550 c 1,0,1
EndSplineSet
Validated: 1
EndChar

StartChar: parenleft
Encoding: 40 40 10
Width: 659
GlyphClass: 2
Flags: W
VStem: 262 271<127.344 674.749>
LayerCount: 2
Fore
SplineSet
900 1730 m 1,0,-1
 995 1673 l 1,1,2
 844 1469 844 1469 744 1234 c 0,3,4
 649 1009 649 1009 591 743 c 0,5,6
 539 504 539 504 533 274 c 0,7,8
 533 261 533 261 533 247 c 0,9,10
 533 44 533 44 604 -163 c 1,11,-1
 485 -220 l 1,12,13
 335 -16 335 -16 284 212 c 0,14,15
 262 311 262 311 262 425 c 0,16,17
 262 577 262 577 301 758 c 0,18,19
 363 1047 363 1047 517 1294 c 0,20,21
 671 1542 671 1542 900 1730 c 1,0,-1
EndSplineSet
Validated: 1
EndChar

StartChar: parenright
Encoding: 41 41 11
Width: 659
GlyphClass: 2
Flags: W
VStem: 447 271<835.251 1382.66>
LayerCount: 2
Fore
SplineSet
495 1730 m 1,0,1
 645 1526 645 1526 696 1298 c 0,2,3
 718 1199 718 1199 718 1085 c 0,4,5
 718 933 718 933 679 752 c 0,6,7
 617 463 617 463 463 216 c 0,8,9
 309 -32 309 -32 80 -220 c 1,10,-1
 -15 -163 l 1,11,12
 136 41 136 41 236 276 c 0,13,14
 331 501 331 501 389 767 c 0,15,16
 441 1006 441 1006 447 1236 c 0,17,18
 447 1249 447 1249 447 1263 c 0,19,20
 447 1466 447 1466 376 1673 c 1,21,-1
 495 1730 l 1,0,1
EndSplineSet
Validated: 1
EndChar

StartChar: asterisk
Encoding: 42 42 12
Width: 1129
GlyphClass: 2
Flags: W
LayerCount: 2
Fore
SplineSet
910 1669 m 1,0,-1
 924 1669 l 1,1,-1
 949 1337 l 1,2,-1
 1118 1409 l 1,3,-1
 1015 1262 l 1,4,-1
 1326 1164 l 1,5,-1
 1323 1150 l 1,6,-1
 971 1054 l 1,7,-1
 1010 900 l 1,8,-1
 879 972 l 1,9,-1
 710 640 l 1,10,-1
 696 640 l 1,11,-1
 671 972 l 1,12,-1
 501 900 l 1,13,-1
 605 1047 l 1,14,-1
 293 1145 l 1,15,-1
 296 1159 l 1,16,-1
 649 1255 l 1,17,-1
 609 1409 l 1,18,-1
 741 1337 l 1,19,-1
 910 1669 l 1,0,-1
EndSplineSet
Validated: 1
EndChar

StartChar: plus
Encoding: 43 43 13
Width: 1273
GlyphClass: 2
Flags: W
HStem: 649 211<402 661 933 1192>
DStem2: 569 218 796.706 218 0.207912 0.978148<169.001 440.709 703.651 975.359>
LayerCount: 2
Fore
SplineSet
1024 1291 m 1,0,-1
 933 860 l 1,1,-1
 1356 860 l 1,2,-1
 1192 649 l 1,3,-1
 888 649 l 1,4,-1
 822 337 l 1,5,-1
 569 218 l 1,6,-1
 661 649 l 1,7,-1
 238 649 l 1,8,-1
 402 860 l 1,9,-1
 706 860 l 1,10,-1
 772 1172 l 1,11,-1
 1024 1291 l 1,0,-1
EndSplineSet
Validated: 1
EndChar

StartChar: comma
Encoding: 44 44 14
Width: 484
GlyphClass: 2
Flags: W
VStem: 71 395<34.1284 252.984>
LayerCount: 2
Fore
SplineSet
307 351 m 0,0,1
 389 351 389 351 431 294 c 0,2,3
 466 248 466 248 466 182 c 0,4,5
 466 152 466 152 459 118 c 0,6,7
 433 -4 433 -4 328 -103 c 0,8,9
 186 -236 186 -236 -44 -236 c 1,10,-1
 -38 -205 l 1,11,12
 57 -169 57 -169 128 -117 c 0,13,14
 184 -75 184 -75 219 -19 c 1,15,16
 140 -19 140 -19 99 33 c 0,17,18
 71 69 71 69 71 119 c 0,19,20
 71 140 71 140 76 164 c 0,21,22
 93 243 93 243 156.5 297 c 128,-1,23
 220 351 220 351 307 351 c 0,0,1
EndSplineSet
Validated: 1
EndChar

StartChar: hyphen
Encoding: 45 45 15
Width: 1273
GlyphClass: 2
Flags: W
HStem: 649 211<402 1192>
LayerCount: 2
Fore
SplineSet
402 860 m 1,0,-1
 1356 860 l 1,1,-1
 1192 649 l 1,2,-1
 238 649 l 1,3,-1
 402 860 l 1,0,-1
EndSplineSet
Validated: 1
EndChar

StartChar: period
Encoding: 46 46 16
Width: 464
GlyphClass: 2
Flags: W
HStem: -20 370<177.766 356.305>
VStem: 81 372<75.783 254>
LayerCount: 2
Fore
SplineSet
228 -20 m 128,-1,1
 152 -20 152 -20 110 34 c 0,2,3
 81 72 81 72 81 124 c 0,4,5
 81 144 81 144 85 165 c 0,6,7
 101 242 101 242 165.5 296 c 128,-1,8
 230 350 230 350 306 350 c 0,9,10
 384 350 384 350 424 296 c 0,11,12
 453 257 453 257 453 206 c 0,13,14
 453 186 453 186 449 165 c 0,15,16
 433 88 433 88 368.5 34 c 128,-1,0
 304 -20 304 -20 228 -20 c 128,-1,1
EndSplineSet
Validated: 1
EndChar

StartChar: slash
Encoding: 47 47 17
Width: 1147
GlyphClass: 2
Flags: W
DStem2: 5 -24 219 -150 0.592291 0.805724<25.2289 2090.1>
LayerCount: 2
Fore
SplineSet
1243 1660 m 1,0,-1
 1465 1545 l 1,1,-1
 219 -150 l 1,2,-1
 5 -24 l 1,3,-1
 1243 1660 l 1,0,-1
EndSplineSet
Validated: 1
EndChar

StartChar: zero
Encoding: 48 48 18
Width: 1540
GlyphClass: 2
Flags: W
HStem: -20 122<656.804 944.727> 1408 122<916.769 1204.56>
VStem: 205 335<290.334 779.083> 1320 335<730.978 1219.48>
LayerCount: 2
Fore
SplineSet
792 102 m 128,-1,1
 922 102 922 102 1044 221 c 0,2,3
 1202 375 1202 375 1282 755 c 0,4,5
 1320 932 1320 932 1320 1061 c 0,6,7
 1320 1207 1320 1207 1271 1289 c 0,8,9
 1199 1408 1199 1408 1069.5 1408 c 128,-1,10
 940 1408 940 1408 817 1289 c 0,11,12
 660 1137 660 1137 578 755 c 0,13,14
 540 578 540 578 540 450 c 0,15,16
 540 303 540 303 590 221 c 0,17,0
 662 102 662 102 792 102 c 128,-1,1
766 -20 m 0,18,19
 488 -20 488 -20 342 142 c 0,20,21
 205 295 205 295 205 534 c 0,22,23
 205 637 205 637 230 755 c 0,24,25
 314 1150 314 1150 603 1368 c 0,26,27
 817 1530 817 1530 1095 1530 c 0,28,29
 1375 1530 1375 1530 1519 1368 c 0,30,31
 1655 1214 1655 1214 1655 976 c 0,32,33
 1655 873 1655 873 1630 755 c 0,34,35
 1546 360 1546 360 1258 142 c 0,36,37
 1045 -20 1045 -20 766 -20 c 0,18,19
EndSplineSet
Validated: 1
EndChar

StartChar: one
Encoding: 49 49 19
Width: 680
GlyphClass: 2
Flags: W
HStem: 0 15<10.1853 34.9531 653.781 670>
DStem2: 179.861 0 499.861 0 0.207912 0.978148<251.985 1087.29>
LayerCount: 2
Fore
SplineSet
10 0 m 1,0,1
 12 9 12 9 13 15 c 1,2,3
 193 60 193 60 233 250 c 2,4,-1
 391 995 l 2,5,6
 399 1034 399 1034 399 1066 c 0,7,8
 399 1194 399 1194 271 1230 c 1,9,-1
 275 1245 l 1,10,11
 589 1342 589 1342 814 1550 c 1,12,-1
 829 1550 l 1,13,-1
 553 250 l 2,14,15
 545 211 545 211 545 179 c 0,16,17
 545 51 545 51 673 15 c 1,18,-1
 670 0 l 1,19,-1
 10 0 l 1,0,1
EndSplineSet
Validated: 1
EndChar

StartChar: two
Encoding: 50 50 20
Width: 1381
GlyphClass: 2
Flags: W
HStem: -20 300<876.08 1141.62> 70 293<360.844 690.014> 1408 122<702.882 1032.57>
VStem: 365 15<995 1006.12> 1107 342<1002.88 1335.25>
LayerCount: 2
Fore
SplineSet
96 -20 m 1,0,1
 232 274 232 274 422.5 444 c 128,-1,2
 613 614 613 614 833.5 756.5 c 128,-1,3
 1054 899 1054 899 1097 1098 c 0,4,5
 1107 1146 1107 1146 1107 1188 c 0,6,7
 1107 1238 1107 1238 1093 1279 c 0,8,9
 1049 1408 1049 1408 884 1408 c 128,-1,10
 719 1408 719 1408 599 1288 c 0,11,12
 486 1174 486 1174 380 995 c 1,13,-1
 365 995 l 1,14,-1
 438 1335 l 1,15,16
 667 1530 667 1530 984 1530 c 0,17,18
 1240 1530 1240 1530 1359 1407 c 0,19,20
 1449 1315 1449 1315 1449 1178 c 0,21,22
 1449 1129 1449 1129 1437 1073 c 0,23,24
 1383 818 1383 818 1096 687 c 0,25,26
 919 606 919 606 708 488 c 0,27,28
 567 409 567 409 433 279 c 1,29,30
 583 363 583 363 678 363 c 128,-1,31
 773 363 773 363 876 325 c 0,32,33
 997 280 997 280 1079 280 c 0,34,35
 1217 280 1217 280 1346 378 c 1,36,-1
 1361 378 l 1,37,38
 1144 -20 1144 -20 920 -20 c 0,39,40
 805 -20 805 -20 669 33 c 0,41,42
 575 70 575 70 417 70 c 0,43,44
 237 70 237 70 111 -20 c 1,45,-1
 96 -20 l 1,0,1
EndSplineSet
Validated: 1
EndChar

StartChar: three
Encoding: 51 51 21
Width: 1232
GlyphClass: 2
Flags: W
HStem: -20 122<313.068 665.637> 1408 122<614.153 905.584>
VStem: 167 15<378.003 411> 409 15<1145 1160.46> 904 340<372.333 719.651> 948 312<1083.7 1367.59>
LayerCount: 2
Fore
SplineSet
526 -20 m 0,0,1
 259 -20 259 -20 101 100 c 1,2,-1
 167 411 l 1,3,-1
 182 411 l 1,4,5
 199 312 199 312 228 248 c 0,6,7
 292 102 292 102 487 102 c 24,8,9
 639 102 639 102 747 205 c 0,10,11
 859 312 859 312 894 482 c 0,12,13
 904 531 904 531 904 573 c 0,14,15
 904 683 904 683 834 749 c 0,16,17
 751 826 751 826 595 843 c 1,18,-1
 602 874 l 1,19,20
 750 917 750 917 832 990 c 0,21,22
 915 1064 915 1064 939 1175 c 0,23,24
 948 1215 948 1215 948 1249 c 0,25,26
 948 1306 948 1306 923 1344 c 0,27,28
 883 1408 883 1408 779 1408 c 0,29,30
 673 1408 673 1408 595 1352 c 0,31,32
 482 1270 482 1270 424 1145 c 1,33,-1
 409 1145 l 1,34,-1
 466 1413 l 1,35,36
 653 1530 653 1530 865 1530 c 128,-1,37
 1077 1530 1077 1530 1182 1434 c 0,38,39
 1260 1364 1260 1364 1260 1254 c 0,40,41
 1260 1222 1260 1222 1253 1187 c 0,42,43
 1216 993 1216 993 989 894 c 1,44,45
 1084 867 1084 867 1146 809 c 0,46,47
 1244 717 1244 717 1244 575 c 0,48,49
 1244 526 1244 526 1232 470 c 0,50,51
 1186 252 1186 252 985 112 c 24,52,53
 796 -20 796 -20 526 -20 c 0,0,1
EndSplineSet
Validated: 1
EndChar

StartChar: four
Encoding: 52 52 22
Width: 1235
GlyphClass: 2
Flags: W
HStem: 0 15<560 581.953 1200.78 1217> 345 120<368 800 1146 1231>
DStem2: 82 360 368 465 0.73212 0.681175<280.91 1061.34> 726.861 0 1046.86 0 0.207912 0.978148<251.985 352.667 541.983 1019.32>
LayerCount: 2
Fore
SplineSet
557 0 m 1,0,-1
 560 15 l 1,1,2
 740 61 740 61 780 250 c 2,3,-1
 800 345 l 1,4,-1
 78 345 l 1,5,-1
 82 360 l 1,6,-1
 1361 1550 l 1,7,-1
 1376 1550 l 1,8,-1
 1146 465 l 1,9,-1
 1324 465 l 1,10,-1
 1231 345 l 1,11,-1
 1120 345 l 1,12,-1
 1100 250 l 2,13,14
 1092 211 1092 211 1092 179 c 0,15,16
 1092 51 1092 51 1220 15 c 1,17,-1
 1217 0 l 1,18,-1
 557 0 l 1,0,-1
826 465 m 1,19,-1
 939 997 l 1,20,-1
 368 465 l 1,21,-1
 826 465 l 1,19,-1
EndSplineSet
Validated: 1
EndChar

StartChar: five
Encoding: 53 53 23
Width: 1222
GlyphClass: 2
Flags: W
HStem: -20 121<303.829 657.158> 795 125<654.199 810.85> 1289 221<834.045 1134.56>
VStem: 157 15<377.003 410> 897 337<366.394 709.524>
LayerCount: 2
Fore
SplineSet
516 -20 m 0,0,1
 249 -20 249 -20 91 100 c 1,2,-1
 157 410 l 1,3,-1
 172 410 l 1,4,5
 189 311 189 311 218 247 c 0,6,7
 283 101 283 101 482 101 c 0,8,9
 638 101 638 101 751 214 c 0,10,11
 855 318 855 318 887 469 c 0,12,13
 897 516 897 516 897 557 c 0,14,15
 897 648 897 648 850 713 c 0,16,17
 790 795 790 795 666 795 c 0,18,19
 571 795 571 795 495 748 c 1,20,-1
 309 895 l 1,21,-1
 607 1510 l 1,22,-1
 1395 1510 l 1,23,24
 1257 1289 1257 1289 1024 1289 c 0,25,26
 853 1289 853 1289 753 1394 c 1,27,-1
 653 920 l 1,28,29
 714 927 714 927 772 927 c 0,30,31
 1007 927 1007 927 1139 805 c 0,32,33
 1234 716 1234 716 1234 575 c 0,34,35
 1234 526 1234 526 1222 470 c 0,36,37
 1176 253 1176 253 975 112 c 0,38,39
 787 -20 787 -20 516 -20 c 0,0,1
EndSplineSet
Validated: 1
EndChar

StartChar: six
Encoding: 54 54 24
Width: 1385
GlyphClass: 2
Flags: W
HStem: -20 121<607.702 852.905> 923 123<760.881 1009.3> 1408 122<926.608 1246.21>
VStem: 226 314<240.457 604.489> 1075 333<419.828 819.832>
LayerCount: 2
Fore
SplineSet
895 923 m 128,-1,1
 773 923 773 923 679 799 c 0,2,3
 600 695 600 695 561 514 c 0,4,5
 540 415 540 415 540 340 c 0,6,7
 540 273 540 273 557 225 c 0,8,9
 601 101 601 101 721 101 c 128,-1,10
 841 101 841 101 937 225 c 0,11,12
 1015 326 1015 326 1055 514 c 0,13,14
 1075 610 1075 610 1075 684 c 0,15,16
 1075 750 1075 750 1059 799 c 0,17,0
 1017 923 1017 923 895 923 c 128,-1,1
712 -20 m 0,18,19
 465 -20 465 -20 347 117 c 0,20,21
 226 259 226 259 226 483 c 0,22,23
 226 586 226 586 251 706 c 0,24,25
 343 1139 343 1139 610 1363 c 0,26,27
 808 1530 808 1530 1105 1530 c 0,28,29
 1332 1530 1332 1530 1472 1434 c 1,30,-1
 1409 1140 l 1,31,-1
 1394 1140 l 1,32,33
 1319 1408 1319 1408 1082 1408 c 0,34,35
 939 1408 939 1408 830 1283 c 0,36,37
 722 1161 722 1161 660 979 c 1,38,39
 794 1046 794 1046 937 1046 c 0,40,41
 1195 1046 1195 1046 1320 888 c 0,42,43
 1408 776 1408 776 1408 630 c 0,44,45
 1408 574 1408 574 1395 512 c 0,46,47
 1348 293 1348 293 1163 141 c 0,48,49
 967 -20 967 -20 712 -20 c 0,18,19
EndSplineSet
Validated: 1
EndChar

StartChar: seven
Encoding: 55 55 25
Width: 1181
GlyphClass: 2
Flags: W
HStem: -4 21G<334 724> 1222 300<568.501 794.524>
VStem: 334 374<0.807861 365.947>
LayerCount: 2
Fore
SplineSet
334 0 m 1,0,1
 334 168 334 168 367 323 c 0,2,3
 426 602 426 602 602 775 c 0,4,5
 741 913 741 913 868 1003 c 0,6,-1
 1117 1187 l 1,7,8
 1011 1157 1011 1157 934 1157 c 128,-1,9
 857 1157 857 1157 770 1185 c 0,10,11
 652 1222 652 1222 572 1222 c 0,12,13
 392 1222 392 1222 266 1132 c 1,14,-1
 251 1132 l 1,15,16
 465 1522 465 1522 750 1522 c 0,17,18
 871 1522 871 1522 975 1477 c 128,-1,19
 1079 1432 1079 1432 1213 1432 c 0,20,21
 1351 1432 1351 1432 1481 1530 c 1,22,-1
 1496 1530 l 1,23,24
 1347 1246 1347 1246 1145 1069 c 0,25,26
 1031 968 1031 968 959 896 c 0,27,28
 775 711 775 711 728 488 c 0,29,30
 708 392 708 392 708 285 c 0,31,32
 708 150 708 150 740 -4 c 1,33,-1
 334 0 l 1,0,1
EndSplineSet
Validated: 1
EndChar

StartChar: eight
Encoding: 56 56 26
Width: 1265
GlyphClass: 2
Flags: W
HStem: -20 122<478.259 808.389> 1408 122<821.764 1058.08>
VStem: 151 240<188.62 517.38> 432 289<1031.61 1272> 998 301<338.107 587.031> 1092 238<1097.72 1375.05>
LayerCount: 2
Fore
SplineSet
949 1408 m 0,0,1
 864 1408 864 1408 808 1353 c 0,2,3
 747 1293 747 1293 729 1217 c 0,4,5
 721 1183 721 1183 721 1152 c 0,6,7
 721 1039 721 1039 830 984 c 2,8,-1
 905 946 l 1,9,10
 1054 1057 1054 1057 1082 1182 c 0,11,12
 1092 1226 1092 1226 1092 1261 c 0,13,14
 1092 1304 1092 1304 1077 1335 c 0,15,16
 1041 1408 1041 1408 949 1408 c 0,0,1
622 -20 m 0,17,18
 360 -20 360 -20 241 113 c 0,19,20
 151 213 151 213 151 342 c 0,21,22
 151 384 151 384 161 430 c 0,23,24
 218 697 218 697 576 815 c 1,25,26
 432 932 432 932 432 1090 c 0,27,28
 432 1121 432 1121 438 1154 c 0,29,30
 468 1332 468 1332 630 1435 c 0,31,32
 780 1530 780 1530 972 1530 c 0,33,34
 1167 1530 1167 1530 1256 1439 c 0,35,36
 1330 1363 1330 1363 1330 1257 c 0,37,38
 1330 1222 1330 1222 1322 1183 c 0,39,40
 1278 974 1278 974 1059 873 c 1,41,42
 1299 754 1299 754 1299 534 c 0,43,44
 1299 499 1299 499 1293 462 c 0,45,46
 1260 260 1260 260 1067 120 c 24,47,48
 873 -20 873 -20 622 -20 c 0,17,18
644 102 m 0,49,50
 776 102 776 102 877 199 c 0,51,52
 968 286 968 286 991 394 c 0,53,54
 998 429 998 429 998 460 c 0,55,56
 998 581 998 581 886 640 c 2,57,-1
 691 744 l 1,58,59
 444 628 444 628 401 427 c 0,60,61
 391 381 391 381 391 340 c 0,62,63
 391 262 391 262 426 202 c 0,64,65
 483 102 483 102 644 102 c 0,49,50
EndSplineSet
Validated: 1
EndChar

StartChar: nine
Encoding: 57 57 27
Width: 1385
GlyphClass: 2
Flags: W
HStem: -20 122<460.786 780.392> 464 123<697.698 946.119> 1409 121<854.095 1099.3>
VStem: 299 333<690.168 1090.17> 1167 314<905.511 1269.54>
LayerCount: 2
Fore
SplineSet
812 587 m 128,-1,1
 934 587 934 587 1028 711 c 0,2,3
 1107 815 1107 815 1146 996 c 0,4,5
 1167 1095 1167 1095 1167 1170 c 0,6,7
 1167 1237 1167 1237 1150 1285 c 0,8,9
 1106 1409 1106 1409 986 1409 c 128,-1,10
 866 1409 866 1409 770 1285 c 0,11,12
 692 1184 692 1184 652 996 c 0,13,14
 632 900 632 900 632 826 c 0,15,16
 632 760 632 760 648 711 c 0,17,0
 690 587 690 587 812 587 c 128,-1,1
602 -20 m 0,18,19
 375 -20 375 -20 235 76 c 1,20,-1
 298 370 l 1,21,-1
 313 370 l 1,22,23
 388 102 388 102 625 102 c 0,24,25
 768 102 768 102 877 227 c 0,26,27
 985 349 985 349 1047 531 c 1,28,29
 913 464 913 464 770 464 c 0,30,31
 512 464 512 464 387 622 c 0,32,33
 299 734 299 734 299 880 c 0,34,35
 299 936 299 936 312 998 c 0,36,37
 359 1217 359 1217 544 1369 c 0,38,39
 740 1530 740 1530 995 1530 c 0,40,41
 1242 1530 1242 1530 1360 1393 c 0,42,43
 1481 1251 1481 1251 1481 1027 c 0,44,45
 1481 924 1481 924 1456 804 c 0,46,47
 1364 371 1364 371 1097 147 c 0,48,49
 899 -20 899 -20 602 -20 c 0,18,19
EndSplineSet
Validated: 1
EndChar

StartChar: colon
Encoding: 58 58 28
Width: 464
GlyphClass: 2
Flags: W
HStem: -20 370<177.766 356.305> 569 370<303.766 482.305>
VStem: 81 498
LayerCount: 2
Fore
SplineSet
432 939 m 0,0,1
 510 939 510 939 550 885 c 0,2,3
 579 846 579 846 579 795 c 0,4,5
 579 775 579 775 575 754 c 0,6,7
 559 677 559 677 494.5 623 c 128,-1,8
 430 569 430 569 354 569 c 128,-1,9
 278 569 278 569 236 623 c 0,10,11
 207 661 207 661 207 713 c 0,12,13
 207 733 207 733 211 754 c 0,14,15
 227 831 227 831 291.5 885 c 128,-1,16
 356 939 356 939 432 939 c 0,0,1
228 -20 m 128,-1,18
 152 -20 152 -20 110 34 c 0,19,20
 81 72 81 72 81 124 c 0,21,22
 81 144 81 144 85 165 c 0,23,24
 101 242 101 242 165.5 296 c 128,-1,25
 230 350 230 350 306 350 c 0,26,27
 384 350 384 350 424 296 c 0,28,29
 453 257 453 257 453 206 c 0,30,31
 453 186 453 186 449 165 c 0,32,33
 433 88 433 88 368.5 34 c 128,-1,17
 304 -20 304 -20 228 -20 c 128,-1,18
EndSplineSet
Validated: 1
EndChar

StartChar: semicolon
Encoding: 59 59 29
Width: 484
GlyphClass: 2
Flags: W
HStem: 569 370<303.766 482.305>
VStem: 71 395<34.1284 252.984>
LayerCount: 2
Fore
SplineSet
432 939 m 0,0,1
 510 939 510 939 550 885 c 0,2,3
 579 847 579 847 579 795 c 0,4,5
 579 775 579 775 575 754 c 0,6,7
 559 677 559 677 494.5 623 c 128,-1,8
 430 569 430 569 354 569 c 128,-1,9
 278 569 278 569 236 623 c 0,10,11
 207 661 207 661 207 713 c 0,12,13
 207 733 207 733 211 754 c 0,14,15
 227 831 227 831 291.5 885 c 128,-1,16
 356 939 356 939 432 939 c 0,0,1
307 351 m 0,17,18
 389 351 389 351 431 294 c 0,19,20
 466 248 466 248 466 182 c 0,21,22
 466 152 466 152 459 118 c 0,23,24
 433 -4 433 -4 328 -103 c 0,25,26
 186 -236 186 -236 -44 -236 c 1,27,-1
 -38 -205 l 1,28,29
 57 -169 57 -169 128 -117 c 0,30,31
 184 -75 184 -75 219 -19 c 1,32,33
 140 -19 140 -19 99 33 c 0,34,35
 71 69 71 69 71 119 c 0,36,37
 71 140 71 140 76 164 c 0,38,39
 93 243 93 243 156.5 297 c 128,-1,40
 220 351 220 351 307 351 c 0,17,18
EndSplineSet
Validated: 1
EndChar

StartChar: less
Encoding: 60 60 30
Width: 1257
GlyphClass: 2
Flags: W
DStem2: 662 787 259 750 0.852171 -0.523263<0 612.367> 263 765 662 787 0.892878 0.450299<366.165 1146.56>
LayerCount: 2
Fore
SplineSet
1304 1290 m 1,0,-1
 1359 1138 l 1,1,-1
 662 787 l 1,2,-1
 1206 450 l 1,3,-1
 1057 260 l 1,4,-1
 259 750 l 1,5,-1
 263 765 l 1,6,-1
 1304 1290 l 1,0,-1
EndSplineSet
Validated: 1
EndChar

StartChar: equal
Encoding: 61 61 31
Width: 1273
GlyphClass: 2
Flags: W
HStem: 444 211<358 1148> 854 211<445 1236>
LayerCount: 2
Fore
SplineSet
358 655 m 1,0,-1
 1312 655 l 1,1,-1
 1148 444 l 1,2,-1
 194 444 l 1,3,-1
 358 655 l 1,0,-1
445 1065 m 1,4,-1
 1399 1065 l 1,5,-1
 1236 854 l 1,6,-1
 282 854 l 1,7,-1
 445 1065 l 1,4,-1
EndSplineSet
Validated: 1
EndChar

StartChar: greater
Encoding: 62 62 32
Width: 1258
GlyphClass: 2
Flags: W
DStem2: 228 412 283 260 0.892878 0.450299<0 780.391> 530 1290 381 1100 0.852171 -0.523263<0 612.367>
LayerCount: 2
Fore
SplineSet
530 1290 m 1,0,-1
 1328 800 l 1,1,-1
 1324 785 l 1,2,-1
 283 260 l 1,3,-1
 228 412 l 1,4,-1
 925 763 l 1,5,-1
 381 1100 l 1,6,-1
 530 1290 l 1,0,-1
EndSplineSet
Validated: 1
EndChar

StartChar: question
Encoding: 63 63 33
Width: 1255
GlyphClass: 2
Flags: W
HStem: -20 370<496.766 675.305> 1408 122<648.882 978.398>
VStem: 311 15<995 1006.12> 1050 347<1010.96 1338>
LayerCount: 2
Fore
SplineSet
547 -20 m 128,-1,1
 471 -20 471 -20 429 34 c 0,2,3
 400 72 400 72 400 124 c 0,4,5
 400 144 400 144 404 165 c 0,6,7
 420 242 420 242 484.5 296 c 128,-1,8
 549 350 549 350 625 350 c 0,9,10
 703 350 703 350 743 296 c 0,11,12
 772 258 772 258 772 206 c 0,13,14
 772 186 772 186 768 165 c 0,15,16
 752 88 752 88 687.5 34 c 128,-1,0
 623 -20 623 -20 547 -20 c 128,-1,1
930 1530 m 0,17,18
 1184 1530 1184 1530 1305 1407 c 0,19,20
 1397 1313 1397 1313 1397 1182 c 0,21,22
 1397 1137 1397 1137 1386 1088 c 0,23,24
 1340 876 1340 876 1109 734 c 2,25,-1
 963 644 l 2,26,27
 778 530 778 530 701 426 c 1,28,-1
 583 426 l 1,29,30
 612 561 612 561 784 727 c 2,31,-1
 840 781 l 2,32,33
 1003 938 1003 938 1040 1112 c 0,34,35
 1050 1161 1050 1161 1050 1202 c 0,36,37
 1050 1245 1050 1245 1039 1279 c 0,38,39
 995 1408 995 1408 830 1408 c 128,-1,40
 665 1408 665 1408 545 1288 c 0,41,42
 432 1174 432 1174 326 995 c 1,43,-1
 311 995 l 1,44,-1
 384 1335 l 1,45,46
 613 1530 613 1530 930 1530 c 0,17,18
EndSplineSet
Validated: 1
EndChar

StartChar: at
Encoding: 64 64 34
Width: 1445
GlyphClass: 2
Flags: W
HStem: -430 118<592.174 973.802> -20 122<841.15 975.819> 999 121<847.181 1112.58>
VStem: 116 313<-133.442 399.859> 520 301<162.971 413.644> 1141 298<683.359 958.176>
DStem2: 872.998 -430 1172.64 -430 0.207912 0.978148<755.241 1042.62 1123.83 1321.41>
LayerCount: 2
Fore
SplineSet
930 -20 m 0,0,1
 704 -20 704 -20 598 78 c 0,2,3
 520 150 520 150 520 256 c 0,4,5
 520 290 520 290 528 328 c 0,6,7
 561 481 561 481 717 575 c 128,-1,8
 873 669 873 669 1109 681 c 1,9,-1
 1132 791 l 2,10,11
 1141 832 1141 832 1141 865 c 0,12,13
 1141 917 1141 917 1119 948 c 0,14,15
 1083 999 1083 999 999 999 c 0,16,17
 854 999 854 999 702 839 c 0,18,19
 525 653 525 653 460 343 c 0,20,21
 429 196 429 196 429 83 c 0,22,23
 429 -70 429 -70 485 -162 c 0,24,25
 577 -312 577 -312 785 -312 c 0,26,27
 962 -312 962 -312 1149 -185 c 1,28,-1
 1219 -277 l 1,29,30
 970 -430 970 -430 658 -430 c 0,31,32
 386 -430 386 -430 252 -282 c 0,33,34
 116 -130 116 -130 116 111 c 0,35,36
 116 216 116 216 142 338 c 0,37,38
 228 740 228 740 515 957 c 0,39,40
 732 1120 732 1120 1058 1120 c 0,41,42
 1252 1120 1252 1120 1359 1032 c 0,43,44
 1439 967 1439 967 1439 858 c 0,45,46
 1439 822 1439 822 1430 780 c 2,47,-1
 1321 268 l 2,48,49
 1319 257 1319 257 1319 247 c 0,50,51
 1319 167 1319 167 1460 121 c 1,52,-1
 1457 106 l 1,53,54
 1154 -20 1154 -20 930 -20 c 0,0,1
1089 590 m 1,55,56
 1018 565 1018 565 957 517 c 0,57,58
 856 437 856 437 832 330 c 0,59,60
 821 281 821 281 821 234 c 0,61,62
 821 193 821 193 832 162 c 0,63,64
 855 102 855 102 913 102 c 0,65,66
 987 102 987 102 1022 271 c 2,67,-1
 1089 590 l 1,55,56
EndSplineSet
Validated: 1
EndChar

StartChar: A
Encoding: 65 65 35
Width: 1885
GlyphClass: 2
Flags: W
HStem: 0 15<13 38.1843 497.337 508 1856.61 1875> 530 120<754 1234>
DStem2: 316 250 460 246 0.589612 0.807687<-30.3521 433.696 581.325 1156.56> 1280 1550 1094 1114 0.292742 -0.956192<362.45 847.106 972.681 1321.63>
LayerCount: 2
Fore
SplineSet
1094 1114 m 1,0,-1
 754 650 l 1,1,-1
 1234 650 l 1,2,-1
 1094 1114 l 1,0,-1
10 0 m 1,3,-1
 13 15 l 1,4,5
 175 57 175 57 316 250 c 2,6,-1
 1265 1550 l 1,7,-1
 1280 1550 l 1,8,-1
 1678 250 l 2,9,10
 1738 55 1738 55 1878 15 c 1,11,-1
 1875 0 l 1,12,-1
 1203 0 l 1,13,-1
 1206 15 l 1,14,15
 1347 74 1347 74 1363 168 c 0,16,17
 1365 180 1365 180 1365 193 c 0,18,19
 1365 220 1365 220 1357 246 c 2,20,-1
 1271 530 l 1,21,-1
 668 530 l 1,22,-1
 460 246 l 2,23,24
 434 211 434 211 424 169 c 0,25,26
 420 152 420 152 420 136 c 0,27,28
 420 58 420 58 511 15 c 1,29,-1
 508 0 l 1,30,-1
 10 0 l 1,3,-1
EndSplineSet
Validated: 1
EndChar

StartChar: B
Encoding: 66 66 36
Width: 1395
GlyphClass: 2
Flags: W
HStem: -20 121<570.676 863.586> 1409 121<816.459 1067.48>
VStem: 1098 337<371.414 700.512> 1102 316<1068.38 1374.87>
DStem2: 175.421 -20 475.421 -20 0.207912 0.978148<313.179 1315.03>
LayerCount: 2
Fore
SplineSet
706 101 m 0,0,1
 839 101 839 101 949 214 c 0,2,3
 1060 327 1060 327 1090 477 c 0,4,5
 1098 519 1098 519 1098 556 c 0,6,7
 1098 665 1098 665 1026 733 c 0,8,9
 950 804 950 804 783 837 c 1,10,11
 884 876 884 876 964 939 c 0,12,13
 1060 1015 1060 1015 1093 1171 c 0,14,15
 1102 1214 1102 1214 1102 1250 c 0,16,17
 1102 1308 1102 1308 1079 1348 c 0,18,19
 1044 1409 1044 1409 955 1409 c 0,20,21
 880 1409 880 1409 832 1377 c 24,22,23
 763 1332 763 1332 745 1246 c 2,24,-1
 536 265 l 2,25,26
 531 243 531 243 531 224 c 0,27,28
 531 165 531 165 576 132 c 0,29,30
 619 101 619 101 706 101 c 0,0,1
627 -20 m 0,31,32
 287 -20 287 -20 32 103 c 1,33,-1
 35 118 l 1,34,35
 216 170 216 170 236 265 c 2,36,-1
 445 1246 l 2,37,38
 447 1257 447 1257 447 1267 c 0,39,40
 447 1347 447 1347 306 1393 c 1,41,-1
 309 1408 l 1,42,43
 619 1530 619 1530 936 1530 c 0,44,45
 1259 1530 1259 1530 1364 1391 c 0,46,47
 1418 1319 1418 1319 1418 1231 c 0,48,49
 1418 1199 1418 1199 1411 1165 c 0,50,51
 1383 1035 1383 1035 1250 932 c 0,52,53
 1201 894 1201 894 1140 866 c 1,54,55
 1231 848 1231 848 1302 801 c 0,56,57
 1435 711 1435 711 1435 561 c 0,58,59
 1435 519 1435 519 1426 476 c 0,60,61
 1380 262 1380 262 1165 114 c 0,62,63
 971 -20 971 -20 627 -20 c 0,31,32
EndSplineSet
Validated: 1
EndChar

StartChar: C
Encoding: 67 67 37
Width: 1483
GlyphClass: 2
Flags: W
HStem: -20 122<727.253 1100.46> 1408 122<991.733 1364.03>
VStem: 209 349<322.269 824.154> 1566 15<931 960.347> 1692 16<1515.29 1530>
LayerCount: 2
Fore
SplineSet
829 -20 m 0,0,1
 516 -20 516 -20 357 157 c 0,2,3
 209 322 209 322 209 560 c 0,4,5
 209 652 209 652 231 755 c 0,6,7
 298 1072 298 1072 517 1273 c 0,8,9
 796 1530 796 1530 1158 1530 c 0,10,11
 1322 1530 1322 1530 1426 1470 c 0,12,13
 1492 1432 1492 1432 1554 1432 c 0,14,15
 1651 1432 1651 1432 1692 1530 c 1,16,-1
 1708 1530 l 1,17,-1
 1581 931 l 1,18,-1
 1566 931 l 1,19,20
 1531 1408 1531 1408 1182 1408 c 0,21,22
 951 1408 951 1408 776 1183 c 0,23,24
 641 1008 641 1008 586 756 c 0,25,26
 558 629 558 629 558 524 c 0,27,28
 558 411 558 411 590 323 c 0,29,30
 669 102 669 102 905 102 c 0,31,32
 1071 102 1071 102 1212 195 c 0,33,34
 1346 283 1346 283 1473 424 c 1,35,-1
 1434 241 l 1,36,37
 1180 -20 1180 -20 829 -20 c 0,0,1
EndSplineSet
Validated: 1
EndChar

StartChar: D
Encoding: 68 68 38
Width: 1514
GlyphClass: 2
Flags: W
HStem: -20 123<582.933 866.801> 1408 122<830.571 1131.21>
VStem: 1277 353<683.265 1189.34>
DStem2: 175.634 -20 485.421 -20 0.207912 0.978148<315.214 1314.99>
LayerCount: 2
Fore
SplineSet
704 103 m 0,0,1
 896 103 896 103 1060 322 c 0,2,3
 1198 506 1198 506 1250 754 c 0,4,5
 1277 884 1277 884 1277 992 c 0,6,7
 1277 1102 1277 1102 1249 1189 c 0,8,9
 1177 1408 1177 1408 981 1408 c 0,10,11
 904 1408 904 1408 854 1380 c 0,12,13
 774 1336 774 1336 755 1246 c 2,14,-1
 546 265 l 2,15,16
 541 243 541 243 541 224 c 0,17,18
 541 163 541 163 589 131 c 0,19,20
 632 103 632 103 704 103 c 0,0,1
616 -20 m 0,21,22
 290 -20 290 -20 32 102 c 1,23,-1
 35 116 l 1,24,25
 216 168 216 168 236 264 c 2,26,-1
 445 1246 l 2,27,28
 447 1257 447 1257 447 1267 c 0,29,30
 447 1348 447 1348 306 1394 c 1,31,-1
 309 1408 l 1,32,33
 617 1530 617 1530 945 1530 c 0,34,35
 1341 1530 1341 1530 1517 1306 c 0,36,37
 1630 1162 1630 1162 1630 959 c 0,38,39
 1630 872 1630 872 1609 775 c 0,40,41
 1536 430 1536 430 1320 239 c 24,42,43
 1027 -20 1027 -20 616 -20 c 0,21,22
EndSplineSet
Validated: 1
EndChar

StartChar: E
Encoding: 69 69 39
Width: 1400
GlyphClass: 2
Flags: W
HStem: 0 120<543.011 1142.88> 0 15<13 34.9531> 530 120<638 858.109> 1390 120<793.813 1262.43> 1495 15<331 347.219>
DStem2: 179.861 0 499.861 0 0.207912 0.978148<239.985 608.473 731.048 1357.37>
LayerCount: 2
Fore
SplineSet
10 0 m 1,0,-1
 13 15 l 1,1,2
 193 60 193 60 233 250 c 2,3,-1
 448 1260 l 2,4,5
 456 1298 456 1298 456 1330 c 0,6,7
 456 1459 456 1459 328 1495 c 1,8,-1
 331 1510 l 1,9,-1
 1377 1510 l 1,10,-1
 1505 1158 l 1,11,-1
 1490 1158 l 1,12,13
 1315 1390 1315 1390 1043 1390 c 2,14,-1
 817 1390 l 1,15,16
 784 1338 784 1338 768 1260 c 2,17,-1
 638 650 l 1,18,-1
 802 650 l 2,19,20
 1026 650 1026 650 1257 847 c 1,21,-1
 1272 847 l 1,22,-1
 878 345 l 1,23,-1
 863 345 l 1,24,25
 872 389 872 389 872 423 c 0,26,27
 872 530 872 530 777 530 c 2,28,-1
 613 530 l 1,29,-1
 553 250 l 2,30,31
 543 204 543 204 543 167 c 0,32,33
 543 141 543 141 548 120 c 1,34,-1
 904 120 l 2,35,36
 1177 120 1177 120 1450 352 c 1,37,-1
 1465 352 l 1,38,-1
 1186 0 l 1,39,-1
 10 0 l 1,0,-1
EndSplineSet
Validated: 1
EndChar

StartChar: F
Encoding: 70 70 40
Width: 1269
GlyphClass: 2
Flags: W
HStem: 0 15<13 34.9531 653.781 670> 530 120<638 858.109> 1390 120<793.813 1262.43> 1495 15<331 347.219>
DStem2: 179.861 0 499.861 0 0.207912 0.978148<252.963 608.473 731.048 1357.37>
LayerCount: 2
Fore
SplineSet
10 0 m 1,0,-1
 13 15 l 1,1,2
 193 60 193 60 233 250 c 2,3,-1
 448 1260 l 2,4,5
 456 1298 456 1298 456 1330 c 0,6,7
 456 1459 456 1459 328 1495 c 1,8,-1
 331 1510 l 1,9,-1
 1377 1510 l 1,10,-1
 1505 1158 l 1,11,-1
 1490 1158 l 1,12,13
 1315 1390 1315 1390 1043 1390 c 2,14,-1
 817 1390 l 1,15,16
 784 1338 784 1338 768 1260 c 2,17,-1
 638 650 l 1,18,-1
 802 650 l 2,19,20
 1026 650 1026 650 1257 847 c 1,21,-1
 1272 847 l 1,22,-1
 878 345 l 1,23,-1
 863 345 l 1,24,25
 872 389 872 389 872 423 c 0,26,27
 872 530 872 530 777 530 c 2,28,-1
 613 530 l 1,29,-1
 553 250 l 2,30,31
 545 212 545 212 545 180 c 0,32,33
 545 51 545 51 673 15 c 1,34,-1
 670 0 l 1,35,-1
 10 0 l 1,0,-1
EndSplineSet
Validated: 1
EndChar

StartChar: G
Encoding: 71 71 41
Width: 1581
GlyphClass: 2
Flags: W
HStem: -20 122<723.665 1032.84> 640 15<1050 1066.22 1685.05 1707> 1408 122<991.733 1364.03>
VStem: 209 351<322.769 831.639> 1566 15<931 960.347> 1692 16<1515.29 1530>
LayerCount: 2
Fore
SplineSet
829 -20 m 0,0,1
 516 -20 516 -20 357 157 c 0,2,3
 209 322 209 322 209 560 c 0,4,5
 209 652 209 652 231 755 c 0,6,7
 298 1072 298 1072 517 1273 c 0,8,9
 796 1530 796 1530 1158 1530 c 0,10,11
 1322 1530 1322 1530 1426 1470 c 0,12,13
 1492 1432 1492 1432 1554 1432 c 0,14,15
 1651 1432 1651 1432 1692 1530 c 1,16,-1
 1708 1530 l 1,17,-1
 1581 931 l 1,18,-1
 1566 931 l 1,19,20
 1531 1408 1531 1408 1182 1408 c 0,21,22
 951 1408 951 1408 776 1183 c 0,23,24
 636 1003 636 1003 585 755 c 0,25,26
 560 633 560 633 560 530 c 0,27,28
 560 414 560 414 592 324 c 0,29,30
 671 102 671 102 878 102 c 0,31,32
 1038 102 1038 102 1115 230 c 0,33,34
 1139 270 1139 270 1148 313 c 2,35,-1
 1167 405 l 2,36,37
 1175 442 1175 442 1175 474 c 0,38,39
 1175 604 1175 604 1047 640 c 1,40,-1
 1050 655 l 1,41,-1
 1710 655 l 1,42,-1
 1707 640 l 1,43,44
 1527 595 1527 595 1487 405 c 2,45,-1
 1447 215 l 1,46,47
 1181 -20 1181 -20 829 -20 c 0,0,1
EndSplineSet
Validated: 1
EndChar

StartChar: H
Encoding: 72 72 42
Width: 1527
GlyphClass: 2
Flags: W
HStem: 0 15<13 34.9531 653.781 670 860 881.953 1500.78 1517> 525 130<639 1139> 1495 15<331 347.219 966.047 988 1178 1194.22 1813.05 1835>
DStem2: 179.861 0 499.861 0 0.207912 0.978148<251.985 603.374 736.147 1358.35> 1026.86 0 1346.86 0 0.207912 0.978148<251.985 536.843 669.615 1358.35>
LayerCount: 2
Fore
SplineSet
10 0 m 1,0,-1
 13 15 l 1,1,2
 193 60 193 60 233 250 c 2,3,-1
 448 1260 l 2,4,5
 456 1299 456 1299 456 1331 c 0,6,7
 456 1459 456 1459 328 1495 c 1,8,-1
 331 1510 l 1,9,-1
 991 1510 l 1,10,-1
 988 1495 l 1,11,12
 808 1450 808 1450 768 1260 c 2,13,-1
 639 655 l 1,14,-1
 1166 655 l 1,15,-1
 1295 1260 l 2,16,17
 1303 1299 1303 1299 1303 1331 c 0,18,19
 1303 1459 1303 1459 1175 1495 c 1,20,-1
 1178 1510 l 1,21,-1
 1838 1510 l 1,22,-1
 1835 1495 l 1,23,24
 1655 1450 1655 1450 1615 1260 c 2,25,-1
 1400 250 l 2,26,27
 1392 211 1392 211 1392 179 c 0,28,29
 1392 51 1392 51 1520 15 c 1,30,-1
 1517 0 l 1,31,-1
 857 0 l 1,32,-1
 860 15 l 1,33,34
 1040 60 1040 60 1080 250 c 2,35,-1
 1139 525 l 1,36,-1
 612 525 l 1,37,-1
 553 250 l 2,38,39
 545 211 545 211 545 179 c 0,40,41
 545 51 545 51 673 15 c 1,42,-1
 670 0 l 1,43,-1
 10 0 l 1,0,-1
EndSplineSet
Validated: 1
EndChar

StartChar: I
Encoding: 73 73 43
Width: 680
GlyphClass: 2
Flags: W
HStem: 0 15<13 34.9531 653.781 670> 1495 15<331 347.219 966.047 988>
DStem2: 179.861 0 499.861 0 0.207912 0.978148<251.985 1358.35>
LayerCount: 2
Fore
SplineSet
10 0 m 1,0,1
 13 15 l 1,2,3
 193 60 193 60 233 250 c 2,4,-1
 448 1260 l 2,5,6
 456 1299 456 1299 456 1331 c 0,7,8
 456 1459 456 1459 328 1495 c 1,9,-1
 331 1510 l 1,10,-1
 991 1510 l 1,11,-1
 988 1495 l 1,12,13
 808 1450 808 1450 768 1260 c 2,14,-1
 553 250 l 2,15,16
 545 211 545 211 545 179 c 0,17,18
 545 51 545 51 673 15 c 1,19,-1
 670 0 l 1,20,-1
 10 0 l 1,0,1
EndSplineSet
Validated: 1
EndChar

StartChar: J
Encoding: 74 74 44
Width: 700
GlyphClass: 2
Flags: W
HStem: -430 21G<-118 154> 1495 15<351 367.219 986.047 1008>
DStem2: 108.601 -430 428.601 -430 0.207912 0.978148<284.628 1797.92>
LayerCount: 2
Fore
SplineSet
351 1510 m 1,0,-1
 1011 1510 l 1,1,-1
 1008 1495 l 1,2,3
 828 1450 828 1450 788 1260 c 2,4,-1
 520 0 l 2,5,6
 429 -430 429 -430 -121 -430 c 1,7,-1
 -118 -415 l 1,8,9
 139 -289 139 -289 200 0 c 2,10,-1
 468 1260 l 2,11,12
 476 1299 476 1299 476 1331 c 0,13,14
 476 1459 476 1459 348 1495 c 1,15,-1
 351 1510 l 1,0,-1
EndSplineSet
Validated: 1
EndChar

StartChar: K
Encoding: 75 75 45
Width: 1510
GlyphClass: 2
Flags: W
HStem: -313 163<1133 1442.5> -40 20G<1572 1596> 0 15<13 34.9531 653.931 670> 514 147<693.034 1055> 1495 15<331 347.219 966.047 988>
DStem2: 113.543 -313 433.331 -313 0.207912 0.978148<575.045 880.286 1020.4 1678.3> 632 620 806 632 0.697632 0.716457<129.985 1056.11> 1222 414 899 341 0.184814 -0.982774<-142.645 571.677>
LayerCount: 2
Fore
SplineSet
10 0 m 1,0,-1
 13 15 l 1,1,2
 193 60 193 60 233 249 c 2,3,-1
 448 1260 l 2,4,5
 456 1299 456 1299 456 1331 c 0,6,7
 456 1459 456 1459 328 1495 c 1,8,-1
 331 1510 l 1,9,-1
 991 1510 l 1,10,-1
 988 1495 l 1,11,12
 808 1450 808 1450 768 1260 c 2,13,-1
 632 620 l 1,14,-1
 1262 1267 l 2,15,16
 1323 1330 1323 1330 1334 1379 c 0,17,18
 1337 1395 1337 1395 1337 1408 c 0,19,20
 1337 1472 1337 1472 1264 1495 c 1,21,-1
 1267 1510 l 1,22,-1
 1781 1510 l 1,23,-1
 1778 1495 l 1,24,25
 1566 1411 1566 1411 1419 1260 c 2,26,-1
 806 632 l 1,27,28
 868 661 868 661 934 661 c 0,29,30
 1176 661 1176 661 1222 414 c 2,31,-1
 1307 -38 l 2,32,33
 1328 -150 1328 -150 1414 -150 c 0,34,35
 1471 -150 1471 -150 1513 -112 c 0,36,37
 1558 -72 1558 -72 1586 -20 c 1,38,-1
 1596 -20 l 1,39,40
 1557 -152 1557 -152 1473 -223 c 0,41,42
 1368 -313 1368 -313 1242 -313 c 0,43,44
 1024 -313 1024 -313 982 -95 c 2,45,-1
 899 341 l 2,46,47
 866 514 866 514 743 514 c 0,48,49
 606 514 606 514 557 270 c 2,50,-1
 553 250 l 2,51,52
 546 213 546 213 546 182 c 0,53,54
 546 52 546 52 673 15 c 1,55,-1
 670 0 l 1,56,-1
 10 0 l 1,0,-1
EndSplineSet
Validated: 1
EndChar

StartChar: L
Encoding: 76 76 46
Width: 1318
GlyphClass: 2
Flags: W
HStem: 0 120<545.494 1061.19> 0 15<13 34.9531> 1495 15<331 347.219 966.047 988>
DStem2: 179.861 0 499.861 0 0.207912 0.978148<252.963 1358.35>
LayerCount: 2
Fore
SplineSet
10 0 m 1,0,-1
 13 15 l 1,1,2
 193 60 193 60 233 250 c 2,3,-1
 448 1260 l 2,4,5
 456 1299 456 1299 456 1331 c 0,6,7
 456 1459 456 1459 328 1495 c 1,8,-1
 331 1510 l 1,9,-1
 991 1510 l 1,10,-1
 988 1495 l 1,11,12
 808 1450 808 1450 768 1260 c 2,13,-1
 553 250 l 2,14,15
 545 212 545 212 545 180 c 0,16,17
 545 146 545 146 554 120 c 1,18,-1
 823 120 l 2,19,20
 1095 120 1095 120 1368 352 c 1,21,-1
 1383 352 l 1,22,-1
 1105 0 l 1,23,-1
 10 0 l 1,0,-1
EndSplineSet
Validated: 1
EndChar

StartChar: M
Encoding: 77 77 47
Width: 2172
GlyphClass: 2
Flags: W
HStem: 0 15<508.137 521 1460 1478.01 2149.71 2164.87>
VStem: 1690 308<126.525 479.376>
DStem2: 279 250 410 250 0.34064 0.940194<-39.5257 749.126> 765 1550 651 912 0.329591 -0.944124<564.778 1231.83> 1171 387 992 -40 0.609447 0.792827<0 766.062> 1690 250 1999 250 0.0621871 0.998065<1.25427 673.311>
LayerCount: 2
Fore
SplineSet
10 0 m 1,0,-1
 13 15 l 17,1,2
 219 84 219 84 279 250 c 2,3,-1
 750 1550 l 1,4,-1
 765 1550 l 1,5,-1
 1171 387 l 1,6,-1
 2065 1550 l 1,7,-1
 2080 1550 l 1,8,-1
 1999 250 l 2,9,10
 1998 234 1998 234 1998 232 c 0,11,12
 1998 80 1998 80 2165 15 c 1,13,14
 2164 9 2164 9 2162 0 c 1,15,-1
 1457 0 l 1,16,-1
 1460 15 l 1,17,18
 1656 73 1656 73 1685 211 c 0,19,20
 1689 228 1689 228 1690 250 c 2,21,-1
 1732 922 l 1,22,-1
 992 -40 l 1,23,-1
 977 -40 l 1,24,-1
 651 912 l 1,25,-1
 410 250 l 2,26,27
 405 237 405 237 398 209 c 0,28,29
 393 187 393 187 393 166 c 0,30,31
 393 63 393 63 524 15 c 1,32,-1
 521 0 l 1,33,-1
 10 0 l 1,0,-1
EndSplineSet
Validated: 1
EndChar

StartChar: N
Encoding: 78 78 48
Width: 1545
GlyphClass: 2
Flags: W
HStem: 0 15<13 34.9531 460.125 480> 1495 15<1386 1402.22 1831.05 1853>
DStem2: 171.359 -40 301.359 -40 0.207912 0.978148<253.406 1121.95> 524 1550 529 1031 0.604158 -0.796864<416.593 1341.05> 1227.41 -40 1356 -40 0.207912 0.978148<536.729 1398.04>
LayerCount: 2
Fore
SplineSet
10 0 m 1,0,1
 13 15 l 1,2,3
 193 60 193 60 233 250 c 2,4,-1
 509 1550 l 1,5,-1
 524 1550 l 1,6,-1
 1339 485 l 1,7,-1
 1503 1260 l 2,8,9
 1511 1298 1511 1298 1511 1330 c 0,10,11
 1511 1459 1511 1459 1383 1495 c 1,12,-1
 1386 1510 l 1,13,-1
 1856 1510 l 1,14,-1
 1853 1495 l 1,15,16
 1673 1450 1673 1450 1633 1260 c 2,17,-1
 1356 -40 l 1,18,-1
 1341 -40 l 1,19,-1
 529 1031 l 1,20,-1
 363 250 l 2,21,22
 355 212 355 212 355 179 c 0,23,24
 355 50 355 50 483 15 c 1,25,-1
 480 0 l 1,26,-1
 10 0 l 1,0,1
EndSplineSet
Validated: 1
EndChar

StartChar: P
Encoding: 80 80 49
Width: 1385
GlyphClass: 2
Flags: W
HStem: 0 15<13 40.1265 639.946 660> 478 122<684.945 948.654> 1408 122<831.976 1101.16>
VStem: 1198 344<905.271 1296.1>
DStem2: 179.861 0 489.861 0 0.207912 0.978148<246.825 614.427 805.083 1294.55>
LayerCount: 2
Fore
SplineSet
804 600 m 0,0,1
 897 600 897 600 980 666 c 0,2,3
 1140 793 1140 793 1184 1003 c 0,4,5
 1198 1072 1198 1072 1198 1131 c 0,6,7
 1198 1258 1198 1258 1132 1337 c 0,8,9
 1072 1408 1072 1408 975 1408 c 0,10,11
 902 1408 902 1408 851 1378 c 0,12,13
 773 1333 773 1333 755 1246 c 2,14,-1
 652 762 l 2,15,16
 648 741 648 741 648 723 c 0,17,18
 648 664 648 664 692 630 c 0,19,20
 731 600 731 600 804 600 c 0,0,1
10 0 m 1,21,-1
 13 15 l 1,22,23
 192 56 192 56 233 250 c 2,24,-1
 445 1246 l 2,25,26
 447 1257 447 1257 447 1267 c 0,27,28
 447 1348 447 1348 306 1394 c 1,29,-1
 309 1408 l 1,30,31
 616 1530 616 1530 919 1530 c 0,32,33
 1285 1530 1285 1530 1437 1377 c 0,34,35
 1542 1271 1542 1271 1542 1119 c 0,36,37
 1542 1067 1542 1067 1530 1010 c 0,38,39
 1482 782 1482 782 1279 631 c 0,40,41
 1074 478 1074 478 815 478 c 0,42,43
 689 478 689 478 604 538 c 1,44,-1
 543 250 l 2,45,46
 534 210 534 210 534 176 c 0,47,48
 534 46 534 46 663 15 c 1,49,-1
 660 0 l 1,50,-1
 10 0 l 1,21,-1
EndSplineSet
Validated: 1
EndChar

StartChar: Q
Encoding: 81 81 50
Width: 1541
GlyphClass: 2
Flags: W
HStem: -284 147<1035.5 1294.89> -40 20G<1428.5 1451> -20 122<657.817 860> 300 147<734.821 980> 1408 122<917.769 1205.56>
VStem: 206 335<291.54 779.083> 1321 335<729.508 1219.48>
LayerCount: 2
Fore
SplineSet
767 -20 m 0,0,1
 489 -20 489 -20 343 142 c 0,2,3
 206 295 206 295 206 534 c 0,4,5
 206 637 206 637 231 755 c 0,6,7
 315 1150 315 1150 604 1368 c 0,8,9
 818 1530 818 1530 1096 1530 c 0,10,11
 1376 1530 1376 1530 1520 1368 c 0,12,13
 1656 1214 1656 1214 1656 976 c 0,14,15
 1656 873 1656 873 1631 755 c 0,16,17
 1546 358 1546 358 1259 142 c 0,18,19
 1215 109 1215 109 1168 82 c 1,20,-1
 1191 -37 l 2,21,22
 1210 -137 1210 -137 1288 -137 c 0,23,24
 1338 -137 1338 -137 1376.5 -102.5 c 128,-1,25
 1415 -68 1415 -68 1442 -20 c 1,26,-1
 1451 -20 l 1,27,28
 1415 -144 1415 -144 1351 -199 c 0,29,30
 1252 -284 1252 -284 1137 -284 c 0,31,32
 934 -284 934 -284 896 -88 c 2,33,-1
 882 -15 l 1,34,35
 833 -20 833 -20 767 -20 c 0,0,1
1120 313 m 1,36,37
 1224 471 1224 471 1283 755 c 0,38,39
 1321 932 1321 932 1321 1061 c 0,40,41
 1321 1207 1321 1207 1272 1289 c 0,42,43
 1200 1408 1200 1408 1070.5 1408 c 128,-1,44
 941 1408 941 1408 818 1289 c 0,45,46
 661 1137 661 1137 579 755 c 0,47,48
 541 578 541 578 541 450 c 0,49,50
 541 312 541 312 585 232 c 1,51,52
 619 311 619 311 674 359 c 0,53,54
 776 447 776 447 895 447 c 0,55,56
 1065 447 1065 447 1120 313 c 1,36,37
595 213 m 1,57,58
 666 102 666 102 793 102 c 0,59,60
 834 102 834 102 860 107 c 1,61,-1
 842 199 l 2,62,63
 822 300 822 300 741 300 c 0,64,65
 681 300 681 300 642 266 c 0,66,67
 614 242 614 242 595 213 c 1,57,58
EndSplineSet
Validated: 1
EndChar

StartChar: R
Encoding: 82 82 51
Width: 1509
GlyphClass: 2
Flags: W
HStem: -313 163<1136.5 1440.5> -40 20G<1570 1595> 0 15<13 40.1265 639.946 660> 478 122<693.227 849.875> 1408 122<831.976 1101.16>
VStem: 1198 344<905.63 1296.33>
DStem2: 113.331 -313 423.331 -313 0.207912 0.978148<566.757 934.42 1125.08 1614.48> 1241 313 910 287 0.18522 -0.982697<-157.297 468.831>
LayerCount: 2
Fore
SplineSet
804 600 m 0,0,1
 897 600 897 600 980 666 c 0,2,3
 1140 793 1140 793 1184 1003 c 0,4,5
 1198 1072 1198 1072 1198 1131 c 0,6,7
 1198 1258 1198 1258 1132 1337 c 0,8,9
 1072 1408 1072 1408 975 1408 c 0,10,11
 902 1408 902 1408 851 1378 c 0,12,13
 773 1333 773 1333 755 1246 c 2,14,-1
 652 762 l 2,15,16
 648 741 648 741 648 723 c 0,17,18
 648 664 648 664 692 630 c 0,19,20
 731 600 731 600 804 600 c 0,0,1
10 0 m 1,21,-1
 13 15 l 1,22,23
 192 56 192 56 233 250 c 2,24,-1
 445 1246 l 2,25,26
 447 1255 447 1255 447 1267 c 0,27,28
 447 1348 447 1348 306 1394 c 1,29,-1
 309 1408 l 1,30,31
 616 1530 616 1530 919 1530 c 0,32,33
 1285 1530 1285 1530 1437 1377 c 0,34,35
 1542 1272 1542 1272 1542 1119 c 0,36,37
 1542 1067 1542 1067 1530 1010 c 0,38,39
 1482 784 1482 784 1279 631 c 0,40,41
 1178 555 1178 555 1048 517 c 1,42,43
 1209 487 1209 487 1241 313 c 2,44,-1
 1306 -38 l 2,45,46
 1327 -150 1327 -150 1413 -150 c 0,47,48
 1468 -150 1468 -150 1511.5 -112 c 128,-1,49
 1555 -74 1555 -74 1585 -20 c 1,50,-1
 1595 -20 l 1,51,52
 1556 -151 1556 -151 1479 -220 c 0,53,54
 1375 -313 1375 -313 1250 -313 c 0,55,56
 1023 -313 1023 -313 982 -95 c 2,57,-1
 910 287 l 2,58,59
 874 478 874 478 755 478 c 0,60,61
 663 478 663 478 604 538 c 1,62,-1
 543 250 l 2,63,64
 534 208 534 208 534 176 c 0,65,66
 534 46 534 46 663 15 c 1,67,-1
 660 0 l 1,68,-1
 10 0 l 1,21,-1
EndSplineSet
Validated: 1
EndChar

StartChar: S
Encoding: 83 83 52
Width: 1321
GlyphClass: 2
Flags: W
HStem: -20 122<413.444 814.064> 1412 118<833.903 1152.97>
VStem: 66 15<-20 -11.0278> 194 15<556.34 585> 413 315<1079.24 1270.39> 1019 339<349.057 589.05> 1269 15<1058 1089.29>
DStem2: 852 1024 638 779 0.904733 -0.425979<-141.579 318.679>
LayerCount: 2
Fore
SplineSet
642 -20 m 0,0,1
 446 -20 446 -20 315 53 c 0,2,3
 270 78 270 78 235 78 c 0,4,5
 153 78 153 78 81 -20 c 1,6,-1
 66 -20 l 1,7,-1
 194 585 l 1,8,-1
 209 585 l 1,9,10
 209 352 209 352 299 238 c 0,11,12
 405 102 405 102 628 102 c 0,13,14
 746 102 746 102 834 158 c 0,15,16
 987 256 987 256 1014 408 c 0,17,18
 1019 436 1019 436 1019 461 c 0,19,20
 1019 602 1019 602 860 676 c 2,21,-1
 638 779 l 2,22,23
 413 883 413 883 413 1094 c 0,24,25
 413 1120 413 1120 416 1147 c 0,26,27
 435 1304 435 1304 604 1429 c 0,28,29
 741 1530 741 1530 934 1530 c 0,30,31
 1063 1530 1063 1530 1145 1492 c 0,32,33
 1195 1469 1195 1469 1244 1469 c 0,34,35
 1317 1469 1317 1469 1369 1530 c 1,36,-1
 1384 1530 l 1,37,-1
 1284 1058 l 1,38,-1
 1269 1058 l 1,39,40
 1269 1204 1269 1204 1217 1296 c 0,41,42
 1152 1412 1152 1412 991 1412 c 0,43,44
 890 1412 890 1412 824 1361 c 0,45,46
 755 1307 755 1307 735 1230 c 0,47,48
 728 1203 728 1203 728 1179 c 0,49,50
 728 1082 728 1082 852 1024 c 2,51,-1
 1092 911 l 2,52,53
 1358 786 1358 786 1358 550 c 0,54,55
 1358 511 1358 511 1351 470 c 0,56,57
 1314 256 1314 256 1115 118 c 128,-1,58
 916 -20 916 -20 642 -20 c 0,0,1
EndSplineSet
Validated: 1
EndChar

StartChar: T
Encoding: 84 84 53
Width: 1529
GlyphClass: 2
Flags: W
HStem: 0 15<438 459.953 1078.78 1095> 1390 120<577.316 881.984 1218.81 1522.75>
DStem2: 604.861 0 924.861 0 0.207912 0.978148<251.985 1369.16>
LayerCount: 2
Fore
SplineSet
435 0 m 1,0,-1
 438 15 l 1,1,2
 618 60 618 60 658 250 c 2,3,-1
 873 1260 l 2,4,5
 882 1305 882 1305 882 1342 c 0,6,7
 882 1368 882 1368 878 1390 c 1,8,-1
 816 1390 l 2,9,10
 543 1390 543 1390 271 1158 c 1,11,-1
 256 1158 l 1,12,-1
 534 1510 l 1,13,-1
 1638 1510 l 1,14,-1
 1765 1158 l 1,15,-1
 1750 1158 l 1,16,17
 1575 1390 1575 1390 1304 1390 c 2,18,-1
 1242 1390 l 1,19,20
 1209 1339 1209 1339 1193 1260 c 2,21,-1
 978 250 l 2,22,23
 970 211 970 211 970 179 c 0,24,25
 970 51 970 51 1098 15 c 1,26,-1
 1095 0 l 1,27,-1
 435 0 l 1,0,-1
EndSplineSet
Validated: 1
EndChar

StartChar: U
Encoding: 85 85 54
Width: 1527
GlyphClass: 2
Flags: W
HStem: -20 161<703.135 1039.93> 1495 15<331 351.054 960.874 988 1367 1387.05 1813.16 1835>
VStem: 273 322<246.745 562.259>
DStem2: 175.471 -20 496.045 -20 0.207912 0.978148<499.486 1381.9> 1213.05 -20 1342.47 -20 0.207912 0.978148<335.492 1379.65>
LayerCount: 2
Fore
SplineSet
770 -20 m 24,0,1
 494 -20 494 -20 366 126 c 0,2,3
 273 232 273 232 273 381 c 0,4,5
 273 437 273 437 286 500 c 2,6,-1
 448 1260 l 2,7,8
 457 1300 457 1300 457 1334 c 0,9,10
 457 1464 457 1464 328 1495 c 1,11,-1
 331 1510 l 1,12,-1
 991 1510 l 1,13,-1
 988 1495 l 1,14,15
 809 1454 809 1454 768 1260 c 2,16,-1
 607 502 l 2,17,18
 595 447 595 447 595 400 c 0,19,20
 595 301 595 301 647 236 c 0,21,22
 722 141 722 141 890 141 c 128,-1,23
 1058 141 1058 141 1172 243 c 0,24,25
 1292 351 1292 351 1324 502 c 2,26,-1
 1485 1260 l 2,27,28
 1493 1299 1493 1299 1493 1332 c 0,29,30
 1493 1463 1493 1463 1364 1495 c 1,31,-1
 1367 1510 l 1,32,-1
 1838 1510 l 1,33,-1
 1835 1495 l 1,34,35
 1656 1451 1656 1451 1615 1260 c 2,36,-1
 1453 500 l 2,37,38
 1406 277 1406 277 1223 129 c 0,39,40
 1041 -20 1041 -20 770 -20 c 24,0,1
EndSplineSet
Validated: 1
EndChar

StartChar: V
Encoding: 86 86 55
Width: 1885
GlyphClass: 2
Flags: W
HStem: 1495 15<331 349.387 1698 1708.66 2167.82 2193>
DStem2: 848 1264 528 1260 0.292069 -0.956397<-50.7451 906.222> 1115 398 940 -40 0.590017 0.807391<0 1183.49>
LayerCount: 2
Fore
SplineSet
925 -40 m 1,0,-1
 528 1260 l 2,1,2
 468 1455 468 1455 328 1495 c 1,3,-1
 331 1510 l 1,4,-1
 1002 1510 l 1,5,-1
 999 1495 l 1,6,7
 865 1441 865 1441 842 1342 c 0,8,9
 839 1329 839 1329 839 1315 c 0,10,11
 839 1293 839 1293 848 1264 c 2,12,-1
 1115 398 l 1,13,-1
 1746 1264 l 2,14,15
 1772 1300 1772 1300 1782 1341 c 0,16,17
 1786 1357 1786 1357 1786 1374 c 0,18,19
 1786 1452 1786 1452 1695 1495 c 1,20,-1
 1698 1510 l 1,21,-1
 2196 1510 l 1,22,-1
 2193 1495 l 1,23,24
 2031 1453 2031 1453 1890 1260 c 2,25,-1
 940 -40 l 1,26,-1
 925 -40 l 1,0,-1
EndSplineSet
Validated: 1
EndChar

StartChar: W
Encoding: 87 87 56
Width: 2582
GlyphClass: 2
Flags: W
HStem: 1495 15<331 349.387 2395 2405.66 2864.82 2890>
VStem: 1149 309<1201 1510> 1926 147<1363 1510>
DStem2: 848 1264 528 1260 0.292069 -0.956397<-51.6718 905.93> 1114 398 1421 618 0.590121 0.807315<0 358.776 819.471 1376.91> 1458 1510 1149 1510 0.291874 -0.956457<0 470.976 617.431 694.949 842.36 1174.13> 1804 388 1637 -40 0.590017 0.807391<0 1196.3>
LayerCount: 2
Fore
SplineSet
925 -40 m 1,0,-1
 528 1260 l 2,1,2
 468 1455 468 1455 328 1495 c 1,3,-1
 331 1510 l 1,4,-1
 1002 1510 l 1,5,-1
 999 1495 l 1,6,7
 867 1442 867 1442 842 1342 c 0,8,9
 839 1330 839 1330 839 1316 c 0,10,11
 839 1293 839 1293 848 1264 c 2,12,-1
 1114 398 l 1,13,-1
 1378 759 l 1,14,-1
 1149 1510 l 1,15,-1
 1458 1510 l 1,16,-1
 1597 1060 l 1,17,-1
 1926 1510 l 1,18,-1
 2073 1510 l 1,19,-1
 1640 920 l 1,20,-1
 1804 388 l 1,21,-1
 2443 1264 l 2,22,23
 2469 1300 2469 1300 2479 1341 c 0,24,25
 2483 1358 2483 1358 2483 1374 c 0,26,27
 2483 1453 2483 1453 2392 1495 c 1,28,-1
 2395 1510 l 1,29,-1
 2893 1510 l 1,30,-1
 2890 1495 l 1,31,32
 2728 1453 2728 1453 2587 1260 c 2,33,-1
 1637 -40 l 1,34,-1
 1622 -40 l 1,35,-1
 1421 618 l 1,36,-1
 940 -40 l 1,37,-1
 925 -40 l 1,0,-1
EndSplineSet
Validated: 1
EndChar

StartChar: X
Encoding: 88 88 57
Width: 1693
GlyphClass: 2
Flags: W
HStem: 0 15<950 970.686 1673.38 1683> 1495 15<331 351.582 1043.88 1065 1425 1438.97 1977.73 2001>
DStem2: 391 250 559 250 0.725595 0.688123<-26.8663 619.177 969.759 1615.76> 1094 918 605 1260 0.426315 -0.904575<-474.76 0 220.713 697.708>
LayerCount: 2
Fore
SplineSet
10 0 m 1,0,-1
 13 15 l 1,1,2
 229 97 229 97 391 250 c 2,3,-1
 868 703 l 1,4,-1
 605 1260 l 2,5,6
 520 1440 520 1440 328 1495 c 1,7,-1
 331 1510 l 1,8,-1
 1068 1510 l 1,9,-1
 1065 1495 l 1,10,11
 925 1452 925 1452 909 1376 c 0,12,13
 907 1367 907 1367 907 1356 c 0,14,15
 907 1315 907 1315 933 1260 c 2,16,-1
 1094 918 l 1,17,-1
 1454 1260 l 2,18,19
 1522 1324 1522 1324 1533 1377 c 0,20,21
 1535 1385 1535 1385 1535 1392 c 0,22,23
 1535 1454 1535 1454 1422 1495 c 1,24,-1
 1425 1510 l 1,25,-1
 2004 1510 l 1,26,-1
 2001 1495 l 1,27,28
 1815 1441 1815 1441 1624 1260 c 2,29,-1
 1146 807 l 1,30,-1
 1409 250 l 2,31,32
 1482 95 1482 95 1686 15 c 1,33,-1
 1683 0 l 1,34,-1
 947 0 l 1,35,-1
 950 15 l 1,36,37
 1087 56 1087 56 1106 134 c 0,38,39
 1108 142 1108 142 1108 152 c 0,40,41
 1108 193 1108 193 1081 250 c 2,42,-1
 920 592 l 1,43,-1
 559 250 l 2,44,45
 491 186 491 186 480 134 c 0,46,47
 478 126 478 126 478 119 c 0,48,49
 478 58 478 58 590 15 c 1,50,-1
 587 0 l 1,51,-1
 10 0 l 1,0,-1
EndSplineSet
Validated: 1
EndChar

StartChar: Y
Encoding: 89 89 58
Width: 1777
GlyphClass: 2
Flags: W
HStem: 0 15<562 588.976 1197.3 1217> 1495 15<331 346.441 969.407 990 1587 1601.78 2068.39 2085>
DStem2: 1106 633 837 511 0.358896 -0.933378<-746.014 0> 1106 633 1156 510 0.629109 0.777317<0 942.906>
LayerCount: 2
Fore
SplineSet
559 0 m 1,0,-1
 562 15 l 1,1,2
 740 57 740 57 781 250 c 2,3,-1
 837 511 l 1,4,-1
 549 1260 l 2,5,6
 478 1444 478 1444 328 1495 c 1,7,-1
 331 1510 l 1,8,-1
 993 1510 l 1,9,-1
 990 1495 l 1,10,11
 876 1458 876 1458 851 1359 c 0,12,13
 848 1347 848 1347 848 1334 c 0,14,15
 848 1304 848 1304 863 1265 c 2,16,-1
 1106 633 l 1,17,-1
 1615 1265 l 2,18,19
 1660 1321 1660 1321 1667 1360 c 0,20,21
 1670 1376 1670 1376 1670 1390 c 0,22,23
 1670 1463 1670 1463 1584 1495 c 1,24,-1
 1587 1510 l 1,25,-1
 2088 1510 l 1,26,-1
 2085 1495 l 1,27,28
 1907 1438 1907 1438 1763 1260 c 2,29,-1
 1156 510 l 1,30,-1
 1101 250 l 2,31,32
 1093 212 1093 212 1093 177 c 0,33,34
 1093 47 1093 47 1220 15 c 1,35,-1
 1217 0 l 1,36,-1
 559 0 l 1,0,-1
EndSplineSet
Validated: 1
EndChar

StartChar: Z
Encoding: 90 90 59
Width: 1456
GlyphClass: 2
Flags: W
HStem: 0 120<496 1201.27> 1390 120<663.035 1200>
DStem2: 10 0 496 120 0.650341 0.759642<407.223 1829.81>
LayerCount: 2
Fore
SplineSet
10 0 m 1,0,-1
 1200 1390 l 1,1,-1
 898 1390 l 2,2,3
 631 1390 631 1390 357 1158 c 1,4,-1
 343 1158 l 1,5,-1
 621 1510 l 1,6,-1
 1686 1510 l 1,7,-1
 496 120 l 1,8,-1
 966 120 l 2,9,10
 1234 120 1234 120 1506 352 c 1,11,-1
 1521 352 l 1,12,-1
 1243 0 l 1,13,-1
 10 0 l 1,0,-1
EndSplineSet
Validated: 1
EndChar

StartChar: bracketleft
Encoding: 91 91 60
Width: 786
GlyphClass: 2
Flags: W
HStem: -200 126<465 723> 1579 131<817 1102>
DStem2: 138 -200 438.218 -200 0.207912 0.978148<191.234 1881.3>
LayerCount: 2
Fore
SplineSet
138 -200 m 1,0,-1
 544 1710 l 1,1,-1
 1129 1710 l 1,2,-1
 1102 1579 l 1,3,-1
 817 1579 l 1,4,-1
 465 -74 l 1,5,-1
 750 -74 l 1,6,-1
 723 -200 l 1,7,-1
 138 -200 l 1,0,-1
EndSplineSet
Validated: 1
EndChar

StartChar: backslash
Encoding: 92 92 61
Width: 1118
GlyphClass: 2
Flags: W
DStem2: 572 1660 342 1562 0.295223 -0.955428<25.7307 1780.77>
LayerCount: 2
Fore
SplineSet
572 1660 m 1,0,-1
 1099 -41 l 1,1,-1
 871 -150 l 1,2,-1
 342 1562 l 1,3,-1
 572 1660 l 1,0,-1
EndSplineSet
Validated: 1
EndChar

StartChar: bracketright
Encoding: 93 93 62
Width: 786
GlyphClass: 2
Flags: W
HStem: -200 126<5 290> 1579 131<384 642>
DStem2: 263.218 -200 563 -200 0.207912 0.978148<128.815 1818.88>
LayerCount: 2
Fore
SplineSet
563 -200 m 1,0,-1
 -22 -200 l 1,1,-1
 5 -74 l 1,2,-1
 290 -74 l 1,3,-1
 642 1579 l 1,4,-1
 357 1579 l 1,5,-1
 384 1710 l 1,6,-1
 969 1710 l 1,7,-1
 563 -200 l 1,0,-1
EndSplineSet
Validated: 1
EndChar

StartChar: asciicircum
Encoding: 94 94 63
Width: 919
GlyphClass: 2
Flags: W
HStem: 1152 398<574.749 661>
LayerCount: 2
Fore
SplineSet
661 1550 m 1,0,-1
 917 1550 l 1,1,-1
 1114 1152 l 1,2,-1
 854 1152 l 1,3,4
 780 1272 780 1272 780 1448 c 1,5,6
 720 1273 720 1273 556 1152 c 1,7,-1
 295 1152 l 1,8,-1
 661 1550 l 1,0,-1
EndSplineSet
Validated: 1
EndChar

StartChar: underscore
Encoding: 95 95 64
Width: 1272
GlyphClass: 2
Flags: W
HStem: -231 144<163 1041>
LayerCount: 2
Fore
SplineSet
163 -87 m 1,0,-1
 1153 -87 l 1,1,-1
 1041 -231 l 1,2,-1
 51 -231 l 1,3,-1
 163 -87 l 1,0,-1
EndSplineSet
Validated: 1
EndChar

StartChar: grave
Encoding: 96 96 65
Width: 507
GlyphClass: 2
Flags: W
HStem: 1160 348
VStem: 344 365
LayerCount: 2
Fore
SplineSet
470 1508 m 0,0,1
 540 1508 540 1508 570 1450 c 2,2,-1
 709 1184 l 1,3,-1
 684 1160 l 1,4,-1
 400 1290 l 2,5,6
 344 1316 344 1316 344 1383 c 0,7,8
 344 1436 344 1436 377 1473 c 0,9,10
 408 1508 408 1508 470 1508 c 0,0,1
EndSplineSet
Validated: 1
EndChar

StartChar: a
Encoding: 97 97 66
Width: 1300
GlyphClass: 2
Flags: W
HStem: -20 121<588.641 826.146> 999 121<759.229 1136.87>
VStem: 172 324<221.847 643.835>
DStem2: 824.626 -20 1115.84 -20 0.207912 0.978148<322.257 935.538>
LayerCount: 2
Fore
SplineSet
720 101 m 0,0,1
 787 101 787 101 830 146 c 0,2,3
 869 187 869 187 885 262 c 2,4,-1
 1007 838 l 2,5,6
 1014 871 1014 871 1014 897 c 0,7,8
 1014 928 1014 928 1004 950 c 0,9,10
 981 999 981 999 911 999 c 0,11,12
 766 999 766 999 654 862 c 0,13,14
 556 742 556 742 515 548 c 0,15,16
 496 457 496 457 496 384 c 0,17,18
 496 299 496 299 522 238 c 0,19,20
 581 101 581 101 720 101 c 0,0,1
755 -20 m 0,21,22
 415 -20 415 -20 273 138 c 0,23,24
 172 252 172 252 172 416 c 0,25,26
 172 479 172 479 187 550 c 0,27,28
 241 805 241 805 436 952 c 0,29,30
 660 1120 660 1120 997 1120 c 0,31,32
 1272 1120 1272 1120 1502 998 c 1,33,-1
 1499 983 l 1,34,35
 1322 949 1322 949 1298 837 c 2,36,-1
 1176 263 l 2,37,38
 1173 248 1173 248 1173 235 c 0,39,40
 1173 145 1173 145 1315 117 c 1,41,-1
 1312 102 l 1,42,43
 1029 -20 1029 -20 755 -20 c 0,21,22
EndSplineSet
Validated: 1
EndChar

StartChar: b
Encoding: 98 98 67
Width: 1300
GlyphClass: 2
Flags: W
HStem: -20 121<397.13 774.061> 999 121<708.469 944.062> 1510 20G<675.5 790.777>
VStem: 1037 326<456.142 879.846>
DStem2: 175.846 -20 466.059 -20 0.207912 0.978148<290.269 1060.8 1223.77 1317.76>
LayerCount: 2
Fore
SplineSet
813 999 m 0,0,1
 746 999 746 999 703 954 c 0,2,3
 664 913 664 913 648 838 c 2,4,-1
 526 262 l 2,5,6
 519 229 519 229 519 203 c 0,7,8
 519 172 519 172 529 150 c 0,9,10
 552 101 552 101 622 101 c 0,11,12
 767 101 767 101 879 238 c 0,13,14
 977 358 977 358 1018 552 c 0,15,16
 1037 643 1037 643 1037 716 c 0,17,18
 1037 801 1037 801 1011 862 c 0,19,20
 952 999 952 999 813 999 c 0,0,1
537 -20 m 0,21,22
 263 -20 263 -20 32 102 c 1,23,-1
 35 117 l 1,24,25
 212 150 212 150 236 263 c 2,26,-1
 444 1240 l 2,27,28
 447 1256 447 1256 447 1270 c 0,29,30
 447 1363 447 1363 306 1391 c 1,31,-1
 309 1406 l 1,32,33
 556 1511 556 1511 795 1530 c 1,34,-1
 708 1118 l 1,35,36
 738 1120 738 1120 779 1120 c 0,37,38
 1116 1120 1116 1120 1268 952 c 0,39,40
 1363 847 1363 847 1363 688 c 0,41,42
 1363 623 1363 623 1347 550 c 0,43,44
 1293 296 1293 296 1085 138 c 128,-1,45
 877 -20 877 -20 537 -20 c 0,21,22
EndSplineSet
Validated: 1
EndChar

StartChar: c
Encoding: 99 99 68
Width: 1246
GlyphClass: 2
Flags: W
HStem: -20 121<611.661 938.223> 999 121<770.526 1114>
VStem: 173 332<223.363 652.507> 1262 15<617 648.312> 1369 15<1107.69 1120>
LayerCount: 2
Fore
SplineSet
706 -20 m 0,0,1
 398 -20 398 -20 267 145 c 0,2,3
 173 264 173 264 173 421 c 0,4,5
 173 482 173 482 187 550 c 0,6,7
 240 797 240 797 439 954 c 0,8,9
 649 1120 649 1120 934 1120 c 0,10,11
 1079 1120 1079 1120 1167 1061 c 0,12,13
 1201 1038 1201 1038 1247 1038 c 0,14,15
 1331 1038 1331 1038 1369 1120 c 1,16,-1
 1384 1120 l 1,17,-1
 1277 617 l 1,18,-1
 1262 617 l 1,19,20
 1255 762 1255 762 1191 873 c 0,21,22
 1118 999 1118 999 944 999 c 0,23,24
 773 999 773 999 659 859 c 0,25,26
 561 740 561 740 523 550 c 0,27,28
 505 460 505 460 505 388 c 0,29,30
 505 297 505 297 534 236 c 0,31,32
 599 101 599 101 760 101 c 0,33,34
 890 101 890 101 1018 194 c 0,35,36
 1118 266 1118 266 1232 403 c 1,37,-1
 1186 190 l 1,38,39
 992 -20 992 -20 706 -20 c 0,0,1
EndSplineSet
Validated: 1
EndChar

StartChar: d
Encoding: 100 100 69
Width: 1300
GlyphClass: 2
Flags: W
HStem: -20 121<588.641 826.146> 999 121<759.229 1034.4> 1510 20G<1325.5 1440.75>
VStem: 172 324<221.847 643.835>
DStem2: 824.626 -20 1115.85 -20 0.207912 0.978148<322.257 935.538 1155.84 1318.01>
LayerCount: 2
Fore
SplineSet
720 101 m 0,0,1
 787 101 787 101 830 146 c 0,2,3
 869 187 869 187 885 262 c 2,4,-1
 1007 838 l 2,5,6
 1014 871 1014 871 1014 897 c 0,7,8
 1014 928 1014 928 1004 950 c 0,9,10
 981 999 981 999 911 999 c 0,11,12
 766 999 766 999 654 862 c 0,13,14
 556 742 556 742 515 548 c 0,15,16
 496 457 496 457 496 384 c 0,17,18
 496 299 496 299 522 238 c 0,19,20
 581 101 581 101 720 101 c 0,0,1
755 -20 m 0,21,22
 415 -20 415 -20 273 138 c 0,23,24
 172 252 172 252 172 416 c 0,25,26
 172 479 172 479 187 550 c 0,27,28
 241 805 241 805 436 952 c 0,29,30
 660 1120 660 1120 997 1120 c 0,31,32
 1038 1120 1038 1120 1068 1118 c 1,33,-1
 1094 1240 l 2,34,35
 1097 1256 1097 1256 1097 1270 c 0,36,37
 1097 1363 1097 1363 956 1391 c 1,38,-1
 959 1406 l 1,39,40
 1206 1511 1206 1511 1445 1530 c 1,41,-1
 1176 263 l 2,42,43
 1173 248 1173 248 1173 235 c 0,44,45
 1173 145 1173 145 1315 117 c 1,46,-1
 1312 102 l 1,47,48
 1029 -20 1029 -20 755 -20 c 0,21,22
EndSplineSet
Validated: 1
EndChar

StartChar: f
Encoding: 102 102 70
Width: 1082
GlyphClass: 2
Flags: W
HStem: 0 15<13 34.9531 619.946 640> 639 120<631 803.76> 1409 121<798.247 1088.36>
VStem: 1258 15<995 1026.8>
DStem2: 179.861 0 469.861 0 0.207912 0.978148<242.667 713.636 836.211 1301.51>
LayerCount: 2
Fore
SplineSet
10 0 m 1,0,-1
 13 15 l 1,1,2
 193 62 193 62 233 250 c 2,3,-1
 445 1247 l 2,4,5
 448 1261 448 1261 448 1274 c 0,6,7
 448 1362 448 1362 306 1393 c 1,8,-1
 309 1408 l 1,9,10
 595 1530 595 1530 866 1530 c 0,11,12
 1174 1530 1174 1530 1350 1353 c 1,13,-1
 1273 995 l 1,14,-1
 1258 995 l 1,15,16
 1239 1168 1239 1168 1180 1268 c 0,17,18
 1096 1409 1096 1409 927 1409 c 0,19,20
 844 1409 844 1409 797 1366 c 0,21,22
 751 1324 751 1324 735 1248 c 2,23,-1
 631 759 l 1,24,-1
 805 759 l 2,25,26
 942 759 942 759 1084 850 c 1,27,-1
 1099 850 l 1,28,-1
 834 530 l 1,29,-1
 819 530 l 1,30,31
 819 639 819 639 701 639 c 2,32,-1
 606 639 l 1,33,-1
 523 250 l 2,34,35
 514 210 514 210 514 176 c 0,36,37
 514 46 514 46 643 15 c 1,38,-1
 640 0 l 1,39,-1
 10 0 l 1,0,-1
EndSplineSet
Validated: 1
EndChar

StartChar: h
Encoding: 104 104 71
Width: 1385
GlyphClass: 2
Flags: W
HStem: -20 21G<900.225 1028.5> 0 15<13 34.9531 623.781 640> 999 121<708.361 953.375> 1510 20G<675.5 790.777>
VStem: 1038 302<440.75 896.854>
DStem2: 175.61 -20 465.61 -20 0.207912 0.978148<266.195 1056.3 1223.82 1317.81> 896 -20 1200.55 -20 0.207912 0.978148<316.849 764.594>
LayerCount: 2
Fore
SplineSet
10 0 m 1,0,-1
 13 15 l 1,1,2
 193 62 193 62 233 250 c 2,3,-1
 444 1240 l 2,4,5
 447 1256 447 1256 447 1270 c 0,6,7
 447 1363 447 1363 306 1391 c 1,8,-1
 309 1406 l 1,9,10
 556 1511 556 1511 795 1530 c 1,11,-1
 708 1118 l 1,12,13
 738 1120 738 1120 779 1120 c 0,14,15
 1116 1120 1116 1120 1261 947 c 0,16,17
 1340 853 1340 853 1340 705 c 0,18,19
 1340 634 1340 634 1322 551 c 2,20,-1
 1259 255 l 2,21,22
 1256 240 1256 240 1256 227 c 0,23,24
 1256 137 1256 137 1398 109 c 1,25,-1
 1395 94 l 1,26,27
 1161 -12 1161 -12 896 -20 c 1,28,-1
 1016 548 l 2,29,30
 1038 654 1038 654 1038 734 c 0,31,32
 1038 810 1038 810 1018 861 c 0,33,34
 964 999 964 999 820 999 c 0,35,36
 743 999 743 999 700 950 c 0,37,38
 663 908 663 908 648 838 c 2,39,-1
 523 250 l 2,40,41
 515 211 515 211 515 179 c 0,42,43
 515 51 515 51 643 15 c 1,44,-1
 640 0 l 1,45,-1
 10 0 l 1,0,-1
EndSplineSet
Validated: 1
EndChar

StartChar: i
Encoding: 105 105 72
Width: 650
GlyphClass: 2
Flags: W
HStem: 0 15<13 34.9531 623.781 640> 1100 20G<588.5 703.747> 1160 370<521.766 700.305>
DStem2: 179.861 0 469.861 0 0.207912 0.978148<245.748 878.023>
LayerCount: 2
Fore
SplineSet
650 1530 m 0,0,1
 728 1530 728 1530 768 1476 c 0,2,3
 797 1438 797 1438 797 1386 c 0,4,5
 797 1366 797 1366 793 1345 c 0,6,7
 777 1268 777 1268 712.5 1214 c 128,-1,8
 648 1160 648 1160 572 1160 c 128,-1,9
 496 1160 496 1160 454 1214 c 0,10,11
 425 1252 425 1252 425 1304 c 0,12,13
 425 1324 425 1324 429 1345 c 0,14,15
 445 1422 445 1422 509.5 1476 c 128,-1,16
 574 1530 574 1530 650 1530 c 0,0,1
10 0 m 1,17,-1
 13 15 l 1,18,19
 193 61 193 61 233 250 c 2,20,-1
 356 830 l 2,21,22
 359 846 359 846 359 860 c 0,23,24
 359 952 359 952 219 981 c 1,25,-1
 222 996 l 1,26,27
 469 1101 469 1101 708 1120 c 1,28,-1
 523 250 l 2,29,30
 515 211 515 211 515 179 c 0,31,32
 515 51 515 51 643 15 c 1,33,-1
 640 0 l 1,34,-1
 10 0 l 1,17,-1
EndSplineSet
Validated: 1
EndChar

StartChar: j
Encoding: 106 106 73
Width: 670
GlyphClass: 2
Flags: W
HStem: -430 21G<-118 139> 1100 20G<608.5 723.75> 1160 370<541.766 720.305>
DStem2: 108.601 -430 398.601 -430 0.207912 0.978148<274.693 1317.6>
LayerCount: 2
Fore
SplineSet
670 1530 m 0,0,1
 748 1530 748 1530 788 1476 c 0,2,3
 817 1438 817 1438 817 1386 c 0,4,5
 817 1366 817 1366 813 1345 c 0,6,7
 797 1268 797 1268 732.5 1214 c 128,-1,8
 668 1160 668 1160 592 1160 c 128,-1,9
 516 1160 516 1160 474 1214 c 0,10,11
 445 1252 445 1252 445 1304 c 0,12,13
 445 1324 445 1324 449 1345 c 0,14,15
 465 1422 465 1422 529.5 1476 c 128,-1,16
 594 1530 594 1530 670 1530 c 0,0,1
-121 -430 m 1,17,-1
 -118 -415 l 1,18,19
 139 -289 139 -289 200 0 c 2,20,-1
 376 830 l 2,21,22
 379 846 379 846 379 860 c 0,23,24
 379 952 379 952 239 981 c 1,25,-1
 242 996 l 1,26,27
 489 1101 489 1101 728 1120 c 1,28,-1
 490 0 l 2,29,30
 399 -430 399 -430 -121 -430 c 1,17,-1
EndSplineSet
Validated: 1
EndChar

StartChar: l
Encoding: 108 108 74
Width: 650
GlyphClass: 2
Flags: W
HStem: 0 15<13 34.9531 623.781 640> 1510 20G<675.5 790.75>
DStem2: 179.861 0 469.861 0 0.207912 0.978148<245.748 1297.36>
LayerCount: 2
Fore
SplineSet
10 0 m 1,0,-1
 13 15 l 1,1,2
 193 61 193 61 233 250 c 2,3,-1
 444 1240 l 2,4,5
 447 1256 447 1256 447 1270 c 0,6,7
 447 1363 447 1363 306 1391 c 1,8,-1
 309 1406 l 1,9,10
 556 1511 556 1511 795 1530 c 1,11,-1
 523 250 l 2,12,13
 515 211 515 211 515 179 c 0,14,15
 515 51 515 51 643 15 c 1,16,-1
 640 0 l 1,17,-1
 10 0 l 1,0,-1
EndSplineSet
Validated: 1
EndChar

StartChar: m
Encoding: 109 109 75
Width: 2090
GlyphClass: 2
Flags: W
HStem: -20 21G<1605.23 1732.5> 0 15<13 34.8359 620.125 640 738 759.953 1345.12 1365> 999 121<706.412 957.656 1430.86 1664.33>
VStem: 1742 302<438.438 893.672>
DStem2: 175.61 -20 465.61 -20 0.207912 0.978148<264.269 902.83> 900.61 -20 1190.61 -20 0.207912 0.978148<264.299 765.771> 1601 -20 1905.55 -20 0.207912 0.978148<317.827 757.571>
LayerCount: 2
Fore
SplineSet
10 0 m 1,0,-1
 13 15 l 1,1,2
 192 59 192 59 233 250 c 2,3,-1
 358 837 l 2,4,5
 361 851 361 851 361 864 c 0,6,7
 361 952 361 952 219 983 c 1,8,-1
 222 998 l 1,9,10
 508 1120 508 1120 776 1120 c 0,11,12
 1039 1120 1039 1120 1186 1015 c 1,13,14
 1325 1120 1325 1120 1504 1120 c 0,15,16
 1831 1120 1831 1120 1966 947 c 0,17,18
 2044 847 2044 847 2044 699 c 0,19,20
 2044 630 2044 630 2027 551 c 2,21,-1
 1964 255 l 2,22,23
 1961 241 1961 241 1961 228 c 0,24,25
 1961 139 1961 139 2103 109 c 1,26,-1
 2100 94 l 1,27,28
 1864 -12 1864 -12 1601 -20 c 1,29,-1
 1721 548 l 2,30,31
 1742 648 1742 648 1742 727 c 0,32,33
 1742 804 1742 804 1722 861 c 0,34,35
 1674 999 1674 999 1545 999 c 0,36,37
 1470 999 1470 999 1426 952 c 0,38,39
 1389 912 1389 912 1373 838 c 2,40,-1
 1248 250 l 2,41,42
 1240 211 1240 211 1240 177 c 0,43,44
 1240 47 1240 47 1368 15 c 1,45,-1
 1365 0 l 1,46,-1
 735 0 l 1,47,-1
 738 15 l 1,48,49
 918 61 918 61 958 250 c 2,50,-1
 1022 549 l 2,51,52
 1044 652 1044 652 1044 735 c 0,53,54
 1044 811 1044 811 1024 862 c 0,55,56
 970 999 970 999 820 999 c 0,57,58
 743 999 743 999 700 950 c 0,59,60
 663 908 663 908 648 838 c 2,61,-1
 523 250 l 2,62,63
 515 210 515 210 515 177 c 0,64,65
 515 47 515 47 643 15 c 1,66,-1
 640 0 l 1,67,-1
 10 0 l 1,0,-1
EndSplineSet
Validated: 1
EndChar

StartChar: n
Encoding: 110 110 76
Width: 1385
GlyphClass: 2
Flags: W
HStem: -20 21G<900.225 1028.5> 0 15<13 34.9531 619.946 640> 999 121<707.561 953.449>
VStem: 1038 302<440.75 896.854>
DStem2: 175.61 -20 465.61 -20 0.207912 0.978148<263.113 902.83> 896 -20 1200.55 -20 0.207912 0.978148<316.849 764.534>
LayerCount: 2
Fore
SplineSet
10 0 m 1,0,-1
 13 15 l 1,1,2
 193 62 193 62 233 250 c 2,3,-1
 358 837 l 2,4,5
 361 851 361 851 361 864 c 0,6,7
 361 952 361 952 219 983 c 1,8,-1
 222 998 l 1,9,10
 508 1120 508 1120 779 1120 c 0,11,12
 1116 1120 1116 1120 1261 947 c 0,13,14
 1340 853 1340 853 1340 705 c 0,15,16
 1340 634 1340 634 1322 551 c 2,17,-1
 1259 255 l 2,18,19
 1256 240 1256 240 1256 227 c 0,20,21
 1256 137 1256 137 1398 109 c 1,22,-1
 1395 94 l 1,23,24
 1161 -12 1161 -12 896 -20 c 1,25,-1
 1016 548 l 2,26,27
 1038 652 1038 652 1038 734 c 0,28,29
 1038 810 1038 810 1018 861 c 0,30,31
 964 999 964 999 820 999 c 0,32,33
 743 999 743 999 700 950 c 0,34,35
 663 908 663 908 648 838 c 2,36,-1
 523 250 l 2,37,38
 514 210 514 210 514 176 c 0,39,40
 514 46 514 46 643 15 c 1,41,-1
 640 0 l 1,42,-1
 10 0 l 1,0,-1
EndSplineSet
Validated: 1
EndChar

StartChar: o
Encoding: 111 111 77
Width: 1302
GlyphClass: 2
Flags: W
HStem: -20 121<559.111 802.446> 999 121<733.385 976.389>
VStem: 170 323<206.786 632.722> 1043 323<467.41 893.214>
LayerCount: 2
Fore
SplineSet
672 101 m 128,-1,1
 788 101 788 101 880 218 c 0,2,3
 973 335 973 335 1019 550 c 0,4,5
 1043 660 1043 660 1043 744 c 0,6,7
 1043 825 1043 825 1021 882 c 0,8,9
 979 999 979 999 863 999 c 0,10,11
 748 999 748 999 655.5 882 c 128,-1,12
 563 765 563 765 517 550 c 0,13,14
 493 439 493 439 493 354 c 0,15,16
 493 275 493 275 514 218 c 0,17,0
 556 101 556 101 672 101 c 128,-1,1
647 -20 m 128,-1,19
 405 -20 405 -20 273 123 c 16,20,21
 170 234 170 234 170 404 c 0,22,23
 170 472 170 472 187 550 c 0,24,25
 245 822 245 822 455 977 c 0,26,27
 647 1120 647 1120 889 1120 c 128,-1,28
 1131 1120 1131 1120 1263 977 c 0,29,30
 1366 866 1366 866 1366 696 c 0,31,32
 1366 628 1366 628 1349 550 c 0,33,34
 1291 279 1291 279 1081 123 c 0,35,18
 889 -20 889 -20 647 -20 c 128,-1,19
EndSplineSet
Validated: 1
EndChar

StartChar: p
Encoding: 112 112 78
Width: 1300
GlyphClass: 2
Flags: W
HStem: -410 15<-74 -52.0469 536.781 553> -20 121<499.1 773.967> 999 121<707.354 944.823>
VStem: 1037 325<456.165 877.81>
DStem2: 92.8609 -410 382.861 -410 0.207912 0.978148<245.748 468.682 689.001 1302.49>
LayerCount: 2
Fore
SplineSet
-77 -410 m 1,0,-1
 -74 -395 l 1,1,2
 106 -349 106 -349 146 -160 c 2,3,-1
 358 837 l 2,4,5
 361 852 361 852 361 865 c 0,6,7
 361 955 361 955 219 983 c 1,8,-1
 222 998 l 1,9,10
 505 1120 505 1120 779 1120 c 0,11,12
 1119 1120 1119 1120 1260 962 c 0,13,14
 1362 847 1362 847 1362 682 c 0,15,16
 1362 619 1362 619 1347 550 c 0,17,18
 1293 295 1293 295 1097 148 c 0,19,20
 873 -20 873 -20 537 -20 c 0,21,22
 496 -20 496 -20 466 -18 c 1,23,-1
 436 -160 l 2,24,25
 428 -199 428 -199 428 -231 c 0,26,27
 428 -359 428 -359 556 -395 c 1,28,-1
 553 -410 l 1,29,-1
 -77 -410 l 1,0,-1
813 999 m 0,30,31
 746 999 746 999 703 954 c 0,32,33
 664 913 664 913 648 838 c 2,34,-1
 526 262 l 2,35,36
 519 229 519 229 519 203 c 0,37,38
 519 172 519 172 529 150 c 0,39,40
 552 101 552 101 622 101 c 0,41,42
 767 101 767 101 879 238 c 0,43,44
 977 358 977 358 1018 552 c 0,45,46
 1037 643 1037 643 1037 716 c 0,47,48
 1037 801 1037 801 1011 862 c 0,49,50
 952 999 952 999 813 999 c 0,30,31
EndSplineSet
Validated: 1
EndChar

StartChar: q
Encoding: 113 113 79
Width: 1300
GlyphClass: 2
Flags: W
HStem: -430 21G<743.223 858.5> -20 121<588.951 825.916> 999 121<759.369 1136.37>
VStem: 171 325<217.852 643.858>
DStem2: 738.427 -430 1028.36 -430 0.207912 0.978148<327.219 421.204 583.966 1354.5>
LayerCount: 2
Fore
SplineSet
720 101 m 0,0,1
 787 101 787 101 830 146 c 0,2,3
 869 187 869 187 885 262 c 2,4,-1
 1007 838 l 2,5,6
 1014 871 1014 871 1014 897 c 0,7,8
 1014 928 1014 928 1004 950 c 0,9,10
 981 999 981 999 911 999 c 0,11,12
 766 999 766 999 654 862 c 0,13,14
 556 742 556 742 515 548 c 0,15,16
 496 457 496 457 496 384 c 0,17,18
 496 299 496 299 522 238 c 0,19,20
 581 101 581 101 720 101 c 0,0,1
755 -20 m 0,21,22
 418 -20 418 -20 265 148 c 0,23,24
 171 252 171 252 171 410 c 0,25,26
 171 475 171 475 187 550 c 0,27,28
 241 804 241 804 448 962 c 0,29,30
 657 1120 657 1120 997 1120 c 0,31,32
 1271 1120 1271 1120 1502 998 c 1,33,-1
 1499 983 l 1,34,35
 1322 950 1322 950 1298 837 c 2,36,-1
 1090 -140 l 2,37,38
 1087 -156 1087 -156 1087 -170 c 0,39,40
 1087 -263 1087 -263 1228 -291 c 1,41,-1
 1225 -306 l 1,42,43
 978 -411 978 -411 739 -430 c 1,44,-1
 826 -18 l 1,45,46
 796 -20 796 -20 755 -20 c 0,21,22
EndSplineSet
Validated: 1
EndChar

StartChar: r
Encoding: 114 114 80
Width: 1082
GlyphClass: 2
Flags: W
HStem: 0 15<13 34.9531 619.946 640> 999 121<709.072 1000.38>
VStem: 1171 15<585 616.966>
DStem2: 179.861 0 469.861 0 0.207912 0.978148<242.667 882.383>
LayerCount: 2
Fore
SplineSet
10 0 m 1,0,-1
 13 15 l 1,1,2
 193 62 193 62 233 250 c 2,3,-1
 358 837 l 2,4,5
 361 851 361 851 361 864 c 0,6,7
 361 952 361 952 219 983 c 1,8,-1
 222 998 l 1,9,10
 508 1120 508 1120 779 1120 c 0,11,12
 1087 1120 1087 1120 1262 943 c 1,13,-1
 1186 585 l 1,14,-1
 1171 585 l 1,15,16
 1152 759 1152 759 1092 858 c 0,17,18
 1006 999 1006 999 840 999 c 0,19,20
 756 999 756 999 702 950 c 0,21,22
 664 914 664 914 648 838 c 2,23,-1
 523 250 l 2,24,25
 514 210 514 210 514 176 c 0,26,27
 514 46 514 46 643 15 c 1,28,-1
 640 0 l 1,29,-1
 10 0 l 1,0,-1
EndSplineSet
Validated: 1
EndChar

StartChar: s
Encoding: 115 115 81
Width: 1070
GlyphClass: 2
Flags: W
HStem: -20 116<328.58 657.94> 1016 104<655.759 934.13>
VStem: 66 15<-20 -9.82812> 170 15<438.338 472> 339 282<802.625 950.777> 773 304<227.016 414.787> 1009 15<749 781.944>
DStem2: 734 752 501 567 0.859046 -0.511898<-150.839 228.269>
LayerCount: 2
Fore
SplineSet
508 -20 m 0,0,1
 378 -20 378 -20 270 42 c 16,2,3
 232 64 232 64 198 64 c 0,4,5
 131 64 131 64 81 -20 c 1,6,-1
 66 -20 l 1,7,-1
 170 472 l 1,8,-1
 185 472 l 1,9,10
 198 289 198 289 285 180 c 0,11,12
 353 96 353 96 484 96 c 0,13,14
 616 96 616 96 698 169 c 0,15,16
 758 222 758 222 771 296 c 0,17,18
 773 308 773 308 773 317 c 0,19,20
 773 405 773 405 647 480 c 2,21,-1
 501 567 l 2,22,23
 339 664 339 664 339 805 c 0,24,25
 339 828 339 828 343 851 c 0,26,27
 366 974 366 974 496 1056 c 0,28,29
 598 1120 598 1120 728 1120 c 0,30,31
 861 1120 861 1120 932 1082 c 0,32,33
 960 1067 960 1067 999 1067 c 0,34,35
 1053 1067 1053 1067 1088 1120 c 1,36,-1
 1103 1120 l 1,37,-1
 1024 749 l 1,38,-1
 1009 749 l 1,39,40
 1009 870 1009 870 965 936 c 0,41,42
 911 1016 911 1016 801 1016 c 0,43,44
 732 1016 732 1016 687 993 c 0,45,46
 629 964 629 964 622 909 c 0,47,48
 621 901 621 901 621 892 c 0,49,50
 621 818 621 818 734 752 c 2,51,-1
 870 673 l 2,52,53
 1077 553 1077 553 1077 387 c 0,54,55
 1077 368 1077 368 1074 349 c 0,56,57
 1052 187 1052 187 885 82 c 0,58,59
 724 -20 724 -20 508 -20 c 0,0,1
EndSplineSet
Validated: 1
EndChar

StartChar: t
Encoding: 116 116 82
Width: 1026
GlyphClass: 2
Flags: W
HStem: 0 15<206 227.953 806.781 823> 980 120<495.531 581 887 972.469> 1510 20G<863.5 973.767>
DStem2: 372.861 0 652.861 0 0.207912 0.978148<243.669 1001.86 1182.86 1297.36>
LayerCount: 2
Fore
SplineSet
203 0 m 1,0,-1
 206 15 l 1,1,2
 386 61 386 61 426 250 c 2,3,-1
 581 980 l 1,4,-1
 492 980 l 2,5,6
 355 980 355 980 214 889 c 1,7,-1
 199 889 l 1,8,-1
 464 1209 l 1,9,-1
 479 1209 l 1,10,11
 479 1100 479 1100 607 1100 c 1,12,-1
 637 1240 l 2,13,14
 640 1256 640 1256 640 1270 c 0,15,16
 640 1363 640 1363 499 1391 c 1,17,-1
 502 1406 l 1,18,19
 749 1511 749 1511 978 1530 c 1,20,-1
 887 1100 l 1,21,-1
 976 1100 l 2,22,23
 1113 1100 1113 1100 1254 1191 c 1,24,-1
 1269 1191 l 1,25,-1
 1004 871 l 1,26,-1
 989 871 l 1,27,28
 989 980 989 980 861 980 c 1,29,-1
 706 250 l 2,30,31
 698 211 698 211 698 179 c 0,32,33
 698 51 698 51 826 15 c 1,34,-1
 823 0 l 1,35,-1
 203 0 l 1,0,-1
EndSplineSet
Validated: 1
EndChar

StartChar: u
Encoding: 117 117 83
Width: 1385
GlyphClass: 2
Flags: W
HStem: -20 121<666.264 910.396> 1100 20G<590.5 718.739 1318.5 1438.75>
VStem: 279 302<204.25 661.562>
DStem2: 176.055 -20 480.418 -20 0.207912 0.978148<471.973 911.956> 911.139 -20 1200.69 -20 0.207912 0.978148<322.92 911.938>
LayerCount: 2
Fore
SplineSet
840 -20 m 0,0,1
 503 -20 503 -20 358 153 c 0,2,3
 279 247 279 247 279 395 c 0,4,5
 279 466 279 466 297 549 c 2,6,-1
 360 845 l 2,7,8
 363 860 363 860 363 873 c 0,9,10
 363 963 363 963 221 991 c 1,11,-1
 224 1006 l 1,12,13
 458 1112 458 1112 723 1120 c 1,14,-1
 602 552 l 2,15,16
 581 452 581 452 581 374 c 0,17,18
 581 294 581 294 603 237 c 0,19,20
 657 101 657 101 798 101 c 0,21,22
 873 101 873 101 917 150 c 0,23,24
 957 195 957 195 971 262 c 2,25,-1
 1095 845 l 2,26,27
 1098 860 1098 860 1098 873 c 0,28,29
 1098 963 1098 963 956 991 c 1,30,-1
 959 1006 l 1,31,32
 1194 1112 1194 1112 1443 1120 c 9,33,-1
 1261 263 l 2,34,35
 1258 249 1258 249 1258 236 c 0,36,37
 1258 148 1258 148 1400 117 c 1,38,-1
 1397 102 l 1,39,40
 1111 -20 1111 -20 840 -20 c 0,0,1
EndSplineSet
Validated: 1
EndChar

StartChar: braceleft
Encoding: 123 123 84
Width: 769
GlyphClass: 2
Flags: W
HStem: -200 82<600.889 706> 1628 82<950.665 1095>
VStem: 252 294<-64.6772 327.969> 332 299<315.266 671.64>
DStem2: 178.002 -200 478.064 -200 0.207912 0.978148<330.806 772.382 1147.98 1756.38>
LayerCount: 2
Fore
SplineSet
1112 1710 m 1,0,-1
 1095 1628 l 1,1,2
 1002 1628 1002 1628 930 1574 c 0,3,4
 842 1510 842 1510 798 1301 c 2,5,-1
 739 1027 l 2,6,7
 690 796 690 796 418 755 c 1,8,9
 631 713 631 713 631 547 c 0,10,11
 631 517 631 517 624 483 c 2,12,-1
 565 209 l 2,13,14
 546 121 546 121 546 58 c 0,15,16
 546 -27 546 -27 581 -64 c 0,17,18
 631 -118 631 -118 724 -118 c 1,19,-1
 706 -200 l 1,20,21
 430 -200 430 -200 324 -99 c 0,22,23
 252 -31 252 -31 252 94 c 0,24,25
 252 149 252 149 266 214 c 2,26,-1
 323 482 l 2,27,28
 332 523 332 523 332 558 c 0,29,30
 332 705 332 705 181 755 c 1,31,32
 394 815 394 815 440 1028 c 2,33,-1
 496 1296 l 2,34,35
 541 1509 541 1509 687 1609 c 0,36,37
 833 1710 833 1710 1112 1710 c 1,0,-1
EndSplineSet
Validated: 1
EndChar

StartChar: bar
Encoding: 124 124 85
Width: 635
GlyphClass: 2
Flags: W
VStem: 148 275<-150 125> 533 275<1385 1660>
DStem2: 148 -150 423 -150 0.207912 0.978148<57.1757 1850.49>
LayerCount: 2
Fore
SplineSet
148 -150 m 1,0,-1
 533 1660 l 1,1,-1
 808 1660 l 1,2,-1
 423 -150 l 1,3,-1
 148 -150 l 1,0,-1
EndSplineSet
Validated: 1
EndChar

StartChar: braceright
Encoding: 125 125 86
Width: 769
GlyphClass: 2
Flags: W
HStem: -200 82<-4 138.625> 1628 82<384 490.123>
VStem: 459 300<831.675 1196.88> 545 293<1182.03 1574.53>
DStem2: 206.064 -200 506.002 -200 0.207912 0.978148<252.113 860.551 1241.91 1684.44>
LayerCount: 2
Fore
SplineSet
384 1710 m 1,0,1
 663 1710 663 1710 767 1609 c 0,2,3
 838 1540 838 1540 838 1417 c 0,4,5
 838 1362 838 1362 824 1296 c 2,6,-1
 768 1028 l 2,7,8
 759 987 759 987 759 951 c 0,9,10
 759 803 759 803 909 755 c 1,11,12
 696 693 696 693 651 482 c 2,13,-1
 594 214 l 2,14,15
 548 -2 548 -2 404 -99 c 0,16,17
 255 -200 255 -200 -22 -200 c 1,18,-1
 -4 -118 l 1,19,20
 89 -118 89 -118 161 -64 c 0,21,22
 249 0 249 0 293 209 c 2,23,-1
 352 483 l 2,24,25
 399 705 399 705 672 755 c 1,26,27
 459 789 459 789 459 957 c 0,28,29
 459 989 459 989 467 1027 c 2,30,-1
 526 1301 l 2,31,32
 545 1389 545 1389 545 1452 c 0,33,34
 545 1537 545 1537 510 1574 c 0,35,36
 460 1628 460 1628 367 1628 c 1,37,-1
 384 1710 l 1,0,1
EndSplineSet
Validated: 1
EndChar

StartChar: asciitilde
Encoding: 126 126 87
Width: 1213
GlyphClass: 2
Flags: W
HStem: 583 181<898.041 1112.02> 745 181<417.078 635.519>
VStem: 229 20<609 618.829>
DStem2: 943 787 591 722 0.900825 -0.434182<-377.354 89.3862>
LayerCount: 2
Fore
SplineSet
589 926 m 0,0,1
 656 926 656 926 722 894 c 2,2,-1
 943 787 l 2,3,4
 990 764 990 764 1043 764 c 0,5,6
 1198 764 1198 764 1285 900 c 1,7,-1
 1304 900 l 1,8,9
 1193 583 1193 583 946 583 c 0,10,11
 879 583 879 583 813 615 c 2,12,-1
 591 722 l 2,13,14
 544 745 544 745 490 745 c 0,15,16
 336 745 336 745 249 609 c 1,17,-1
 229 609 l 1,18,19
 330 926 330 926 589 926 c 0,0,1
EndSplineSet
Validated: 1
EndChar

StartChar: exclamdown
Encoding: 161 161 89
Width: 664
GlyphClass: 2
Flags: W
HStem: -430 21G<205 281> 750 370<441.695 620.305>
VStem: 92 374<-340.402 -139.812>
LayerCount: 2
Fore
SplineSet
570 1120 m 0,0,1
 648 1120 648 1120 688 1066 c 0,2,3
 717 1027 717 1027 717 976 c 0,4,5
 717 956 717 956 713 935 c 0,6,7
 697 858 697 858 632.5 804 c 128,-1,8
 568 750 568 750 492 750 c 0,9,10
 414 750 414 750 374 804 c 0,11,12
 345 843 345 843 345 894 c 0,13,14
 345 914 345 914 349 935 c 0,15,16
 365 1012 365 1012 429.5 1066 c 128,-1,17
 494 1120 494 1120 570 1120 c 0,0,1
241 -430 m 0,18,19
 169 -430 169 -430 124 -377 c 0,20,21
 92 -339 92 -339 92 -290 c 0,22,23
 92 -259 92 -259 104 -224 c 2,24,-1
 417 674 l 1,25,-1
 533 674 l 1,26,-1
 466 -224 l 2,27,28
 459 -320 459 -320 380 -383 c 0,29,30
 321 -430 321 -430 241 -430 c 0,18,19
EndSplineSet
Validated: 1
EndChar

StartChar: cent
Encoding: 162 162 90
Width: 1246
GlyphClass: 2
Flags: W
HStem: -16 120<809 943.121> 1100 20G<1350 1384>
VStem: 173 332<223.438 652.507> 1262 15<617 648.312> 1369 15<1107.69 1120>
DStem2: 626.155 -150 755.271 -150 0.207912 0.978148<102.498 133.927 286.465 1167.53 1318.32 1355.62>
LayerCount: 2
Fore
SplineSet
654 -19 m 1,0,1
 387 -6 387 -6 267 145 c 0,2,3
 173 264 173 264 173 421 c 0,4,5
 173 482 173 482 187 550 c 0,6,7
 240 797 240 797 439 954 c 0,8,9
 635 1109 635 1109 896 1119 c 1,10,-1
 908 1176 l 1,11,-1
 1054 1250 l 1,12,-1
 1025 1113 l 1,13,14
 1109 1100 1109 1100 1167 1061 c 0,15,16
 1201 1038 1201 1038 1247 1038 c 0,17,18
 1331 1038 1331 1038 1369 1120 c 1,19,-1
 1384 1120 l 1,20,-1
 1277 617 l 1,21,-1
 1262 617 l 1,22,23
 1255 762 1255 762 1191 873 c 0,24,25
 1130 978 1130 978 1000 995 c 1,26,-1
 809 104 l 1,27,28
 914 118 914 118 1018 194 c 0,29,30
 1118 266 1118 266 1232 403 c 1,31,-1
 1186 190 l 1,32,33
 1019 9 1019 9 784 -16 c 1,34,-1
 771 -76 l 1,35,-1
 626 -150 l 1,36,-1
 654 -19 l 1,0,1
681 110 m 1,37,-1
 869 992 l 1,38,39
 747 967 747 967 659 859 c 0,40,41
 561 740 561 740 523 550 c 0,42,43
 505 460 505 460 505 388 c 0,44,45
 505 297 505 297 534 236 c 0,46,47
 581 136 581 136 681 110 c 1,37,-1
EndSplineSet
Validated: 1
EndChar

StartChar: sterling
Encoding: 163 163 91
Width: 1285
GlyphClass: 2
Flags: W
HStem: 0 120<586.977 956.098> 0 15<53 74.9531> 535 119<257 334 679 958> 1416 114<903.371 1081.25>
VStem: 963 377<1159.95 1327.73>
DStem2: 219.861 0 539.648 0 0.207912 0.978148<258.979 547.04 735.169 1351.98>
LayerCount: 2
Fore
SplineSet
50 0 m 1,0,-1
 53 15 l 1,1,2
 233 60 233 60 273 250 c 2,3,-1
 334 535 l 1,4,-1
 164 535 l 1,5,-1
 257 654 l 1,6,-1
 359 654 l 1,7,-1
 457 1116 l 2,8,9
 497 1304 497 1304 646 1419 c 0,10,11
 789 1530 789 1530 1022 1530 c 0,12,13
 1235 1530 1235 1530 1315 1395 c 0,14,15
 1340 1353 1340 1353 1340 1302 c 0,16,17
 1340 1277 1340 1277 1334 1251 c 0,18,19
 1315 1163 1315 1163 1248 1107 c 0,20,21
 1186 1054 1186 1054 1109 1054 c 0,22,23
 1034 1054 1034 1054 993 1109 c 0,24,25
 963 1147 963 1147 963 1198 c 0,26,27
 963 1218 963 1218 968 1240 c 0,28,29
 985 1318 985 1318 1048 1371 c 0,30,31
 1065 1385 1065 1385 1084 1396 c 1,32,33
 1059 1416 1059 1416 1015 1416 c 0,34,35
 952 1416 952 1416 897 1367 c 24,36,37
 816 1295 816 1295 777 1115 c 2,38,-1
 679 654 l 1,39,-1
 1051 654 l 1,40,-1
 958 535 l 1,41,-1
 654 535 l 1,42,-1
 593 251 l 2,43,44
 586 216 586 216 586 186 c 0,45,46
 586 150 586 150 596 120 c 1,47,-1
 698 120 l 2,48,49
 991 120 991 120 1293 345 c 9,50,-1
 1308 345 l 1,51,-1
 1032 0 l 1,52,-1
 50 0 l 1,0,-1
EndSplineSet
Validated: 1
EndChar

StartChar: currency
Encoding: 164 164 92
Width: 1526
GlyphClass: 2
Flags: W
HStem: 190 121<718.578 964.469> 1209 121<892.01 1136.82>
VStem: 331 323<403.091 842.437> 1203 323<675.694 1103.16>
DStem2: 200 282 332 114 0.771402 0.636348<0 235.663 1493.5 1690.53>
LayerCount: 2
Fore
SplineSet
833 311 m 128,-1,1
 949 311 949 311 1041 428 c 0,2,3
 1134 545 1134 545 1180 760 c 0,4,5
 1203 871 1203 871 1203 955 c 0,6,7
 1203 1035 1203 1035 1182 1092 c 0,8,9
 1140 1209 1140 1209 1024 1209 c 0,10,11
 909 1209 909 1209 816 1092 c 0,12,13
 724 975 724 975 678 760 c 0,14,15
 655 649 655 649 654 565 c 0,16,17
 654 485 654 485 675 428 c 0,18,0
 717 311 717 311 833 311 c 128,-1,1
1050 1330 m 0,19,20
 1241 1330 1241 1330 1363 1241 c 1,21,-1
 1507 1361 l 1,22,-1
 1640 1193 l 1,23,-1
 1495 1074 l 1,24,25
 1526 998 1526 998 1526 904 c 0,26,27
 1526 837 1526 837 1510 760 c 0,28,29
 1467 558 1467 558 1338 420 c 1,30,-1
 1446 283 l 1,31,-1
 1243 114 l 1,32,-1
 1127 262 l 1,33,34
 980 190 980 190 807 190 c 0,35,36
 632 190 632 190 514 265 c 1,37,-1
 332 114 l 1,38,-1
 200 282 l 1,39,-1
 371 424 l 1,40,41
 331 507 331 507 331 613 c 0,42,43
 331 682 331 682 348 760 c 0,44,45
 386 940 386 940 491 1069 c 1,46,-1
 394 1193 l 1,47,-1
 597 1361 l 1,48,-1
 694 1238 l 1,49,50
 856 1330 856 1330 1050 1330 c 0,19,20
EndSplineSet
Validated: 1
EndChar

StartChar: yen
Encoding: 165 165 93
Width: 1777
GlyphClass: 2
Flags: W
HStem: 0 15<562 588.976 1197.3 1217> 327 121<519 798 1143 1426> 525 121<561 785 1266 1468> 1495 15<331 346.441 992.299 1010 1587 1601.78 2068.39 2085>
DStem2: 1119 650 785 646 0.358896 -0.933378<-727.606 -116.138> 1119 650 1266 646 0.629109 0.777317<89.3697 921.513>
LayerCount: 2
Fore
SplineSet
559 0 m 1,0,-1
 562 15 l 1,1,2
 740 57 740 57 781 250 c 2,3,-1
 798 327 l 1,4,-1
 424 327 l 1,5,-1
 519 448 l 1,6,-1
 823 448 l 1,7,-1
 837 511 l 1,8,-1
 832 525 l 1,9,-1
 466 525 l 1,10,-1
 561 646 l 1,11,-1
 785 646 l 1,12,-1
 549 1260 l 2,13,14
 478 1444 478 1444 328 1495 c 1,15,-1
 331 1510 l 1,16,-1
 1013 1510 l 1,17,-1
 1010 1495 l 1,18,19
 893 1457 893 1457 871 1359 c 0,20,21
 868 1347 868 1347 868 1334 c 0,22,23
 868 1303 868 1303 883 1265 c 2,24,-1
 1119 650 l 1,25,-1
 1615 1265 l 2,26,27
 1658 1318 1658 1318 1667 1360 c 0,28,29
 1670 1376 1670 1376 1670 1390 c 0,30,31
 1670 1463 1670 1463 1584 1495 c 1,32,-1
 1587 1510 l 1,33,-1
 2088 1510 l 1,34,-1
 2085 1495 l 1,35,36
 1907 1438 1907 1438 1763 1260 c 2,37,-1
 1266 646 l 1,38,-1
 1559 646 l 1,39,-1
 1468 525 l 1,40,-1
 1168 525 l 1,41,-1
 1156 510 l 1,42,-1
 1143 448 l 1,43,-1
 1517 448 l 1,44,-1
 1426 327 l 1,45,-1
 1117 327 l 1,46,-1
 1101 250 l 2,47,48
 1093 210 1093 210 1093 177 c 0,49,50
 1093 47 1093 47 1220 15 c 1,51,-1
 1217 0 l 1,52,-1
 559 0 l 1,0,-1
EndSplineSet
Validated: 1
EndChar

StartChar: brokenbar
Encoding: 166 166 94
Width: 635
GlyphClass: 2
Flags: W
VStem: 149 274<-150 124> 321 274<387 661> 362 274<850 1124> 534 274<1386 1660>
DStem2: 149 -150 423 -150 0.207912 0.978148<56.9678 829.039 1079.4 1850.49>
LayerCount: 2
Fore
SplineSet
149 -150 m 1,0,-1
 321 661 l 1,1,-1
 595 661 l 1,2,-1
 423 -150 l 1,3,-1
 149 -150 l 1,0,-1
534 1660 m 1,4,-1
 808 1660 l 1,5,-1
 636 850 l 1,6,-1
 362 850 l 1,7,-1
 534 1660 l 1,4,-1
EndSplineSet
Validated: 1
EndChar

StartChar: section
Encoding: 167 167 95
Width: 1162
GlyphClass: 2
Flags: W
HStem: -20 103<500.089 706.142> 1427 103<776.858 982.911>
VStem: 252 318<131.974 298.09> 258 264<685.769 873.569> 485 245<1197.71 1358.65> 753 245<151.35 312.286> 913 318<1211.91 1378.03> 961 264<636.431 824.231>
DStem2: 677 611 471 447 0.894427 -0.447214<-181.111 216.934> 872 1132 652 976 0.894427 -0.447214<-171.765 226.28>
LayerCount: 2
Fore
SplineSet
564 -20 m 0,0,1
 352 -20 352 -20 279 89 c 0,2,3
 252 130 252 130 252 177 c 0,4,5
 252 196 252 196 256 216 c 0,6,7
 270 280 270 280 326 328 c 0,8,9
 379 373 379 373 444 373 c 128,-1,10
 509 373 509 373 545 328 c 0,11,12
 570 295 570 295 570 252 c 0,13,14
 570 234 570 234 566 216 c 0,15,16
 552 150 552 150 498 105 c 1,17,18
 531 83 531 83 580 83 c 0,19,20
 644 83 644 83 689 114 c 0,21,22
 743 150 743 150 752 210 c 0,23,24
 753 218 753 218 753 225 c 0,25,26
 753 308 753 308 611 378 c 2,27,-1
 471 447 l 2,28,29
 258 552 258 552 258 716 c 0,30,31
 258 737 258 737 261 759 c 0,32,33
 286 916 286 916 447 1020 c 1,34,-1
 626 919 l 1,35,36
 533 871 533 871 523 785 c 0,37,38
 522 779 522 779 522 773 c 0,39,40
 522 689 522 689 677 611 c 2,41,-1
 831 534 l 2,42,43
 998 451 998 451 998 301 c 0,44,45
 998 282 998 282 995 262 c 0,46,47
 978 135 978 135 851 52 c 0,48,49
 741 -20 741 -20 564 -20 c 0,0,1
919 1530 m 0,50,51
 1131 1530 1131 1530 1204 1421 c 0,52,53
 1231 1380 1231 1380 1231 1333 c 0,54,55
 1231 1314 1231 1314 1227 1294 c 0,56,57
 1213 1230 1213 1230 1157 1182 c 0,58,59
 1104 1137 1104 1137 1039 1137 c 128,-1,60
 974 1137 974 1137 938 1182 c 0,61,62
 913 1215 913 1215 913 1258 c 0,63,64
 913 1276 913 1276 917 1294 c 0,65,66
 931 1360 931 1360 985 1405 c 1,67,68
 952 1427 952 1427 903 1427 c 0,69,70
 839 1427 839 1427 794 1396 c 0,71,72
 740 1360 740 1360 731 1300 c 0,73,74
 730 1292 730 1292 730 1285 c 0,75,76
 730 1202 730 1202 872 1132 c 2,77,-1
 1012 1063 l 2,78,79
 1225 958 1225 958 1225 794 c 0,80,81
 1225 773 1225 773 1222 751 c 0,82,83
 1197 594 1197 594 1036 490 c 1,84,-1
 857 591 l 1,85,86
 950 639 950 639 960 725 c 0,87,88
 961 731 961 731 961 737 c 0,89,90
 961 821 961 821 806 899 c 2,91,-1
 652 976 l 2,92,93
 485 1059 485 1059 485 1209 c 0,94,95
 485 1228 485 1228 488 1248 c 0,96,97
 505 1375 505 1375 632 1458 c 0,98,99
 742 1530 742 1530 919 1530 c 0,50,51
EndSplineSet
Validated: 1
EndChar

StartChar: dieresis
Encoding: 168 168 96
Width: 758
GlyphClass: 2
Flags: W
HStem: 1170 314<402.206 572.251 750.206 920.251>
VStem: 328 318<1242.48 1409.54> 676 318<1242.02 1410.22>
LayerCount: 2
Fore
SplineSet
868 1484 m 0,0,1
 932 1484 932 1484 968 1438 c 0,2,3
 994 1404 994 1404 994 1362 c 0,4,5
 994 1344 994 1344 990 1326 c 0,6,7
 976 1260 976 1260 921.5 1215 c 128,-1,8
 867 1170 867 1170 802 1170 c 0,9,10
 738 1170 738 1170 702 1216 c 0,11,12
 676 1249 676 1249 676 1291 c 0,13,14
 676 1308 676 1308 680 1326 c 0,15,16
 694 1392 694 1392 748.5 1438 c 128,-1,17
 803 1484 803 1484 868 1484 c 0,0,1
520 1484 m 0,18,19
 584 1484 584 1484 620 1438 c 0,20,21
 646 1405 646 1405 646 1362 c 0,22,23
 646 1344 646 1344 642 1326 c 0,24,25
 628 1260 628 1260 573.5 1215 c 128,-1,26
 519 1170 519 1170 454 1170 c 0,27,28
 390 1170 390 1170 354 1216 c 0,29,30
 328 1250 328 1250 328 1291 c 0,31,32
 328 1308 328 1308 332 1326 c 0,33,34
 346 1392 346 1392 400.5 1438 c 128,-1,35
 455 1484 455 1484 520 1484 c 0,18,19
EndSplineSet
Validated: 1
EndChar

StartChar: copyright
Encoding: 169 169 97
Width: 1318
GlyphClass: 2
Flags: W
HStem: 386 77<574.878 949.312> 568 70<736.311 966.594> 1281 71<867.331 1093.74> 1453 77<775.688 1148>
VStem: 293 82<659.426 1055.31> 457 214<700.154 1057.56> 1167 15<1042 1070.94> 1350 82<860.688 1256.57>
LayerCount: 2
Fore
SplineSet
967 1453 m 1,0,1
 777 1453 777 1453 605 1312 c 0,2,3
 427 1166 427 1166 386 953 c 0,4,5
 375 896 375 896 375 849 c 0,6,7
 375 701 375 701 451 602 c 0,8,9
 558 463 558 463 758 463 c 0,10,11
 948 463 948 463 1120 604 c 0,12,13
 1298 750 1298 750 1339 963 c 0,14,15
 1350 1020 1350 1020 1350 1067 c 0,16,17
 1350 1213 1350 1213 1274 1314 c 0,18,19
 1261 1330 1261 1330 1248 1345 c 1,20,-1
 1182 1042 l 1,21,-1
 1167 1042 l 1,22,23
 1150 1281 1150 1281 998 1281 c 0,24,25
 874 1281 874 1281 783 1175 c 0,26,27
 712 1093 712 1093 684 956 c 0,28,29
 671 892 671 892 671 841 c 0,30,31
 671 779 671 779 690 736 c 0,32,33
 733 638 733 638 842 638 c 0,34,35
 932 638 932 638 1005 698 c 0,36,37
 1078 757 1078 757 1139 839 c 1,38,-1
 1110 702 l 1,39,40
 978 568 978 568 797 568 c 0,41,42
 613 568 613 568 532 659 c 0,43,44
 457 743 457 743 457 858 c 0,45,46
 457 900 457 900 467 946 c 0,47,48
 504 1120 504 1120 612 1220 c 0,49,50
 755 1352 755 1352 953 1352 c 0,51,52
 1044 1352 1044 1352 1093 1327 c 0,53,54
 1140 1303 1140 1303 1159 1303 c 0,55,56
 1201 1303 1201 1303 1236 1356 c 1,57,58
 1134 1453 1134 1453 967 1453 c 1,0,1
968 1530 m 0,59,60
 1210 1530 1210 1530 1337 1368 c 0,61,62
 1432 1247 1432 1247 1432 1097 c 0,63,64
 1432 1019 1432 1019 1423 964 c 0,65,66
 1383 718 1383 718 1184 553 c 0,67,68
 982 386 982 386 757 386 c 0,69,70
 515 386 515 386 388 548 c 0,71,72
 293 669 293 669 293 819 c 0,73,74
 293 897 293 897 302 952 c 0,75,76
 342 1199 342 1199 541 1363 c 0,77,78
 743 1530 743 1530 968 1530 c 0,59,60
EndSplineSet
Validated: 1
EndChar

StartChar: ordfeminine
Encoding: 170 170 98
Width: 693
GlyphClass: 2
Flags: W
HStem: 800 161<345 722> 1002 72<504.336 595.659> 1508 72<498.959 657.813>
VStem: 297 197<1093.6 1246.13> 397 16<1367 1377.72> 671 190<1371 1482.44>
LayerCount: 2
Fore
SplineSet
650 1580 m 0,0,1
 761 1580 761 1580 818 1535 c 0,2,3
 861 1500 861 1500 861 1443 c 0,4,5
 861 1425 861 1425 857 1406 c 2,6,-1
 802 1147 l 2,7,8
 800 1140 800 1140 800 1134 c 0,9,10
 800 1090 800 1090 872 1077 c 1,11,-1
 870 1066 l 1,12,13
 727 1002 727 1002 561 1002 c 0,14,15
 404 1002 404 1002 345 1048 c 0,16,17
 297 1087 297 1087 297 1148 c 0,18,19
 297 1163 297 1163 300 1179 c 0,20,21
 314 1256 314 1256 404 1310 c 0,22,23
 492 1362 492 1362 659 1371 c 1,24,-1
 667 1405 l 2,25,26
 671 1422 671 1422 671 1437 c 0,27,28
 671 1465 671 1465 656 1483 c 0,29,30
 635 1508 635 1508 591 1508 c 0,31,32
 541 1508 541 1508 497 1471 c 0,33,34
 457 1437 457 1437 413 1367 c 1,35,-1
 397 1367 l 1,36,-1
 430 1523 l 1,37,38
 534 1580 534 1580 650 1580 c 0,0,1
644 1299 m 1,39,40
 591 1290 591 1290 563 1269 c 0,41,42
 509 1228 509 1228 497 1170 c 0,43,44
 494 1154 494 1154 494 1140 c 0,45,46
 494 1112 494 1112 507 1093 c 128,-1,47
 520 1074 520 1074 546 1074 c 128,-1,48
 572 1074 572 1074 595 1101 c 0,49,50
 604 1112 604 1112 612 1146 c 2,51,-1
 644 1299 l 1,39,40
345 961 m 1,52,-1
 847 961 l 1,53,-1
 722 800 l 1,54,-1
 220 800 l 1,55,-1
 345 961 l 1,52,-1
EndSplineSet
Validated: 1
EndChar

StartChar: guillemotleft
Encoding: 171 171 99
Width: 1228
GlyphClass: 2
Flags: W
DStem2: 468 784 253 720 0.441968 -0.897031<0 552.326> 253 720 468 784 0.659438 0.751759<189.892 834.044> 906 784 691 720 0.441968 -0.897031<0 552.326> 691 720 906 784 0.659438 0.751759<189.892 834.044>
LayerCount: 2
Fore
SplineSet
803 1347 m 1,0,-1
 899 1277 l 1,1,-1
 468 784 l 1,2,-1
 711 288 l 1,3,-1
 523 172 l 1,4,-1
 253 720 l 1,5,-1
 803 1347 l 1,0,-1
1241 1347 m 1,6,-1
 1337 1277 l 1,7,-1
 906 784 l 1,8,-1
 1149 288 l 1,9,-1
 961 172 l 1,10,-1
 691 720 l 1,11,-1
 1241 1347 l 1,6,-1
EndSplineSet
Validated: 1
EndChar

StartChar: logicalnot
Encoding: 172 172 100
Width: 1183
GlyphClass: 2
Flags: W
HStem: 649 211<402 916>
VStem: 681 185<349 534>
DStem2: 681 349 866 349 0.616391 0.78744<114.032 381.084>
LayerCount: 2
Fore
SplineSet
402 860 m 1,0,-1
 1266 860 l 1,1,-1
 866 349 l 1,2,-1
 681 349 l 1,3,-1
 916 649 l 1,4,-1
 238 649 l 1,5,-1
 402 860 l 1,0,-1
EndSplineSet
Validated: 1
EndChar

StartChar: uni00AD
Encoding: 173 173 101
Width: 1273
GlyphClass: 2
Flags: W
HStem: 649 211<402 1192>
LayerCount: 2
Fore
SplineSet
402 860 m 1,0,-1
 1356 860 l 1,1,-1
 1192 649 l 1,2,-1
 238 649 l 1,3,-1
 402 860 l 1,0,-1
EndSplineSet
Validated: 1
EndChar

StartChar: registered
Encoding: 174 174 102
Width: 1318
GlyphClass: 2
Flags: W
HStem: 386 77<577.286 916.139> 1277 70<866.623 1001.8> 1453 77<775.688 1150.37>
VStem: 293 82<661.828 1055.31> 1029 210<982.511 1246.64> 1350 82<860.812 1256.57>
DStem2: 476.832 386 676.688 386 0.207912 0.978148<331.043 490.36 598.839 841.074>
LayerCount: 2
Fore
SplineSet
934 1277 m 0,0,1
 908 1277 908 1277 886 1262 c 0,2,3
 859 1245 859 1245 850 1199 c 2,4,-1
 799 958 l 2,5,6
 796 942 796 942 796 930 c 0,7,8
 796 906 796 906 808 895 c 0,9,10
 824 880 824 880 850 880 c 0,11,12
 891 880 891 880 936 916 c 0,13,14
 996 965 996 965 1020 1078 c 0,15,16
 1029 1121 1029 1121 1029 1155 c 0,17,18
 1029 1210 1029 1210 1005 1241 c 0,19,20
 975 1277 975 1277 934 1277 c 0,0,1
458 593 m 1,21,22
 526 620 526 620 544 702 c 2,23,-1
 650 1199 l 2,24,25
 651 1204 651 1204 651 1209 c 0,26,27
 651 1249 651 1249 580 1271 c 1,28,-1
 582 1280 l 1,29,30
 749 1347 749 1347 928 1347 c 0,31,32
 1102 1347 1102 1347 1180 1270 c 0,33,34
 1239 1212 1239 1212 1239 1132 c 0,35,36
 1239 1106 1239 1106 1234 1080 c 0,37,38
 1210 966 1210 966 1107 890 c 0,39,40
 1067 860 1067 860 1001 841 c 1,41,42
 1074 819 1074 819 1089 739 c 2,43,-1
 1115 600 l 17,44,45
 1298 751 1298 751 1339 963 c 0,46,47
 1350 1020 1350 1020 1350 1067 c 0,48,49
 1350 1213 1350 1213 1274 1314 c 0,50,51
 1168 1453 1168 1453 967 1453 c 0,52,53
 777 1453 777 1453 605 1312 c 0,54,55
 427 1166 427 1166 386 953 c 0,56,57
 375 896 375 896 375 849 c 0,58,59
 375 695 375 695 458 593 c 1,21,22
968 1530 m 0,60,61
 1210 1530 1210 1530 1337 1368 c 0,62,63
 1432 1247 1432 1247 1432 1097 c 0,64,65
 1432 1019 1432 1019 1423 964 c 0,66,67
 1383 718 1383 718 1184 553 c 0,68,69
 982 386 982 386 757 386 c 0,70,71
 515 386 515 386 388 548 c 0,72,73
 293 669 293 669 293 819 c 0,74,75
 293 897 293 897 302 952 c 0,76,77
 342 1199 342 1199 541 1363 c 0,78,79
 743 1530 743 1530 968 1530 c 0,60,61
919 489 m 1,80,-1
 875 725 l 2,81,82
 860 805 860 805 825 815 c 1,83,84
 791 817 791 817 770 825 c 1,85,-1
 744 702 l 2,86,87
 740 684 740 684 740 668 c 0,88,89
 740 605 740 605 805 586 c 1,90,-1
 801 570 l 1,91,-1
 479 570 l 1,92,93
 583 463 583 463 758 463 c 0,94,95
 840 463 840 463 919 489 c 1,80,-1
EndSplineSet
Validated: 1
EndChar

StartChar: macron
Encoding: 175 175 103
Width: 735
GlyphClass: 2
Flags: W
HStem: 1230 161<437 855>
VStem: 311 670
LayerCount: 2
Fore
SplineSet
437 1391 m 1,0,-1
 981 1391 l 1,1,-1
 855 1230 l 1,2,-1
 311 1230 l 1,3,-1
 437 1391 l 1,0,-1
EndSplineSet
Validated: 1
EndChar

StartChar: degree
Encoding: 176 176 104
Width: 680
GlyphClass: 2
Flags: W
HStem: 1019 92<507.546 661.925> 1502 92<575.31 727.541>
VStem: 320 176<1139.24 1404.96> 739 177<1206.8 1453.31>
LayerCount: 2
Fore
SplineSet
679 1594 m 0,0,1
 787 1594 787 1594 856 1524 c 0,2,3
 916 1464 916 1464 916 1374 c 0,4,5
 916 1342 916 1342 908 1306 c 0,6,7
 878 1166 878 1166 763 1088 c 0,8,9
 663 1019 663 1019 558 1019 c 0,10,11
 448 1019 448 1019 379 1088 c 0,12,13
 320 1148 320 1148 320 1237 c 0,14,15
 320 1270 320 1270 328 1307 c 0,16,17
 357 1442 357 1442 472 1524 c 0,18,19
 570 1594 570 1594 679 1594 c 0,0,1
659 1502 m 0,20,21
 612 1502 612 1502 566 1448 c 0,22,23
 524 1400 524 1400 506 1306 c 0,24,25
 496 1252 496 1252 496 1215 c 0,26,27
 496 1179 496 1179 505 1158 c 0,28,29
 527 1111 527 1111 577 1111 c 0,30,31
 625 1111 625 1111 669 1164 c 0,32,33
 709 1213 709 1213 729 1305 c 0,34,35
 739 1355 739 1355 739 1393.5 c 128,-1,36
 739 1432 739 1432 729 1454 c 0,37,38
 707 1502 707 1502 659 1502 c 0,20,21
EndSplineSet
Validated: 1
EndChar

StartChar: plusminus
Encoding: 177 177 105
Width: 1273
GlyphClass: 2
Flags: W
HStem: 180 211<302 1092> 831 211<440 708 963 1231>
DStem2: 569.238 180 779.943 180 0.207912 0.978148<390.382 665.624 925.031 1200.27>
LayerCount: 2
Fore
SplineSet
302 391 m 1,0,-1
 1256 391 l 1,1,-1
 1092 180 l 1,2,-1
 138 180 l 1,3,-1
 302 391 l 1,0,-1
1055 1473 m 1,4,-1
 963 1042 l 1,5,-1
 1394 1042 l 1,6,-1
 1231 831 l 1,7,-1
 919 831 l 1,8,-1
 852 519 l 1,9,-1
 616 400 l 1,10,-1
 708 831 l 1,11,-1
 277 831 l 1,12,-1
 440 1042 l 1,13,-1
 752 1042 l 1,14,-1
 819 1354 l 1,15,-1
 1055 1473 l 1,4,-1
EndSplineSet
Validated: 1
EndChar

StartChar: uni00B2
Encoding: 178 178 106
Width: 734
GlyphClass: 2
Flags: W
HStem: 799 160<512.149 762.193> 1510 70<521.704 709.53>
VStem: 355 15<1305 1315.77> 729 209<1277.96 1452.31>
LayerCount: 2
Fore
SplineSet
692 1580 m 0,0,1
 833 1580 833 1580 892 1517 c 0,2,3
 938 1468 938 1468 938 1399 c 0,4,5
 938 1375 938 1375 933 1349 c 0,6,7
 906 1220 906 1220 759 1154 c 0,8,9
 565 1067 565 1067 472 989 c 1,10,11
 507 998 507 998 550 998 c 128,-1,12
 593 998 593 998 648.5 978.5 c 128,-1,13
 704 959 704 959 758.5 959 c 128,-1,14
 813 959 813 959 883 1006 c 1,15,-1
 898 1006 l 1,16,17
 787 799 787 799 623 799 c 24,18,19
 591 799 591 799 524 819 c 0,20,21
 451 841 451 841 389 841 c 0,22,23
 302 841 302 841 235 798 c 1,24,-1
 220 798 l 1,25,26
 292 952 292 952 385 1035 c 0,27,28
 481 1120 481 1120 590 1192 c 0,29,30
 705 1268 705 1268 724 1361 c 0,31,32
 729 1384 729 1384 729 1405 c 0,33,34
 729 1431 729 1431 721 1453 c 0,35,36
 700 1510 700 1510 636 1510 c 0,37,38
 554 1510 554 1510 488 1451 c 128,-1,39
 422 1392 422 1392 370 1305 c 1,40,-1
 355 1305 l 1,41,-1
 393 1480 l 1,42,43
 514 1580 514 1580 692 1580 c 0,0,1
EndSplineSet
Validated: 1
EndChar

StartChar: uni00B3
Encoding: 179 179 107
Width: 666
GlyphClass: 2
Flags: W
HStem: 797 71<331.265 541.486> 1510 70<475.948 645.035>
VStem: 267 15<986.834 1022> 386 15<1379 1392.45> 635 210<957.119 1192.78> 656 196<1321.63 1473.47>
LayerCount: 2
Fore
SplineSet
640 1580 m 0,0,1
 758 1580 758 1580 812 1531 c 0,2,3
 852 1495 852 1495 852 1438 c 0,4,5
 852 1419 852 1419 848 1398 c 0,6,7
 830 1314 830 1314 721 1259 c 1,8,9
 845 1215 845 1215 845 1102 c 0,10,11
 845 1076 845 1076 838 1046 c 0,12,13
 814 934 814 934 714 866 c 0,14,15
 612 797 612 797 469 797 c 0,16,17
 313 797 313 797 233 861 c 1,18,-1
 267 1022 l 1,19,-1
 282 1022 l 1,20,21
 293 963 293 963 306 937 c 0,22,23
 339 868 339 868 428 868 c 0,24,25
 509 868 509 868 559 918 c 0,26,27
 614 974 614 974 630 1052 c 0,28,29
 635 1077 635 1077 635 1099 c 0,30,31
 635 1217 635 1217 479 1229 c 1,32,-1
 484 1250 l 1,33,34
 551 1266 551 1266 595.5 1304 c 128,-1,35
 640 1342 640 1342 652 1401 c 0,36,37
 656 1419 656 1419 656 1434 c 0,38,39
 656 1457 656 1457 647 1474 c 0,40,41
 628 1510 628 1510 574.5 1510 c 128,-1,42
 521 1510 521 1510 478 1477 c 0,43,44
 431 1442 431 1442 401 1379 c 1,45,-1
 386 1379 l 1,46,-1
 416 1518 l 1,47,48
 519 1580 519 1580 640 1580 c 0,0,1
EndSplineSet
Validated: 1
EndChar

StartChar: acute
Encoding: 180 180 108
Width: 486
GlyphClass: 2
Flags: W
HStem: 1160 348
VStem: 302 429
LayerCount: 2
Fore
SplineSet
611 1508 m 0,0,1
 668 1508 668 1508 703 1469 c 0,2,3
 731 1437 731 1437 731 1388 c 0,4,5
 731 1311 731 1311 641 1278 c 2,6,-1
 317 1160 l 1,7,-1
 302 1184 l 1,8,-1
 499 1441 l 2,9,10
 550 1508 550 1508 611 1508 c 0,0,1
EndSplineSet
Validated: 1
EndChar

StartChar: uni00B5
Encoding: 181 181 109
Width: 1385
GlyphClass: 2
Flags: W
HStem: -430 21G<393 622> -20 121<667.389 901.134> 1100 20G<590.5 718.739 1313 1438.75>
VStem: 167 300<-280.828 43.9219>
DStem2: 88.6007 -430 388.601 -430 0.207912 0.978148<380.71 551.988 895.078 1331.18> 813.99 -430 1113.54 -430 0.207912 0.978148<744.159 1331.1>
LayerCount: 2
Fore
SplineSet
840 -20 m 0,0,1
 627 -20 627 -20 490 49 c 1,2,-1
 480 0 l 2,3,4
 467 -66 467 -66 467 -123 c 0,5,6
 467 -318 467 -318 622 -415 c 1,7,-1
 619 -430 l 1,8,9
 167 -430 167 -430 167 -117 c 0,10,11
 167 -63 167 -63 180 0 c 2,12,-1
 360 845 l 2,13,14
 363 860 363 860 363 873 c 0,15,16
 363 963 363 963 221 991 c 1,17,-1
 224 1006 l 1,18,19
 458 1112 458 1112 723 1120 c 1,20,-1
 602 552 l 2,21,22
 581 455 581 455 581 378 c 0,23,24
 581 296 581 296 605 237 c 0,25,26
 659 101 659 101 788 101 c 0,27,28
 863 101 863 101 907 150 c 0,29,30
 947 195 947 195 961 262 c 2,31,-1
 1085 845 l 2,32,33
 1088 860 1088 860 1088 873 c 0,34,35
 1088 963 1088 963 946 991 c 1,36,-1
 949 1006 l 1,37,38
 1183 1112 1183 1112 1443 1120 c 1,39,-1
 1261 263 l 2,40,41
 1258 249 1258 249 1258 236 c 0,42,43
 1258 148 1258 148 1400 117 c 1,44,-1
 1397 102 l 1,45,46
 1111 -20 1111 -20 840 -20 c 0,0,1
EndSplineSet
Validated: 1
EndChar

StartChar: paragraph
Encoding: 182 182 110
Width: 1071
GlyphClass: 2
Flags: W
HStem: 0 15<404 430.982 1041.12 1061> 1510 20G<773.5 997.5>
DStem2: 570.861 0 693 0 0.207912 0.978148<82.1835 746.303> 773 0 891.011 0 0.207912 0.978148<210.019 1280.92>
LayerCount: 2
Fore
SplineSet
401 0 m 1,0,-1
 404 15 l 1,1,2
 582 54 582 54 624 250 c 2,3,-1
 726 730 l 1,4,5
 511 730 511 730 407 811 c 0,6,7
 299 895 299 895 299 1033 c 0,8,9
 299 1076 299 1076 309 1124 c 0,10,11
 353 1331 353 1331 541 1448 c 0,12,13
 672 1530 672 1530 875 1530 c 0,14,15
 1120 1530 1120 1530 1359 1404 c 1,16,-1
 1356 1389 l 1,17,18
 1176 1341 1176 1341 1155 1241 c 2,19,-1
 945 254 l 2,20,21
 936 213 936 213 936 179 c 0,22,23
 936 48 936 48 1064 15 c 1,24,-1
 1061 0 l 1,25,-1
 773 0 l 1,26,-1
 1039 1253 l 1,27,-1
 959 1253 l 1,28,-1
 693 0 l 1,29,-1
 401 0 l 1,0,-1
EndSplineSet
Validated: 1
EndChar

StartChar: periodcentered
Encoding: 183 183 111
Width: 464
GlyphClass: 2
Flags: W
HStem: 569 370<303.766 482.305>
VStem: 207 372<664.783 843>
LayerCount: 2
Fore
SplineSet
432 939 m 0,0,1
 510 939 510 939 550 885 c 0,2,3
 579 846 579 846 579 795 c 0,4,5
 579 775 579 775 575 754 c 0,6,7
 559 677 559 677 494.5 623 c 128,-1,8
 430 569 430 569 354 569 c 128,-1,9
 278 569 278 569 236 623 c 0,10,11
 207 661 207 661 207 713 c 0,12,13
 207 733 207 733 211 754 c 0,14,15
 227 831 227 831 291.5 885 c 128,-1,16
 356 939 356 939 432 939 c 0,0,1
EndSplineSet
Validated: 1
EndChar

StartChar: cedilla
Encoding: 184 184 112
Width: 454
GlyphClass: 2
Flags: W
HStem: -430 138<25 111.647> -107 107<78 128.244>
VStem: 154 206<-261.456 -121.542>
LayerCount: 2
Fore
SplineSet
78 0 m 1,0,-1
 228 0 l 1,1,-1
 220 -39 l 1,2,3
 273 -49 273 -49 311 -84 c 0,4,5
 360 -131 360 -131 360 -199 c 0,6,7
 360 -212 360 -212 358 -225 c 0,8,9
 347 -315 347 -315 272 -368 c 0,10,11
 184 -430 184 -430 25 -430 c 1,12,-1
 -12 -292 l 1,13,14
 70 -292 70 -292 113 -261 c 0,15,16
 143 -239 143 -239 152 -199 c 0,17,18
 154 -190 154 -190 154 -181 c 0,19,20
 154 -148 154 -148 129 -127 c 0,21,22
 105 -107 105 -107 55 -107 c 1,23,-1
 78 0 l 1,0,-1
EndSplineSet
Validated: 1
EndChar

StartChar: uni00B9
Encoding: 185 185 113
Width: 470
GlyphClass: 2
Flags: W
HStem: 805 15<224 245.406>
VStem: 221 452
DStem2: 306.368 805 506.368 805 0.207912 0.978148<140.858 547.777>
LayerCount: 2
Fore
SplineSet
663 1590 m 1,0,-1
 673 1590 l 1,1,-1
 534 935 l 2,2,3
 530 916 530 916 530 901 c 0,4,5
 530 838 530 838 594 820 c 1,6,-1
 591 805 l 1,7,-1
 221 805 l 1,8,-1
 224 820 l 1,9,10
 314 843 314 843 334 935 c 2,11,-1
 413 1308 l 2,12,13
 417 1326 417 1326 417 1342 c 0,14,15
 417 1405 417 1405 352 1423 c 1,16,-1
 355 1435 l 1,17,18
 530 1480 530 1480 663 1590 c 1,0,-1
EndSplineSet
Validated: 1
EndChar

StartChar: ordmasculine
Encoding: 186 186 114
Width: 722
GlyphClass: 2
Flags: W
HStem: 800 161<345 751> 997 74<529.435 660.348> 1507 73<609.279 739.154>
VStem: 314 201<1082.09 1381.95> 754 200<1188.13 1496>
LayerCount: 2
Fore
SplineSet
682.5 1507 m 128,-1,1
 636 1507 636 1507 595 1454 c 0,2,3
 552 1399 552 1399 528 1286 c 0,4,5
 515 1223 515 1223 515 1179 c 0,6,7
 515 1145 515 1145 523 1122 c 0,8,9
 541 1071 541 1071 590 1071 c 0,10,11
 632 1071 632 1071 675 1124 c 0,12,13
 716 1175 716 1175 740 1289 c 0,14,15
 754 1357 754 1357 754 1402 c 0,16,17
 754 1434 754 1434 747 1454 c 0,18,0
 729 1507 729 1507 682.5 1507 c 128,-1,1
698 1580 m 128,-1,20
 832 1580 832 1580 903 1503 c 0,21,22
 954 1447 954 1447 954 1362 c 0,23,24
 954 1328 954 1328 946 1289 c 0,25,26
 918 1153 918 1153 811 1075 c 128,-1,27
 704 997 704 997 582 997 c 0,28,29
 464 998 464 998 397 1047 c 0,30,31
 314 1107 314 1107 314 1211 c 0,32,33
 314 1242 314 1242 322 1276 c 0,34,35
 354 1426 354 1426 459 1503 c 128,-1,19
 564 1580 564 1580 698 1580 c 128,-1,20
345 961 m 1,36,-1
 876 961 l 1,37,-1
 751 800 l 1,38,-1
 220 800 l 1,39,-1
 345 961 l 1,36,-1
EndSplineSet
Validated: 1
EndChar

StartChar: guillemotright
Encoding: 187 187 115
Width: 1228
GlyphClass: 2
Flags: W
DStem2: 214 242 310 172 0.659438 0.751759<10.6829 654.835> 590 1347 402 1231 0.441968 -0.897031<20.9656 573.291> 652 242 748 172 0.659438 0.751759<10.6829 654.835> 1028 1347 840 1231 0.441968 -0.897031<20.9656 573.291>
LayerCount: 2
Fore
SplineSet
1028 1347 m 1,0,-1
 1298 799 l 1,1,-1
 748 172 l 1,2,-1
 652 242 l 1,3,-1
 1083 735 l 1,4,-1
 840 1231 l 1,5,-1
 1028 1347 l 1,0,-1
590 1347 m 1,6,-1
 860 799 l 1,7,-1
 310 172 l 1,8,-1
 214 242 l 1,9,-1
 645 735 l 1,10,-1
 402 1231 l 1,11,-1
 590 1347 l 1,6,-1
EndSplineSet
Validated: 1
EndChar

StartChar: onequarter
Encoding: 188 188 116
Width: 1580
GlyphClass: 2
Flags: W
HStem: 0 15<1106 1127.39 1453.91 1473> 172 71<1046 1225 1440 1477> 765 15<266 287.391>
DStem2: 176.26 -40 376.26 -40 0.207912 0.978148<963.872 1370.97> 218 77 400 -40 0.642064 0.766651<27.1574 1920.3> 867 186 1046 243 0.749418 0.662097<171.885 491.361>
LayerCount: 2
Fore
SplineSet
704 1550 m 1,0,-1
 714 1550 l 1,1,-1
 575 895 l 2,2,3
 571 877 571 877 571 861 c 0,4,5
 571 798 571 798 636 780 c 1,6,-1
 633 765 l 1,7,-1
 263 765 l 1,8,-1
 266 780 l 1,9,10
 356 803 356 803 375 895 c 2,11,-1
 455 1268 l 2,12,13
 459 1286 459 1286 459 1302 c 0,14,15
 459 1365 459 1365 394 1383 c 1,16,-1
 397 1395 l 1,17,18
 571 1440 571 1440 704 1550 c 1,0,-1
400 -40 m 1,19,-1
 218 77 l 1,20,-1
 1450 1550 l 1,21,-1
 1642 1443 l 1,22,-1
 400 -40 l 1,19,-1
1103 0 m 1,23,-1
 1106 15 l 1,24,25
 1196 40 1196 40 1215 129 c 2,26,-1
 1225 172 l 1,27,-1
 864 172 l 1,28,-1
 867 186 l 1,29,-1
 1545 785 l 1,30,-1
 1555 785 l 1,31,-1
 1440 243 l 1,32,-1
 1532 243 l 1,33,-1
 1477 172 l 1,34,-1
 1425 172 l 1,35,-1
 1415 129 l 2,36,37
 1411 110 1411 110 1411 94 c 0,38,39
 1411 30 1411 30 1476 15 c 1,40,-1
 1473 0 l 1,41,-1
 1103 0 l 1,23,-1
1240 243 m 1,42,-1
 1285 455 l 1,43,-1
 1046 243 l 1,44,-1
 1240 243 l 1,42,-1
EndSplineSet
Validated: 1
EndChar

StartChar: onehalf
Encoding: 189 189 117
Width: 1712
GlyphClass: 2
Flags: W
HStem: -9 160<1268.15 1518.19> 702 70<1277.7 1465.53> 765 15<266 287.391>
VStem: 1111 15<497 507.766> 1485 209<469.959 644.312>
DStem2: 176.26 -40 376.26 -40 0.207912 0.978148<963.872 1370.97> 218 77 400 -40 0.642064 0.766651<27.1574 1920.3>
LayerCount: 2
Fore
SplineSet
1448 772 m 0,0,1
 1589 772 1589 772 1648 709 c 0,2,3
 1694 660 1694 660 1694 591 c 0,4,5
 1694 567 1694 567 1689 541 c 0,6,7
 1662 412 1662 412 1515 346 c 0,8,9
 1321 259 1321 259 1228 181 c 1,10,11
 1263 190 1263 190 1306 190 c 128,-1,12
 1349 190 1349 190 1404.5 170.5 c 128,-1,13
 1460 151 1460 151 1514.5 151 c 128,-1,14
 1569 151 1569 151 1639 198 c 1,15,-1
 1654 198 l 1,16,17
 1543 -9 1543 -9 1379 -9 c 24,18,19
 1347 -9 1347 -9 1280 11 c 0,20,21
 1207 33 1207 33 1145 33 c 0,22,23
 1058 33 1058 33 991 -10 c 1,24,-1
 976 -10 l 1,25,26
 1048 144 1048 144 1141 227 c 0,27,28
 1237 312 1237 312 1346 384 c 0,29,30
 1461 460 1461 460 1480 553 c 0,31,32
 1485 576 1485 576 1485 597 c 0,33,34
 1485 623 1485 623 1477 645 c 0,35,36
 1456 702 1456 702 1392 702 c 0,37,38
 1310 702 1310 702 1244 643 c 128,-1,39
 1178 584 1178 584 1126 497 c 1,40,-1
 1111 497 l 1,41,-1
 1149 672 l 1,42,43
 1270 772 1270 772 1448 772 c 0,0,1
704 1550 m 1,44,-1
 714 1550 l 1,45,-1
 575 895 l 2,46,47
 571 877 571 877 571 861 c 0,48,49
 571 798 571 798 636 780 c 1,50,-1
 633 765 l 1,51,-1
 263 765 l 1,52,-1
 266 780 l 1,53,54
 356 803 356 803 375 895 c 2,55,-1
 455 1268 l 2,56,57
 459 1286 459 1286 459 1302 c 0,58,59
 459 1365 459 1365 394 1383 c 1,60,-1
 397 1395 l 1,61,62
 571 1440 571 1440 704 1550 c 1,44,-1
400 -40 m 1,63,-1
 218 77 l 1,64,-1
 1450 1550 l 1,65,-1
 1642 1443 l 1,66,-1
 400 -40 l 1,63,-1
EndSplineSet
Validated: 1
EndChar

StartChar: threequarters
Encoding: 190 190 118
Width: 1734
GlyphClass: 2
Flags: W
HStem: 0 15<1260 1281.39 1607.91 1627> 172 71<1200 1379 1594 1631> 757 71<373.265 583.486> 1470 70<517.948 687.035>
VStem: 309 15<946.834 982> 428 15<1339 1352.45> 677 210<917.119 1152.78> 698 196<1281.63 1433.47>
DStem2: 372 77 554 -40 0.642064 0.766651<27.1574 1920.3> 1021 186 1200 243 0.749418 0.662097<171.885 491.361>
LayerCount: 2
Fore
SplineSet
682 1540 m 0,0,1
 800 1540 800 1540 854 1491 c 0,2,3
 894 1455 894 1455 894 1398 c 0,4,5
 894 1379 894 1379 890 1358 c 0,6,7
 872 1274 872 1274 763 1219 c 1,8,9
 887 1175 887 1175 887 1062 c 0,10,11
 887 1036 887 1036 880 1006 c 0,12,13
 856 894 856 894 756 826 c 0,14,15
 654 757 654 757 511 757 c 0,16,17
 355 757 355 757 275 821 c 1,18,-1
 309 982 l 1,19,-1
 324 982 l 1,20,21
 335 923 335 923 348 897 c 0,22,23
 381 828 381 828 470 828 c 0,24,25
 551 828 551 828 601 878 c 0,26,27
 656 934 656 934 672 1012 c 0,28,29
 677 1037 677 1037 677 1059 c 0,30,31
 677 1177 677 1177 521 1189 c 1,32,-1
 526 1210 l 1,33,34
 593 1226 593 1226 637.5 1264 c 128,-1,35
 682 1302 682 1302 694 1361 c 0,36,37
 698 1379 698 1379 698 1394 c 0,38,39
 698 1417 698 1417 689 1434 c 0,40,41
 670 1470 670 1470 616.5 1470 c 128,-1,42
 563 1470 563 1470 520 1437 c 0,43,44
 473 1402 473 1402 443 1339 c 1,45,-1
 428 1339 l 1,46,-1
 458 1478 l 1,47,48
 561 1540 561 1540 682 1540 c 0,0,1
554 -40 m 1,49,-1
 372 77 l 1,50,-1
 1604 1550 l 1,51,-1
 1796 1443 l 1,52,-1
 554 -40 l 1,49,-1
1257 0 m 1,53,-1
 1260 15 l 1,54,55
 1350 40 1350 40 1369 129 c 2,56,-1
 1379 172 l 1,57,-1
 1018 172 l 1,58,-1
 1021 186 l 1,59,-1
 1699 785 l 1,60,-1
 1709 785 l 1,61,-1
 1594 243 l 1,62,-1
 1686 243 l 1,63,-1
 1631 172 l 1,64,-1
 1579 172 l 1,65,-1
 1569 129 l 2,66,67
 1565 110 1565 110 1565 94 c 0,68,69
 1565 30 1565 30 1630 15 c 1,70,-1
 1627 0 l 1,71,-1
 1257 0 l 1,53,-1
1394 243 m 1,72,-1
 1439 455 l 1,73,-1
 1200 243 l 1,74,-1
 1394 243 l 1,72,-1
EndSplineSet
Validated: 1
EndChar

StartChar: questiondown
Encoding: 191 191 119
Width: 1256
GlyphClass: 2
Flags: W
HStem: -430 122<510.602 840.118> 750 370<813.695 992.234>
VStem: 92 347<-238.003 89.0391> 1163 15<93.876 105>
LayerCount: 2
Fore
SplineSet
942 1120 m 128,-1,1
 1018 1120 1018 1120 1060 1066 c 0,2,3
 1089 1028 1089 1028 1089 976 c 0,4,5
 1089 956 1089 956 1085 935 c 0,6,7
 1069 858 1069 858 1004.5 804 c 128,-1,8
 940 750 940 750 864 750 c 0,9,10
 786 750 786 750 746 804 c 0,11,12
 717 842 717 842 717 894 c 0,13,14
 717 914 717 914 721 935 c 0,15,16
 737 1012 737 1012 801.5 1066 c 128,-1,0
 866 1120 866 1120 942 1120 c 128,-1,1
559 -430 m 0,17,18
 305 -430 305 -430 184 -307 c 0,19,20
 92 -213 92 -213 92 -82 c 0,21,22
 92 -37 92 -37 103 12 c 0,23,24
 149 224 149 224 380 366 c 2,25,-1
 526 456 l 2,26,27
 711 570 711 570 788 674 c 1,28,-1
 906 674 l 1,29,30
 877 539 877 539 705 373 c 2,31,-1
 649 319 l 2,32,33
 486 162 486 162 449 -12 c 0,34,35
 439 -61 439 -61 439 -102 c 0,36,37
 439 -145 439 -145 450 -179 c 0,38,39
 494 -308 494 -308 659 -308 c 128,-1,40
 824 -308 824 -308 944 -188 c 0,41,42
 1057 -74 1057 -74 1163 105 c 1,43,-1
 1178 105 l 1,44,-1
 1105 -235 l 1,45,46
 876 -430 876 -430 559 -430 c 0,17,18
EndSplineSet
Validated: 1
EndChar

StartChar: endash
Encoding: 8211 8211 120
Width: 1273
GlyphClass: 2
Flags: W
HStem: 649 211<402 1192>
LayerCount: 2
Fore
SplineSet
402 860 m 1,0,-1
 1356 860 l 1,1,-1
 1192 649 l 1,2,-1
 238 649 l 1,3,-1
 402 860 l 1,0,-1
EndSplineSet
Validated: 1
EndChar

StartChar: emdash
Encoding: 8212 8212 121
Width: 1571
GlyphClass: 2
Flags: W
HStem: 649 211<402 1490>
LayerCount: 2
Fore
SplineSet
402 860 m 1,0,-1
 1654 860 l 1,1,-1
 1490 649 l 1,2,-1
 238 649 l 1,3,-1
 402 860 l 1,0,-1
EndSplineSet
Validated: 1
EndChar

StartChar: afii00208
Encoding: 8213 8213 122
Width: 1571
GlyphClass: 2
Flags: W
HStem: 649 211<402 1490>
LayerCount: 2
Fore
SplineSet
402 860 m 1,0,-1
 1654 860 l 1,1,-1
 1490 649 l 1,2,-1
 238 649 l 1,3,-1
 402 860 l 1,0,-1
EndSplineSet
Validated: 1
EndChar

StartChar: quoteleft
Encoding: 8216 8216 123
Width: 484
GlyphClass: 2
Flags: W
VStem: 303 396<1091.02 1309.87>
LayerCount: 2
Fore
SplineSet
814 1580 m 1,0,-1
 807 1549 l 1,1,2
 712 1513 712 1513 642 1461 c 0,3,4
 586 1419 586 1419 551 1363 c 1,5,6
 630 1363 630 1363 671 1311 c 0,7,8
 699 1275 699 1275 699 1225 c 0,9,10
 699 1204 699 1204 694 1180 c 0,11,12
 677 1101 677 1101 613.5 1047 c 128,-1,13
 550 993 550 993 463 993 c 0,14,15
 381 993 381 993 338 1050 c 0,16,17
 303 1096 303 1096 303 1161 c 0,18,19
 303 1192 303 1192 311 1226 c 0,20,21
 337 1348 337 1348 442 1447 c 0,22,23
 584 1580 584 1580 814 1580 c 1,0,-1
EndSplineSet
Validated: 1
EndChar

StartChar: quoteright
Encoding: 8217 8217 124
Width: 484
GlyphClass: 2
Flags: W
VStem: 332 396<1263.13 1481.98>
LayerCount: 2
Fore
SplineSet
568 1580 m 0,0,1
 650 1580 650 1580 693 1523 c 0,2,3
 728 1477 728 1477 728 1412 c 0,4,5
 728 1381 728 1381 720 1347 c 0,6,7
 694 1225 694 1225 589 1126 c 0,8,9
 447 993 447 993 217 993 c 1,10,-1
 224 1024 l 1,11,12
 319 1060 319 1060 389 1112 c 0,13,14
 445 1154 445 1154 480 1210 c 1,15,16
 401 1210 401 1210 360 1262 c 0,17,18
 332 1298 332 1298 332 1348 c 0,19,20
 332 1369 332 1369 337 1393 c 0,21,22
 354 1472 354 1472 417.5 1526 c 128,-1,23
 481 1580 481 1580 568 1580 c 0,0,1
EndSplineSet
Validated: 1
EndChar

StartChar: quotesinglbase
Encoding: 8218 8218 125
Width: 484
GlyphClass: 2
Flags: W
VStem: 71 395<34.1284 252.984>
LayerCount: 2
Fore
SplineSet
307 351 m 0,0,1
 389 351 389 351 431 294 c 0,2,3
 466 248 466 248 466 182 c 0,4,5
 466 152 466 152 459 118 c 0,6,7
 433 -4 433 -4 328 -103 c 0,8,9
 186 -236 186 -236 -44 -236 c 1,10,-1
 -38 -205 l 1,11,12
 57 -169 57 -169 128 -117 c 0,13,14
 184 -75 184 -75 219 -19 c 1,15,16
 140 -19 140 -19 99 33 c 0,17,18
 71 69 71 69 71 119 c 0,19,20
 71 140 71 140 76 164 c 0,21,22
 93 243 93 243 156.5 297 c 128,-1,23
 220 351 220 351 307 351 c 0,0,1
EndSplineSet
Validated: 1
EndChar

StartChar: quotereversed
Encoding: 8219 8219 126
Width: 484
GlyphClass: 2
Flags: W
HStem: 1210 370<519.121 649.426>
VStem: 328 416<1304.33 1442.74>
LayerCount: 2
Fore
SplineSet
588 1580 m 0,0,1
 676 1580 676 1580 716 1526 c 0,2,3
 744 1489 744 1489 744 1438 c 0,4,5
 744 1417 744 1417 739 1393 c 0,6,7
 722 1313 722 1313 660 1262 c 0,8,9
 597 1210 597 1210 518 1210 c 1,10,11
 529 1154 529 1154 567 1112 c 0,12,13
 616 1060 616 1060 696 1024 c 1,14,-1
 689 993 l 1,15,16
 459 993 459 993 373 1126 c 0,17,18
 328 1196 328 1196 328 1278 c 0,19,20
 328 1312 328 1312 336 1347 c 0,21,22
 359 1456 359 1456 439 1523 c 0,23,24
 506 1580 506 1580 588 1580 c 0,0,1
EndSplineSet
Validated: 1
EndChar

StartChar: quotedblleft
Encoding: 8220 8220 127
Width: 949
GlyphClass: 2
Flags: W
VStem: 303 396<1091.02 1309.87> 768 396<1091.02 1309.87>
LayerCount: 2
Fore
SplineSet
814 1580 m 1,0,-1
 807 1549 l 1,1,2
 712 1513 712 1513 642 1461 c 0,3,4
 586 1419 586 1419 551 1363 c 1,5,6
 630 1363 630 1363 671 1311 c 0,7,8
 699 1275 699 1275 699 1225 c 0,9,10
 699 1204 699 1204 694 1180 c 0,11,12
 677 1101 677 1101 613.5 1047 c 128,-1,13
 550 993 550 993 463 993 c 0,14,15
 381 993 381 993 338 1050 c 0,16,17
 303 1096 303 1096 303 1161 c 0,18,19
 303 1192 303 1192 311 1226 c 0,20,21
 337 1348 337 1348 442 1447 c 0,22,23
 584 1580 584 1580 814 1580 c 1,0,-1
1279 1580 m 1,24,-1
 1272 1549 l 1,25,26
 1177 1513 1177 1513 1107 1461 c 0,27,28
 1051 1419 1051 1419 1016 1363 c 1,29,30
 1095 1363 1095 1363 1136 1311 c 0,31,32
 1164 1275 1164 1275 1164 1225 c 0,33,34
 1164 1204 1164 1204 1159 1180 c 0,35,36
 1142 1101 1142 1101 1078.5 1047 c 128,-1,37
 1015 993 1015 993 928 993 c 0,38,39
 846 993 846 993 803 1050 c 0,40,41
 768 1096 768 1096 768 1161 c 0,42,43
 768 1192 768 1192 776 1226 c 0,44,45
 802 1348 802 1348 907 1447 c 0,46,47
 1049 1580 1049 1580 1279 1580 c 1,24,-1
EndSplineSet
Validated: 1
EndChar

StartChar: quotedblright
Encoding: 8221 8221 128
Width: 949
GlyphClass: 2
Flags: W
VStem: 332 396<1263.13 1481.98> 797 396<1263.13 1481.98>
LayerCount: 2
Fore
SplineSet
1033 1580 m 0,0,1
 1115 1580 1115 1580 1158 1523 c 0,2,3
 1193 1477 1193 1477 1193 1412 c 0,4,5
 1193 1381 1193 1381 1185 1347 c 0,6,7
 1159 1225 1159 1225 1054 1126 c 0,8,9
 912 993 912 993 682 993 c 1,10,-1
 689 1024 l 1,11,12
 784 1060 784 1060 854 1112 c 0,13,14
 910 1154 910 1154 945 1210 c 1,15,16
 866 1210 866 1210 825 1262 c 0,17,18
 797 1298 797 1298 797 1348 c 0,19,20
 797 1369 797 1369 802 1393 c 0,21,22
 819 1472 819 1472 882.5 1526 c 128,-1,23
 946 1580 946 1580 1033 1580 c 0,0,1
568 1580 m 0,24,25
 650 1580 650 1580 693 1523 c 0,26,27
 728 1477 728 1477 728 1412 c 0,28,29
 728 1381 728 1381 720 1347 c 0,30,31
 694 1225 694 1225 589 1126 c 0,32,33
 447 993 447 993 217 993 c 1,34,-1
 224 1024 l 1,35,36
 319 1060 319 1060 389 1112 c 0,37,38
 445 1154 445 1154 480 1210 c 1,39,40
 401 1210 401 1210 360 1262 c 0,41,42
 332 1298 332 1298 332 1348 c 0,43,44
 332 1369 332 1369 337 1393 c 0,45,46
 354 1472 354 1472 417.5 1526 c 128,-1,47
 481 1580 481 1580 568 1580 c 0,24,25
EndSplineSet
Validated: 1
EndChar

StartChar: quotedblbase
Encoding: 8222 8222 129
Width: 949
GlyphClass: 2
Flags: W
VStem: 71 395<34.1284 252.984> 536 395<34.1284 252.984>
LayerCount: 2
Fore
SplineSet
772 351 m 0,0,1
 854 351 854 351 896 294 c 0,2,3
 931 248 931 248 931 182 c 0,4,5
 931 152 931 152 924 118 c 0,6,7
 898 -4 898 -4 793 -103 c 0,8,9
 651 -236 651 -236 421 -236 c 1,10,-1
 427 -205 l 1,11,12
 522 -169 522 -169 593 -117 c 0,13,14
 649 -75 649 -75 684 -19 c 1,15,16
 605 -19 605 -19 564 33 c 0,17,18
 536 69 536 69 536 119 c 0,19,20
 536 140 536 140 541 164 c 0,21,22
 558 243 558 243 621.5 297 c 128,-1,23
 685 351 685 351 772 351 c 0,0,1
307 351 m 0,24,25
 389 351 389 351 431 294 c 0,26,27
 466 248 466 248 466 182 c 0,28,29
 466 152 466 152 459 118 c 0,30,31
 433 -4 433 -4 328 -103 c 0,32,33
 186 -236 186 -236 -44 -236 c 1,34,-1
 -38 -205 l 1,35,36
 57 -169 57 -169 128 -117 c 0,37,38
 184 -75 184 -75 219 -19 c 1,39,40
 140 -19 140 -19 99 33 c 0,41,42
 71 69 71 69 71 119 c 0,43,44
 71 140 71 140 76 164 c 0,45,46
 93 243 93 243 156.5 297 c 128,-1,47
 220 351 220 351 307 351 c 0,24,25
EndSplineSet
Validated: 1
EndChar

StartChar: dagger
Encoding: 8224 8224 130
Width: 1290
VWidth: 0
GlyphClass: 2
Flags: W
HStem: 885 200<596.016 733 976 1109.69>
DStem2: 536.277 -40 736.277 -40 0.207912 0.978148<391.469 945.688 1191.84 1275.73>
LayerCount: 2
Fore
SplineSet
631 -40 m 1,0,1
 609 105 609 105 475 159 c 1,2,-1
 477 169 l 1,3,4
 592 221 592 221 623 368 c 2,5,-1
 733 885 l 1,6,-1
 696 885 l 2,7,8
 549 885 549 885 475 781 c 1,9,-1
 465 781 l 1,10,11
 442 927 442 927 308 980 c 1,12,-1
 310 990 l 1,13,14
 466 1043 466 1043 552 1189 c 1,15,-1
 562 1189 l 1,16,17
 591 1085 591 1085 739 1085 c 2,18,-1
 776 1085 l 1,19,-1
 788 1142 l 2,20,21
 796 1179 796 1179 796 1210 c 0,22,23
 796 1302 796 1302 726 1341 c 1,24,-1
 728 1351 l 1,25,26
 885 1405 885 1405 969 1550 c 1,27,-1
 979 1550 l 1,28,29
 1001 1405 1001 1405 1136 1351 c 1,30,-1
 1134 1341 l 1,31,32
 1019 1287 1019 1287 988 1142 c 2,33,-1
 976 1085 l 1,34,-1
 1013 1085 l 2,35,36
 1161 1085 1161 1085 1234 1189 c 1,37,-1
 1244 1189 l 1,38,39
 1267 1043 1267 1043 1400 990 c 1,40,-1
 1398 980 l 1,41,42
 1242 927 1242 927 1157 781 c 1,43,-1
 1147 781 l 1,44,45
 1117 885 1117 885 970 885 c 2,46,-1
 933 885 l 1,47,-1
 823 368 l 2,48,49
 815 331 815 331 815 300 c 0,50,51
 815 208 815 208 885 169 c 1,52,-1
 883 159 l 1,53,54
 726 105 726 105 641 -40 c 1,55,-1
 631 -40 l 1,0,1
EndSplineSet
Validated: 1
EndChar

StartChar: daggerdbl
Encoding: 8225 8225 131
Width: 1290
VWidth: 0
GlyphClass: 2
Flags: W
HStem: 425 200<501.311 635 878 1014.98> 885 200<596.016 733 976 1109.69>
DStem2: 536.277 -40 736.277 -40 0.207912 0.978148<391.469 475.364 721.516 945.688 1191.84 1275.73>
LayerCount: 2
Fore
SplineSet
631 -40 m 1,0,1
 609 105 609 105 475 159 c 1,2,-1
 477 169 l 1,3,4
 592 223 592 223 623 368 c 2,5,-1
 635 425 l 1,6,-1
 598 425 l 2,7,8
 450 425 450 425 377 321 c 1,9,-1
 367 321 l 1,10,11
 344 467 344 467 211 520 c 1,12,-1
 213 530 l 1,13,14
 369 583 369 583 454 729 c 1,15,-1
 464 729 l 1,16,17
 494 625 494 625 641 625 c 2,18,-1
 678 625 l 1,19,-1
 733 885 l 1,20,-1
 696 885 l 2,21,22
 549 885 549 885 475 781 c 1,23,-1
 465 781 l 1,24,25
 442 927 442 927 308 980 c 1,26,-1
 310 990 l 1,27,28
 466 1043 466 1043 552 1189 c 1,29,-1
 562 1189 l 1,30,31
 591 1085 591 1085 739 1085 c 2,32,-1
 776 1085 l 1,33,-1
 788 1142 l 2,34,35
 796 1179 796 1179 796 1210 c 0,36,37
 796 1302 796 1302 726 1341 c 1,38,-1
 728 1351 l 1,39,40
 885 1405 885 1405 969 1550 c 1,41,-1
 979 1550 l 1,42,43
 1001 1405 1001 1405 1136 1351 c 1,44,-1
 1134 1341 l 1,45,46
 1019 1287 1019 1287 988 1142 c 2,47,-1
 976 1085 l 1,48,-1
 1013 1085 l 2,49,50
 1161 1085 1161 1085 1234 1189 c 1,51,-1
 1244 1189 l 1,52,53
 1267 1043 1267 1043 1400 990 c 1,54,-1
 1398 980 l 1,55,56
 1242 927 1242 927 1157 781 c 1,57,-1
 1147 781 l 1,58,59
 1117 885 1117 885 970 885 c 2,60,-1
 933 885 l 1,61,-1
 878 625 l 1,62,-1
 915 625 l 2,63,64
 1062 625 1062 625 1136 729 c 1,65,-1
 1146 729 l 1,66,67
 1169 583 1169 583 1303 530 c 1,68,-1
 1301 520 l 1,69,70
 1145 467 1145 467 1059 321 c 1,71,-1
 1049 321 l 1,72,73
 1020 425 1020 425 872 425 c 2,74,-1
 835 425 l 1,75,-1
 823 368 l 2,76,77
 815 331 815 331 815 300 c 0,78,79
 815 208 815 208 885 169 c 1,80,-1
 883 159 l 1,81,82
 726 105 726 105 641 -40 c 1,83,-1
 631 -40 l 1,0,1
EndSplineSet
Validated: 1
EndChar

StartChar: bullet
Encoding: 8226 8226 132
Width: 928
GlyphClass: 2
Flags: W
HStem: 384 740<518.106 730.894>
LayerCount: 2
Fore
SplineSet
703 1124 m 128,-1,1
 855 1124 855 1124 938 1016 c 0,2,3
 998 938 998 938 998 837 c 0,4,5
 998 797 998 797 988 754 c 0,6,7
 956 600 956 600 827 492 c 128,-1,8
 698 384 698 384 546 384 c 128,-1,9
 394 384 394 384 311 492 c 0,10,11
 251 570 251 570 251 671 c 0,12,13
 251 712 251 712 260 754 c 0,14,15
 293 909 293 909 422 1016 c 0,16,0
 551 1124 551 1124 703 1124 c 128,-1,1
EndSplineSet
Validated: 1
EndChar

StartChar: ellipsis
Encoding: 8230 8230 133
Width: 1294
GlyphClass: 2
Flags: W
HStem: -20 370<177.766 356.305 593.766 772.305 1007.77 1186.31>
LayerCount: 2
Fore
SplineSet
1058 -20 m 128,-1,1
 982 -20 982 -20 940 34 c 0,2,3
 911 72 911 72 911 124 c 0,4,5
 911 144 911 144 915 165 c 0,6,7
 931 242 931 242 995.5 296 c 128,-1,8
 1060 350 1060 350 1136 350 c 0,9,10
 1214 350 1214 350 1254 296 c 0,11,12
 1283 257 1283 257 1283 206 c 0,13,14
 1283 186 1283 186 1279 165 c 0,15,16
 1263 88 1263 88 1198.5 34 c 128,-1,0
 1134 -20 1134 -20 1058 -20 c 128,-1,1
644 -20 m 128,-1,18
 568 -20 568 -20 526 34 c 0,19,20
 497 72 497 72 497 124 c 0,21,22
 497 144 497 144 501 165 c 0,23,24
 517 242 517 242 581.5 296 c 128,-1,25
 646 350 646 350 722 350 c 0,26,27
 800 350 800 350 840 296 c 0,28,29
 869 257 869 257 869 206 c 0,30,31
 869 186 869 186 865 165 c 0,32,33
 849 88 849 88 784.5 34 c 128,-1,17
 720 -20 720 -20 644 -20 c 128,-1,18
228 -20 m 128,-1,35
 152 -20 152 -20 110 34 c 0,36,37
 81 72 81 72 81 124 c 0,38,39
 81 144 81 144 85 165 c 0,40,41
 101 242 101 242 165.5 296 c 128,-1,42
 230 350 230 350 306 350 c 0,43,44
 384 350 384 350 424 296 c 0,45,46
 453 257 453 257 453 206 c 0,47,48
 453 186 453 186 449 165 c 0,49,50
 433 88 433 88 368.5 34 c 128,-1,34
 304 -20 304 -20 228 -20 c 128,-1,35
EndSplineSet
Validated: 1
EndChar

StartChar: perthousand
Encoding: 8240 8240 134
Width: 2499
GlyphClass: 2
Flags: W
HStem: -20 115<1204.02 1379.67 1975.02 2150.67> 583 115<1293.34 1471.66 2064.34 2242.66> 812 115<577.02 752.672> 1415 115<666.336 844.655>
VStem: 339 218<942.71 1272> 865 218<1075.06 1399.37> 966 218<110.71 439.996> 1492 218<243.056 567.369> 1737 218<110.71 439.996> 2263 218<243.056 567.369>
DStem2: 317 77 499 -40 0.642064 0.766651<27.1574 1920.3>
LayerCount: 2
Fore
SplineSet
2033 -20 m 128,-1,1
 1897 -20 1897 -20 1811 66 c 0,2,3
 1737 140 1737 140 1737 253 c 0,4,5
 1737 301 1737 301 1745 339 c 0,6,7
 1785 512 1785 512 1927 612 c 0,8,9
 2049 698 2049 698 2185 698 c 128,-1,10
 2321 698 2321 698 2407 612 c 0,11,12
 2481 538 2481 538 2481 426 c 0,13,14
 2481 382 2481 382 2471 338 c 0,15,16
 2435 168 2435 168 2291 66 c 0,17,0
 2169 -20 2169 -20 2033 -20 c 128,-1,1
2053 95 m 128,-1,19
 2118 95 2118 95 2173 162 c 0,20,21
 2223 222 2223 222 2249 341 c 0,22,23
 2263 405 2263 405 2263 452 c 0,24,25
 2263 489 2263 489 2253 517 c 0,26,27
 2231 583 2231 583 2165 583 c 0,28,29
 2098 583 2098 583 2043 516 c 0,30,31
 1994 456 1994 456 1969 339 c 0,32,33
 1955 273 1955 273 1955 224 c 0,34,35
 1955 187 1955 187 1965 160 c 0,36,18
 1988 95 1988 95 2053 95 c 128,-1,19
787 1530 m 128,-1,38
 923 1530 923 1530 1009 1444 c 0,39,40
 1083 1370 1083 1370 1083 1258 c 0,41,42
 1083 1214 1083 1214 1073 1170 c 0,43,44
 1037 1000 1037 1000 893 898 c 0,45,46
 771 812 771 812 635 812 c 128,-1,47
 499 812 499 812 413 898 c 0,48,49
 339 972 339 972 339 1085 c 0,50,51
 339 1133 339 1133 347 1171 c 0,52,53
 387 1344 387 1344 529 1444 c 0,54,37
 651 1530 651 1530 787 1530 c 128,-1,38
767 1415 m 0,55,56
 700 1415 700 1415 645 1348 c 0,57,58
 596 1288 596 1288 571 1171 c 0,59,60
 557 1105 557 1105 557 1056 c 0,61,62
 557 1019 557 1019 567 992 c 0,63,64
 590 927 590 927 655 927 c 128,-1,65
 720 927 720 927 775 994 c 0,66,67
 825 1054 825 1054 851 1173 c 0,68,69
 865 1237 865 1237 865 1284 c 0,70,71
 865 1321 865 1321 855 1349 c 0,72,73
 833 1415 833 1415 767 1415 c 0,55,56
1262 -20 m 128,-1,75
 1126 -20 1126 -20 1040 66 c 0,76,77
 966 140 966 140 966 253 c 0,78,79
 966 301 966 301 974 339 c 0,80,81
 1014 512 1014 512 1156 612 c 0,82,83
 1278 698 1278 698 1414 698 c 128,-1,84
 1550 698 1550 698 1636 612 c 0,85,86
 1710 538 1710 538 1710 426 c 0,87,88
 1710 382 1710 382 1700 338 c 0,89,90
 1664 168 1664 168 1520 66 c 0,91,74
 1398 -20 1398 -20 1262 -20 c 128,-1,75
1282 95 m 128,-1,93
 1347 95 1347 95 1402 162 c 0,94,95
 1452 222 1452 222 1478 341 c 0,96,97
 1492 405 1492 405 1492 452 c 0,98,99
 1492 489 1492 489 1482 517 c 0,100,101
 1460 583 1460 583 1394 583 c 0,102,103
 1327 583 1327 583 1272 516 c 0,104,105
 1223 456 1223 456 1198 339 c 0,106,107
 1184 273 1184 273 1184 224 c 0,108,109
 1184 187 1184 187 1194 160 c 0,110,92
 1217 95 1217 95 1282 95 c 128,-1,93
499 -40 m 1,111,-1
 317 77 l 1,112,-1
 1549 1550 l 1,113,-1
 1741 1443 l 1,114,-1
 499 -40 l 1,111,-1
EndSplineSet
Validated: 1
EndChar

StartChar: minute
Encoding: 8242 8242 135
Width: 425
GlyphClass: 2
Flags: W
HStem: 1150 420
VStem: 308 384
LayerCount: 2
Fore
SplineSet
492 1570 m 1,0,-1
 692 1491 l 1,1,-1
 463 1150 l 1,2,-1
 308 1212 l 1,3,-1
 492 1570 l 1,0,-1
EndSplineSet
Validated: 1
EndChar

StartChar: second
Encoding: 8243 8243 136
Width: 744
GlyphClass: 2
Flags: W
HStem: 1150 420
LayerCount: 2
Fore
SplineSet
811 1570 m 1,0,-1
 1011 1491 l 1,1,-1
 782 1150 l 1,2,-1
 627 1212 l 1,3,-1
 811 1570 l 1,0,-1
492 1570 m 1,4,-1
 692 1491 l 1,5,-1
 463 1150 l 1,6,-1
 308 1212 l 1,7,-1
 492 1570 l 1,4,-1
EndSplineSet
Validated: 1
EndChar

StartChar: guilsinglleft
Encoding: 8249 8249 137
Width: 790
GlyphClass: 2
Flags: W
VStem: 253 646
DStem2: 468 784 253 720 0.441968 -0.897031<0 552.326> 253 720 468 784 0.659438 0.751759<189.892 834.044>
LayerCount: 2
Fore
SplineSet
803 1347 m 1,0,-1
 899 1277 l 1,1,-1
 468 784 l 1,2,-1
 711 288 l 1,3,-1
 523 172 l 1,4,-1
 253 720 l 1,5,-1
 803 1347 l 1,0,-1
EndSplineSet
Validated: 1
EndChar

StartChar: guilsinglright
Encoding: 8250 8250 138
Width: 790
GlyphClass: 2
Flags: W
VStem: 214 646
DStem2: 214 242 310 172 0.659438 0.751759<10.6829 654.835> 590 1347 402 1231 0.441968 -0.897031<20.9656 573.291>
LayerCount: 2
Fore
SplineSet
590 1347 m 1,0,-1
 860 799 l 1,1,-1
 310 172 l 1,2,-1
 214 242 l 1,3,-1
 645 735 l 1,4,-1
 402 1231 l 1,5,-1
 590 1347 l 1,0,-1
EndSplineSet
Validated: 1
EndChar

StartChar: fraction
Encoding: 8260 8260 139
Width: 1153
GlyphClass: 2
Flags: W
DStem2: 26 77 208 -40 0.642064 0.766651<27.1574 1920.3>
LayerCount: 2
Fore
SplineSet
208 -40 m 1,0,-1
 26 77 l 1,1,-1
 1258 1550 l 1,2,-1
 1450 1443 l 1,3,-1
 208 -40 l 1,0,-1
EndSplineSet
Validated: 1
EndChar

StartChar: Euro
Encoding: 8364 8364 140
Width: 1608
GlyphClass: 2
Flags: W
HStem: -20 122<832.691 1205.46> 594 121<242 315 683 1148> 792 121<284 345 735 1190> 1408 122<1096.73 1469.03>
VStem: 314 351<322.018 594> 1671 15<931 960.347> 1797 16<1515.29 1530>
LayerCount: 2
Fore
SplineSet
146 594 m 1,0,-1
 242 715 l 1,1,-1
 329 715 l 1,2,3
 332 735 332 735 336 755 c 0,4,5
 340 774 340 774 345 792 c 1,6,-1
 188 792 l 1,7,-1
 284 913 l 1,8,-1
 382 913 l 1,9,10
 461 1125 461 1125 622 1273 c 0,11,12
 901 1530 901 1530 1263 1530 c 0,13,14
 1427 1530 1427 1530 1531 1470 c 0,15,16
 1597 1432 1597 1432 1659 1432 c 0,17,18
 1756 1432 1756 1432 1797 1530 c 1,19,-1
 1813 1530 l 1,20,-1
 1686 931 l 1,21,-1
 1671 931 l 1,22,23
 1636 1408 1636 1408 1287 1408 c 0,24,25
 1056 1408 1056 1408 881 1183 c 0,26,27
 789 1064 789 1064 735 913 c 1,28,-1
 1282 913 l 1,29,-1
 1190 792 l 1,30,-1
 699 792 l 1,31,32
 694 774 694 774 690 755 c 0,33,34
 686 735 686 735 683 715 c 1,35,-1
 1240 715 l 1,36,-1
 1148 594 l 1,37,-1
 667 594 l 1,38,39
 665 563 665 563 665 533 c 0,40,41
 665 414 665 414 697 322 c 0,42,43
 775 102 775 102 1010 102 c 0,44,45
 1176 102 1176 102 1317 195 c 0,46,47
 1451 283 1451 283 1578 424 c 1,48,-1
 1539 241 l 1,49,50
 1285 -20 1285 -20 934 -20 c 0,51,52
 621 -20 621 -20 462 157 c 0,53,54
 314 322 314 322 314 560 c 0,55,56
 314 577 314 577 315 594 c 1,57,-1
 146 594 l 1,0,-1
EndSplineSet
Validated: 1
EndChar

StartChar: afii61248
Encoding: 8453 8453 141
Width: 1814
GlyphClass: 2
Flags: W
HStem: -20 70<1286.36 1439.44> 693 71<1409.1 1560.68> 746 70<607.496 838.375> 1459 71<739.502 965.503>
VStem: 331 212<876.412 1236.97> 1039 15<1220 1248.94> 1041 208<101.755 472.513> 1105 15<1517.19 1530> 1597 208<274.557 648.679>
DStem2: 365 77 547 -40 0.642064 0.766651<27.1574 1920.3>
LayerCount: 2
Fore
SplineSet
1494 693 m 0,0,1
 1438 693 1438 693 1386 638 c 0,2,3
 1306 555 1306 555 1267 373 c 0,4,5
 1249 287 1249 287 1249 223 c 0,6,7
 1249 150 1249 150 1272 105 c 0,8,9
 1300 50 1300 50 1358 50 c 128,-1,10
 1416 50 1416 50 1470 115 c 0,11,12
 1542 201 1542 201 1579 372 c 0,13,14
 1597 457 1597 457 1597 521 c 128,-1,15
 1597 585 1597 585 1579 628 c 0,16,17
 1552 693 1552 693 1494 693 c 0,0,1
1508 764 m 128,-1,19
 1663 764 1663 764 1737 680 c 0,20,21
 1805 601 1805 601 1805 481 c 0,22,23
 1805 429 1805 429 1792 369 c 0,24,25
 1750 171 1750 171 1606 64 c 0,26,27
 1492 -20 1492 -20 1339 -20 c 0,28,29
 1184 -20 1184 -20 1110 64 c 0,30,31
 1041 141 1041 141 1041 262 c 0,32,33
 1041 314 1041 314 1054 373 c 0,34,35
 1097 573 1097 573 1241 680 c 0,36,18
 1353 764 1353 764 1508 764 c 128,-1,19
547 -40 m 1,37,-1
 365 77 l 1,38,-1
 1597 1550 l 1,39,-1
 1789 1443 l 1,40,-1
 547 -40 l 1,37,-1
825 1530 m 0,41,42
 918 1530 918 1530 966 1505.5 c 128,-1,43
 1014 1481 1014 1481 1031 1481 c 0,44,45
 1081 1481 1081 1481 1105 1530 c 1,46,-1
 1120 1530 l 1,47,-1
 1054 1220 l 1,48,-1
 1039 1220 l 1,49,50
 1022 1459 1022 1459 870 1459 c 0,51,52
 746 1459 746 1459 655 1353 c 0,53,54
 586 1273 586 1273 556 1134 c 0,55,56
 543 1073 543 1073 543 1023 c 0,57,58
 543 960 543 960 563 912 c 0,59,60
 603 816 603 816 713 816 c 0,61,62
 803 816 803 816 877 876 c 0,63,64
 950 935 950 935 1011 1017 c 1,65,-1
 982 880 l 1,66,67
 850 746 850 746 669 746 c 0,68,69
 482 746 482 746 404 837 c 0,70,71
 331 922 331 922 331 1042 c 0,72,73
 331 1081 331 1081 339 1124 c 0,74,75
 369 1292 369 1292 484 1398 c 0,76,77
 628 1530 628 1530 825 1530 c 0,41,42
EndSplineSet
Validated: 1
EndChar

StartChar: afii61289
Encoding: 8467 8467 142
Width: 1217
GlyphClass: 2
Flags: W
HStem: -20 236<622 790.645> 1510 20G<1119.5 1217>
LayerCount: 2
Fore
SplineSet
676 -20 m 0,0,1
 568 -20 568 -20 500 44 c 1,2,-1
 464 3 l 1,3,-1
 100 3 l 1,4,5
 304 172 304 172 434 325 c 1,6,7
 443 420 443 420 465 524 c 0,8,9
 499 686 499 686 585 865 c 0,10,11
 763 1240 763 1240 953 1423 c 0,12,13
 1064 1530 1064 1530 1175 1530 c 0,14,15
 1259 1530 1259 1530 1299 1480 c 0,16,17
 1331 1439 1331 1439 1331 1371 c 0,18,19
 1331 1331 1331 1331 1320 1281 c 0,20,21
 1300 1186 1300 1186 1240 1041 c 0,22,23
 1095 688 1095 688 724 272 c 1,24,25
 721 254 721 254 721 242 c 0,26,27
 721 216 721 216 735 216 c 0,28,29
 756 216 756 216 790 260 c 0,30,31
 811 286 811 286 829 319 c 1,32,-1
 1145 319 l 1,33,34
 1015 144 1015 144 900.5 62 c 128,-1,35
 786 -20 786 -20 676 -20 c 0,0,1
EndSplineSet
Validated: 1
EndChar

StartChar: trademark
Encoding: 8482 8482 143
Width: 1958
GlyphClass: 2
Flags: W
HStem: 765 15<433 454.391 1968.99 1981> 1459 71<484 654 855.766 1028.03>
DStem2: 510.117 745 710.117 745 0.207912 0.978148<161.335 709.176> 1000 896 1106 895 0.341974 0.939709<-3.81026 316.222> 1481 1014 1714 1150 0.642152 0.766578<0 253.876>
LayerCount: 2
Fore
SplineSet
865 765 m 1,0,-1
 868 780 l 1,1,2
 971 814 971 814 1000 896 c 2,3,-1
 1238 1550 l 1,4,-1
 1248 1550 l 1,5,-1
 1481 1014 l 1,6,-1
 1930 1550 l 1,7,-1
 1940 1550 l 1,8,-1
 1900 896 l 2,9,10
 1900 892 1900 892 1900 888 c 0,11,12
 1900 814 1900 814 1984 780 c 1,13,-1
 1981 765 l 1,14,-1
 1581 765 l 1,15,-1
 1584 780 l 1,16,17
 1682 811 1682 811 1696 876 c 0,18,19
 1697 882 1697 882 1698 895 c 2,20,-1
 1714 1150 l 1,21,-1
 1378 745 l 1,22,-1
 1368 745 l 1,23,-1
 1202 1159 l 1,24,-1
 1106 895 l 2,25,26
 1101 882 1101 882 1100 875 c 0,27,28
 1098 865 1098 865 1098 856 c 0,29,30
 1098 805 1098 805 1164 780 c 1,31,-1
 1161 765 l 1,32,-1
 865 765 l 1,0,-1
484 1530 m 1,33,-1
 1070 1530 l 1,34,-1
 1137 1343 l 1,35,-1
 1122 1343 l 1,36,37
 1031 1459 1031 1459 884 1459 c 2,38,-1
 871 1459 l 1,39,40
 856 1433 856 1433 850 1400 c 2,41,-1
 742 895 l 2,42,43
 738 877 738 877 738 861 c 0,44,45
 738 798 738 798 803 780 c 1,46,-1
 800 765 l 1,47,-1
 430 765 l 1,48,-1
 433 780 l 1,49,50
 523 803 523 803 542 895 c 2,51,-1
 650 1400 l 2,52,53
 654 1422 654 1422 654 1440 c 0,54,55
 654 1450 654 1450 653 1459 c 1,56,-1
 640 1459 l 2,57,58
 492 1459 492 1459 351 1343 c 1,59,-1
 336 1343 l 1,60,-1
 484 1530 l 1,33,-1
EndSplineSet
Validated: 1
EndChar

StartChar: uni2126
Encoding: 8486 8486 144
Width: 1760
GlyphClass: 2
Flags: W
HStem: 0 21G<206.151 767.227 997 1563.34> 1408 122<1031.36 1308.77>
VStem: 324 338<402.474 828.333> 1422 343<695.754 1220.6>
LayerCount: 2
Fore
SplineSet
763 0 m 1,0,-1
 213 0 l 1,1,-1
 88 365 l 1,2,-1
 103 365 l 1,3,4
 282 160 282 160 615 130 c 1,5,-1
 617 139 l 1,6,7
 324 322 324 322 324 614 c 0,8,9
 324 681 324 681 340 755 c 0,10,11
 424 1151 424 1151 713 1368 c 0,12,13
 928 1530 928 1530 1196 1530 c 0,14,15
 1483 1530 1483 1530 1629 1368 c 0,16,17
 1765 1217 1765 1217 1765 979 c 0,18,19
 1765 875 1765 875 1739 755 c 0,20,21
 1657 369 1657 369 1203 139 c 1,22,-1
 1201 130 l 1,23,24
 1530 163 1530 163 1813 365 c 1,25,-1
 1828 365 l 1,26,-1
 1548 0 l 1,27,-1
 997 0 l 1,28,-1
 1038 193 l 1,29,30
 1313 386 1313 386 1391 752 c 0,31,32
 1422 915 1422 915 1422 1039 c 0,33,34
 1422 1197 1422 1197 1371 1290 c 0,35,36
 1306 1408 1306 1408 1179 1408 c 128,-1,37
 1052 1408 1052 1408 938 1290 c 0,38,39
 763 1106 763 1106 688 754 c 0,40,41
 662 634 662 634 662 535 c 0,42,43
 662 304 662 304 804 194 c 1,44,-1
 763 0 l 1,0,-1
EndSplineSet
Validated: 1
EndChar

StartChar: estimated
Encoding: 8494 8494 145
Width: 1260
GlyphClass: 2
Flags: W
HStem: -20 183<493.071 853.178> 491 189<547 999> 935 185<638.618 997.502>
LayerCount: 2
Fore
SplineSet
624 -20 m 0,0,1
 373 -20 373 -20 254 145 c 0,2,3
 171 260 171 260 171 412 c 0,4,5
 171 479 171 479 187 553 c 0,6,7
 240 802 240 802 429 960 c 0,8,9
 621 1120 621 1120 863 1120 c 0,10,11
 1106 1120 1106 1120 1223 974 c 0,12,13
 1315 858 1315 858 1315 679 c 0,14,15
 1315 593 1315 593 1294 491 c 1,16,-1
 506 491 l 1,17,-1
 453 239 l 1,18,19
 532 163 532 163 663 163 c 0,20,21
 871 163 871 163 1029 351 c 1,22,-1
 1172 255 l 1,23,24
 1012 85 1012 85 882 32.5 c 128,-1,25
 752 -20 752 -20 624 -20 c 0,0,1
999 680 m 1,26,-1
 1037 862 l 1,27,28
 955 935 955 935 825 935 c 0,29,30
 693 935 693 935 585 861 c 1,31,-1
 547 680 l 1,32,-1
 999 680 l 1,26,-1
EndSplineSet
Validated: 1
EndChar

StartChar: partialdiff
Encoding: 8706 8706 146
Width: 1305
GlyphClass: 2
Flags: W
HStem: -20 273<508.171 720.08> 823 260<732.537 975.899> 1257 273<771.982 1076.06>
VStem: 173 317<275.435 519.417> 1120 310<1024.77 1213.04>
LayerCount: 2
Fore
SplineSet
518 -20 m 0,0,1
 248 -20 248 -20 189 171 c 0,2,3
 173 223 173 223 173 285 c 0,4,5
 173 345 173 345 188 416 c 0,6,7
 243 673 243 673 440.5 878 c 128,-1,8
 638 1083 638 1083 910 1083 c 0,9,10
 1029 1083 1029 1083 1114 1024 c 1,11,12
 1120 1059 1120 1059 1120 1089 c 0,13,14
 1120 1138 1120 1138 1104 1173 c 0,15,16
 1065 1257 1065 1257 943 1257 c 0,17,18
 788 1257 788 1257 611 1132 c 1,19,-1
 677 1443 l 1,20,21
 841 1530 841 1530 1038 1530 c 0,22,23
 1355 1530 1355 1530 1416 1271 c 0,24,25
 1430 1213 1430 1213 1430 1145 c 0,26,27
 1430 1057 1430 1057 1407 950 c 0,28,29
 1325 563 1325 563 1080 272 c 0,30,31
 837 -20 837 -20 518 -20 c 0,0,1
1018 699 m 1,32,33
 1009 756 1009 756 972 788 c 0,34,35
 932 823 932 823 865 823 c 0,36,37
 756 823 756 823 650 706 c 0,38,39
 525 567 525 567 497 431 c 0,40,41
 490 396 490 396 490 367 c 0,42,43
 490 324 490 324 506 295 c 0,44,45
 529 253 529 253 589 253 c 0,46,47
 696 253 696 253 817 376 c 128,-1,48
 938 499 938 499 1018 699 c 1,32,33
EndSplineSet
Validated: 1
EndChar

StartChar: uni2206
Encoding: 8710 8710 147
Width: 1820
GlyphClass: 2
Flags: W
HStem: 0 120<372 1308> 0 15<13 38.1843 1787.75 1807>
DStem2: 316 250 372 120 0.583558 0.812071<-72.89 1100.4> 1253 1540 1055 1074 0.266719 -0.963774<396.308 1383.23>
LayerCount: 2
Fore
SplineSet
10 0 m 1,0,-1
 13 15 l 1,1,2
 175 57 175 57 316 250 c 2,3,-1
 1243 1540 l 1,4,-1
 1253 1540 l 1,5,-1
 1610 250 l 2,6,7
 1664 53 1664 53 1810 15 c 1,8,-1
 1807 0 l 1,9,-1
 10 0 l 1,0,-1
372 120 m 1,10,-1
 1308 120 l 1,11,-1
 1055 1074 l 1,12,-1
 372 120 l 1,10,-1
EndSplineSet
Validated: 1
EndChar

StartChar: product
Encoding: 8719 8719 148
Width: 1527
GlyphClass: 2
Flags: W
HStem: -410 15<-74 -52.0469 566.781 583 773 794.953 1413.78 1430> 1380 130<793 1320> 1495 15<331 347.219 1813.05 1835>
DStem2: 92.8609 -410 412.861 -410 0.207912 0.978148<251.985 1777.48> 939.861 -410 1259.86 -410 0.207912 0.978148<251.985 1826.26>
LayerCount: 2
Fore
SplineSet
-77 -410 m 1,0,-1
 -74 -395 l 1,1,2
 106 -350 106 -350 146 -160 c 2,3,-1
 448 1260 l 2,4,5
 456 1299 456 1299 456 1331 c 0,6,7
 456 1459 456 1459 328 1495 c 1,8,-1
 331 1510 l 1,9,-1
 1838 1510 l 1,10,-1
 1835 1495 l 1,11,12
 1655 1450 1655 1450 1615 1260 c 2,13,-1
 1313 -160 l 2,14,15
 1305 -199 1305 -199 1305 -231 c 0,16,17
 1305 -359 1305 -359 1433 -395 c 1,18,-1
 1430 -410 l 1,19,-1
 770 -410 l 1,20,-1
 773 -395 l 1,21,22
 953 -350 953 -350 993 -160 c 2,23,-1
 1320 1380 l 1,24,-1
 793 1380 l 1,25,-1
 466 -160 l 2,26,27
 458 -199 458 -199 458 -231 c 0,28,29
 458 -359 458 -359 586 -395 c 1,30,-1
 583 -410 l 1,31,-1
 -77 -410 l 1,0,-1
EndSplineSet
Validated: 1
EndChar

StartChar: summation
Encoding: 8721 8721 149
Width: 1392
GlyphClass: 2
Flags: W
HStem: -410 121<442.012 1010.88> 1389 121<739.76 1217.8>
DStem2: -75 -400 476 -149 0.618159 0.786053<443.294 1179.31> 992 499 654 527 0.316813 -0.948488<-823.56 -133.64>
LayerCount: 2
Fore
SplineSet
-77 -410 m 1,0,-1
 -75 -400 l 1,1,-1
 654 527 l 1,2,-1
 329 1500 l 1,3,-1
 331 1510 l 1,4,-1
 1369 1510 l 1,5,-1
 1499 1160 l 1,6,-1
 1484 1160 l 1,7,8
 1262 1389 1262 1389 988 1389 c 2,9,-1
 769 1389 l 1,10,11
 738 1353 738 1353 730 1314 c 0,12,13
 726 1295 726 1295 726 1279 c 0,14,15
 726 1261 726 1261 731 1248 c 2,16,-1
 992 499 l 1,17,-1
 476 -149 l 2,18,19
 453 -178 453 -178 445 -218 c 0,20,21
 442 -231 442 -231 442 -243 c 0,22,23
 442 -268 442 -268 454 -289 c 1,24,-1
 758 -289 l 2,25,26
 1040 -289 1040 -289 1354 -60 c 1,27,-1
 1369 -60 l 1,28,-1
 1091 -410 l 1,29,-1
 -77 -410 l 1,0,-1
EndSplineSet
Validated: 1
EndChar

StartChar: minus
Encoding: 8722 8722 150
Width: 1273
GlyphClass: 2
Flags: W
HStem: 649 211<402 1192>
LayerCount: 2
Fore
SplineSet
402 860 m 1,0,-1
 1356 860 l 1,1,-1
 1192 649 l 1,2,-1
 238 649 l 1,3,-1
 402 860 l 1,0,-1
EndSplineSet
Validated: 1
EndChar

StartChar: uni2215
Encoding: 8725 8725 151
Width: 1153
GlyphClass: 2
Flags: W
DStem2: 26 77 208 -40 0.642064 0.766651<27.1574 1920.3>
LayerCount: 2
Fore
SplineSet
208 -40 m 1,0,-1
 26 77 l 1,1,-1
 1258 1550 l 1,2,-1
 1450 1443 l 1,3,-1
 208 -40 l 1,0,-1
EndSplineSet
Validated: 1
EndChar

StartChar: uni2219
Encoding: 8729 8729 152
Width: 464
GlyphClass: 2
Flags: W
HStem: 569 370<303.766 482.305>
VStem: 207 372<664.783 843>
LayerCount: 2
Fore
SplineSet
432 939 m 0,0,1
 510 939 510 939 550 885 c 0,2,3
 579 846 579 846 579 795 c 0,4,5
 579 775 579 775 575 754 c 0,6,7
 559 677 559 677 494.5 623 c 128,-1,8
 430 569 430 569 354 569 c 128,-1,9
 278 569 278 569 236 623 c 0,10,11
 207 661 207 661 207 713 c 0,12,13
 207 733 207 733 211 754 c 0,14,15
 227 831 227 831 291.5 885 c 128,-1,16
 356 939 356 939 432 939 c 0,0,1
EndSplineSet
Validated: 1
EndChar

StartChar: radical
Encoding: 8730 8730 153
Width: 1425
GlyphClass: 2
Flags: W
HStem: 725 121<190 352> 1550 121<1569 1744>
DStem2: 697 464 503 -40 0.556868 0.830601<0 1387.62>
LayerCount: 2
Fore
SplineSet
503 -40 m 1,0,-1
 493 -40 l 1,1,-1
 352 725 l 1,2,-1
 164 725 l 1,3,-1
 190 846 l 1,4,-1
 626 846 l 1,5,-1
 697 464 l 1,6,-1
 1507 1671 l 1,7,-1
 1770 1671 l 1,8,-1
 1744 1550 l 1,9,-1
 1569 1550 l 1,10,-1
 503 -40 l 1,0,-1
EndSplineSet
Validated: 1
EndChar

StartChar: infinity
Encoding: 8734 8734 154
Width: 1678
GlyphClass: 2
Flags: W
HStem: 346 209<458.073 699.267> 346 121<1125.43 1411.44> 954 209<1299.73 1540.11> 1042 121<586.984 875.425>
VStem: 250 175<589.966 861.672> 1574 175<647.328 918.593>
DStem2: 801 711 1093 643 0.560848 0.827919<-167.419 462.104>
LayerCount: 2
Fore
SplineSet
1384 1163 m 0,0,1
 1594 1163 1594 1163 1684 1045 c 0,2,3
 1749 960 1749 960 1749 848 c 0,4,5
 1749 802 1749 802 1738 751 c 0,6,7
 1703 584 1703 584 1574 472 c 0,8,9
 1430 346 1430 346 1237 346 c 0,10,11
 1092 346 1092 346 995 420 c 1,12,-1
 1104 532 l 1,13,14
 1158 467 1158 467 1252 467 c 0,15,16
 1370 467 1370 467 1450 541 c 0,17,18
 1541 625 1541 625 1568 751 c 0,19,20
 1574 780 1574 780 1574 806 c 0,21,22
 1574 854 1574 854 1553 891 c 0,23,24
 1517 954 1517 954 1425 954 c 0,25,26
 1303 954 1303 954 1198 798 c 2,27,-1
 1093 643 l 2,28,29
 892 346 892 346 615 346 c 0,30,31
 404 346 404 346 314 464 c 0,32,33
 250 548 250 548 250 661 c 0,34,35
 250 707 250 707 261 758 c 0,36,37
 296 925 296 925 424 1037 c 0,38,39
 568 1163 568 1163 762 1163 c 0,40,41
 907 1163 907 1163 1003 1089 c 1,42,-1
 895 977 l 1,43,44
 841 1042 841 1042 746 1042 c 0,45,46
 628 1042 628 1042 549 968 c 0,47,48
 458 884 458 884 431 758 c 0,49,50
 425 728 425 728 425 702 c 0,51,52
 425 655 425 655 445 618 c 0,53,54
 481 555 481 555 574 555 c 0,55,56
 696 555 696 555 801 711 c 2,57,-1
 906 866 l 2,58,59
 1107 1163 1107 1163 1384 1163 c 0,0,1
EndSplineSet
Validated: 1
EndChar

StartChar: approxequal
Encoding: 8776 8776 155
Width: 1215
GlyphClass: 2
Flags: W
HStem: 376 181<856.041 1070.02> 538 181<375.078 593.519> 774 181<938.977 1153.02> 936 181<457.648 677.023>
VStem: 187 20<402 411.829> 270 20<800 809.829>
DStem2: 901 580 549 515 0.900825 -0.434182<-377.354 89.3862> 984 978 632 913 0.900056 -0.435774<-378.205 89.7101>
LayerCount: 2
Fore
SplineSet
547 719 m 0,0,1
 614 719 614 719 680 687 c 2,2,-1
 901 580 l 2,3,4
 948 557 948 557 1001 557 c 0,5,6
 1156 557 1156 557 1243 693 c 1,7,-1
 1262 693 l 1,8,9
 1151 376 1151 376 904 376 c 0,10,11
 837 376 837 376 771 408 c 2,12,-1
 549 515 l 2,13,14
 502 538 502 538 448 538 c 0,15,16
 294 538 294 538 207 402 c 1,17,-1
 187 402 l 1,18,19
 288 719 288 719 547 719 c 0,0,1
629 1117 m 0,20,21
 696 1117 696 1117 763 1085 c 2,22,-1
 984 978 l 2,23,24
 1031 955 1031 955 1084 955 c 0,25,26
 1239 955 1239 955 1326 1091 c 1,27,-1
 1345 1091 l 1,28,29
 1234 774 1234 774 987 774 c 0,30,31
 920 774 920 774 853 806 c 2,32,-1
 632 913 l 2,33,34
 585 936 585 936 531 936 c 0,35,36
 377 936 377 936 290 800 c 1,37,-1
 270 800 l 1,38,39
 370 1117 370 1117 629 1117 c 0,20,21
EndSplineSet
Validated: 1
EndChar

StartChar: notequal
Encoding: 8800 8800 156
Width: 1273
GlyphClass: 2
Flags: W
HStem: 444 211<358 480 626 647 793 1148> 854 211<445 805 951 971 1117 1236>
VStem: 264 146<170 316> 1183 146<1187 1333>
DStem2: 264 170 410 170 0.619994 0.784606<90.5192 348.901 708.511 872.088 1231.08 1482.27>
LayerCount: 2
Fore
SplineSet
1183 1333 m 1,0,-1
 1329 1333 l 1,1,-1
 1117 1065 l 1,2,-1
 1399 1065 l 1,3,-1
 1236 854 l 1,4,-1
 951 854 l 1,5,-1
 793 655 l 1,6,-1
 1312 655 l 1,7,-1
 1148 444 l 1,8,-1
 626 444 l 1,9,-1
 410 170 l 1,10,-1
 264 170 l 1,11,-1
 480 444 l 1,12,-1
 194 444 l 1,13,-1
 358 655 l 1,14,-1
 647 655 l 1,15,-1
 805 854 l 1,16,-1
 282 854 l 1,17,-1
 445 1065 l 1,18,-1
 971 1065 l 1,19,-1
 1183 1333 l 1,0,-1
EndSplineSet
Validated: 1
EndChar

StartChar: lessequal
Encoding: 8804 8804 157
Width: 1273
GlyphClass: 2
Flags: W
HStem: 174 211<301 1091>
DStem2: 702 930 299 893 0.852171 -0.523263<0 612.367> 303 908 702 930 0.892878 0.450299<366.165 1146.56>
LayerCount: 2
Fore
SplineSet
1344 1433 m 1,0,-1
 1399 1281 l 1,1,-1
 702 930 l 1,2,-1
 1246 593 l 1,3,-1
 1097 403 l 1,4,-1
 299 893 l 1,5,-1
 303 908 l 1,6,-1
 1344 1433 l 1,0,-1
301 385 m 1,7,-1
 1255 385 l 1,8,-1
 1091 174 l 1,9,-1
 137 174 l 1,10,-1
 301 385 l 1,7,-1
EndSplineSet
Validated: 1
EndChar

StartChar: greaterequal
Encoding: 8805 8805 158
Width: 1273
GlyphClass: 2
Flags: W
HStem: 174 211<301 1091>
DStem2: 267 555 322 403 0.892878 0.450299<0 780.391> 569 1433 420 1243 0.852171 -0.523263<0 612.367>
LayerCount: 2
Fore
SplineSet
569 1433 m 1,0,-1
 1367 943 l 1,1,-1
 1363 928 l 1,2,-1
 322 403 l 1,3,-1
 267 555 l 1,4,-1
 964 906 l 1,5,-1
 420 1243 l 1,6,-1
 569 1433 l 1,0,-1
301 385 m 1,7,-1
 1255 385 l 1,8,-1
 1091 174 l 1,9,-1
 137 174 l 1,10,-1
 301 385 l 1,7,-1
EndSplineSet
Validated: 1
EndChar

StartChar: lozenge
Encoding: 9674 9674 159
Width: 1179
GlyphClass: 2
Flags: W
HStem: -20 21G<575.29 603.16> 1510 20G<896.399 923.176>
DStem2: 217 738 476 858 0.660649 0.750695<261.192 680.66> 476 858 217 738 0.436739 -0.899588<0 597.967> 737 320 585 -20 0.672237 0.740336<0 412.285> 914 1530 753 1173 0.417012 -0.908901<257.339 858.953>
LayerCount: 2
Fore
SplineSet
737 320 m 1,0,-1
 1010 629 l 1,1,-1
 753 1173 l 1,2,-1
 476 858 l 1,3,-1
 737 320 l 1,0,-1
585 -20 m 1,4,-1
 217 738 l 1,5,-1
 914 1530 l 1,6,-1
 1276 741 l 1,7,-1
 585 -20 l 1,4,-1
EndSplineSet
Validated: 1
EndChar

StartChar: multiply
Encoding: 215 215 160
Width: 1187
Flags: W
DStem2: 236 450 455 385 0.771385 0.636369<127.569 473.53 712.402 1059.13> 612 1124 365 1059 0.61885 -0.785509<0 279.873 475.753 756.245>
LayerCount: 2
Fore
SplineSet
612 1124 m 1,0,-1
 785 904 l 1,1,-1
 1053 1124 l 1,2,-1
 1272 1059 l 1,3,-1
 903 754 l 1,4,-1
 1143 450 l 1,5,-1
 896 385 l 1,6,-1
 722 605 l 1,7,-1
 455 385 l 1,8,-1
 236 450 l 1,9,-1
 604 754 l 1,10,-1
 365 1059 l 1,11,-1
 612 1124 l 1,0,-1
EndSplineSet
Validated: 1
EndChar

StartChar: divide
Encoding: 247 247 161
Width: 1273
Flags: W
HStem: 151 370<618.766 797.305> 649 211<402 1192> 988 370<797.766 976.305>
CounterMasks: 1 e0
LayerCount: 2
Fore
SplineSet
926 1358 m 0,0,1
 1004 1358 1004 1358 1044 1304 c 0,2,3
 1073 1265 1073 1265 1073 1214 c 0,4,5
 1073 1194 1073 1194 1069 1173 c 0,6,7
 1053 1096 1053 1096 988.5 1042 c 128,-1,8
 924 988 924 988 848 988 c 128,-1,9
 772 988 772 988 730 1042 c 0,10,11
 701 1080 701 1080 701 1132 c 0,12,13
 701 1152 701 1152 705 1173 c 0,14,15
 721 1250 721 1250 785.5 1304 c 128,-1,16
 850 1358 850 1358 926 1358 c 0,0,1
669 151 m 128,-1,18
 593 151 593 151 551 205 c 0,19,20
 522 243 522 243 522 295 c 0,21,22
 522 315 522 315 526 336 c 0,23,24
 542 413 542 413 606.5 467 c 128,-1,25
 671 521 671 521 747 521 c 0,26,27
 825 521 825 521 865 467 c 0,28,29
 894 428 894 428 894 377 c 0,30,31
 894 357 894 357 890 336 c 0,32,33
 874 259 874 259 809.5 205 c 128,-1,17
 745 151 745 151 669 151 c 128,-1,18
402 860 m 1,34,-1
 1356 860 l 1,35,-1
 1192 649 l 1,36,-1
 238 649 l 1,37,-1
 402 860 l 1,34,-1
EndSplineSet
Validated: 1
EndChar

StartChar: g
Encoding: 103 103 162
Width: 1300
Flags: W
HStem: -430 121<265.14 615.267> -40 20G<154.714 174> -20 121<588.641 816.019> 999 121<759.229 1136.87>
VStem: 159 15<-53.3237 -20> 172 324<221.847 643.835>
DStem2: 737.478 -430 1028.69 -430 0.207912 0.978148<584.163 1354.7>
LayerCount: 2
Fore
SplineSet
720 101 m 0,0,1
 787 101 787 101 830 146 c 0,2,3
 869 187 869 187 885 262 c 2,4,-1
 1007 838 l 2,5,6
 1014 871 1014 871 1014 897 c 0,7,8
 1014 928 1014 928 1004 950 c 0,9,10
 981 999 981 999 911 999 c 0,11,12
 766 999 766 999 654 862 c 0,13,14
 556 742 556 742 515 548 c 0,15,16
 496 457 496 457 496 384 c 0,17,18
 496 299 496 299 522 238 c 0,19,20
 581 101 581 101 720 101 c 0,0,1
755 -20 m 0,21,22
 415 -20 415 -20 273 138 c 0,23,24
 172 252 172 252 172 416 c 0,25,26
 172 479 172 479 187 550 c 0,27,28
 241 805 241 805 436 952 c 0,29,30
 660 1120 660 1120 997 1120 c 0,31,32
 1272 1120 1272 1120 1502 998 c 1,33,-1
 1499 983 l 1,34,35
 1322 949 1322 949 1298 837 c 2,36,-1
 1148 134 l 2,37,38
 1092 -130 1092 -130 918 -269 c 0,39,40
 716 -430 716 -430 385 -430 c 0,41,42
 233 -430 233 -430 81 -384 c 1,43,-1
 159 -20 l 1,44,-1
 174 -20 l 1,45,46
 174 -142 174 -142 219 -214 c 0,47,48
 278 -309 278 -309 420.5 -309 c 128,-1,49
 563 -309 563 -309 650 -243 c 0,50,51
 756 -163 756 -163 817 -15 c 1,52,53
 787 -20 787 -20 755 -20 c 0,21,22
EndSplineSet
Validated: 1
EndChar

StartChar: k
Encoding: 107 107 163
Width: 1387
Flags: W
HStem: 0 15<13 34.8359 595.308 610 1363.91 1377> 1080 20G<973 1485> 1510 20G<675.5 790.745>
DStem2: 179.861 0 470.073 0 0.207912 0.978148<234.903 314.901 519.263 1296.35> 565 449 743 456 0.712342 0.701832<0 131.71 290.076 730.037>
LayerCount: 2
Fore
SplineSet
10 0 m 1,0,-1
 13 15 l 1,1,2
 192 60 192 60 233 250 c 2,3,-1
 444 1240 l 2,4,5
 447 1254 447 1254 447 1269 c 0,6,7
 447 1360 447 1360 306 1391 c 1,8,-1
 309 1406 l 1,9,10
 556 1511 556 1511 795 1530 c 1,11,-1
 565 449 l 1,12,-1
 978 863 l 2,13,14
 1039 924 1039 924 1052 985 c 0,15,16
 1054 994 1054 994 1054 1003 c 0,17,18
 1054 1058 1054 1058 973 1085 c 1,19,-1
 976 1100 l 1,20,-1
 1485 1100 l 1,21,-1
 1482 1085 l 1,22,23
 1310 1027 1310 1027 1133 850 c 2,24,-1
 853 570 l 1,25,-1
 999 570 l 1,26,-1
 1135 251 l 2,27,28
 1206 85 1206 85 1380 15 c 1,29,-1
 1377 0 l 1,30,-1
 707 0 l 1,31,-1
 710 15 l 1,32,33
 821 55 821 55 846 157 c 0,34,35
 849 169 849 169 849 181 c 0,36,37
 849 211 849 211 833 248 c 2,38,-1
 743 456 l 1,39,-1
 523 249 l 1,40,41
 514 204 514 204 514 168 c 0,42,43
 514 49 514 49 613 15 c 1,44,-1
 610 0 l 1,45,-1
 10 0 l 1,0,-1
EndSplineSet
Validated: 1
EndChar

StartChar: v
Encoding: 118 118 164
Width: 1317
Flags: W
HStem: -20 121<545.773 783.772> 1100 20G<589 713.756 1212.38 1323>
VStem: 228 302<115.906 327.992> 1071 318<489.996 895.699>
DStem2: 175.421 -20 475.996 -20 0.207912 0.978148<296.588 912.088>
LayerCount: 2
Fore
SplineSet
568 -20 m 0,0,1
 228 -20 228 -20 228 194 c 0,2,3
 228 227 228 227 236 265 c 2,4,-1
 360 845 l 2,5,6
 363 860 363 860 363 873 c 0,7,8
 363 963 363 963 221 991 c 1,9,-1
 224 1006 l 1,10,11
 460 1112 460 1112 718 1120 c 1,12,-1
 537 267 l 2,13,14
 530 234 530 234 530 207 c 0,15,16
 530 101 530 101 642 101 c 0,17,18
 729 101 729 101 819 167 c 0,19,20
 1009 306 1009 306 1061 591 c 0,21,22
 1071 644 1071 644 1071 695 c 0,23,24
 1071 858 1071 858 967 990 c 1,25,-1
 1257 1120 l 1,26,27
 1389 962 1389 962 1389 751 c 0,28,29
 1389 672 1389 672 1371 585 c 0,30,31
 1316 325 1316 325 1113 157 c 0,32,33
 900 -20 900 -20 568 -20 c 0,0,1
EndSplineSet
Validated: 1
EndChar

StartChar: w
Encoding: 119 119 165
Width: 2017
Flags: W
HStem: -20 121<545.773 786.119 1246.26 1484> 1100 20G<589 713.756 1289 1413.76 1912.38 2023>
VStem: 228 302<115.906 327.992> 1771 318<491.062 892.409>
DStem2: 175.421 -20 475.996 -20 0.207912 0.978148<296.588 912.088> 875.369 -20 1176 -20 0.207912 0.978148<296.598 912.098>
LayerCount: 2
Fore
SplineSet
568 -20 m 0,0,1
 228 -20 228 -20 228 194 c 0,2,3
 228 227 228 227 236 265 c 2,4,-1
 360 845 l 2,5,6
 363 860 363 860 363 873 c 0,7,8
 363 963 363 963 221 991 c 1,9,-1
 224 1006 l 1,10,11
 460 1113 460 1113 718 1120 c 1,12,-1
 537 267 l 2,13,14
 530 234 530 234 530 207 c 0,15,16
 530 101 530 101 642 101 c 0,17,18
 736 101 736 101 819 167 c 0,19,20
 934 256 934 256 991 524 c 2,21,-1
 1060 845 l 2,22,23
 1063 860 1063 860 1063 873 c 0,24,25
 1063 963 1063 963 921 991 c 1,26,-1
 924 1006 l 1,27,28
 1160 1113 1160 1113 1418 1120 c 1,29,-1
 1237 267 l 2,30,31
 1230 234 1230 234 1230 207 c 0,32,33
 1230 101 1230 101 1342 101 c 0,34,35
 1432 101 1432 101 1519 167 c 0,36,37
 1711 313 1711 313 1761 591 c 0,38,39
 1771 644 1771 644 1771 694 c 0,40,41
 1771 857 1771 857 1667 990 c 1,42,-1
 1957 1120 l 1,43,44
 2089 962 2089 962 2089 751 c 0,45,46
 2089 672 2089 672 2071 585 c 0,47,48
 2016 325 2016 325 1813 157 c 0,49,50
 1599 -20 1599 -20 1268 -20 c 0,51,52
 1052 -20 1052 -20 973 66 c 1,53,54
 799 -20 799 -20 568 -20 c 0,0,1
EndSplineSet
Validated: 1
EndChar

StartChar: y
Encoding: 121 121 166
Width: 1365
Flags: W
HStem: -430 121<350.213 701.74> -40 20G<239.714 259> -20 121<665.455 911.127> 1100 20G<590.5 718.739 1318.5 1438.74>
VStem: 244 15<-53.3237 -20> 279 301<203.867 659.25>
DStem2: 88.9071 -430 393.269 -430 0.207912 0.978148<885.088 1331.12> 823.99 -430 1113.54 -430 0.207912 0.978148<588.303 1331.1>
LayerCount: 2
Fore
SplineSet
840 -20 m 0,0,1
 503 -20 503 -20 358 153 c 0,2,3
 279 247 279 247 279 395 c 0,4,5
 279 466 279 466 297 549 c 2,6,-1
 360 845 l 2,7,8
 363 860 363 860 363 873 c 0,9,10
 363 963 363 963 221 991 c 1,11,-1
 224 1006 l 1,12,13
 458 1112 458 1112 723 1120 c 1,14,-1
 602 552 l 2,15,16
 580 447 580 447 580 368 c 0,17,18
 580 290 580 290 601 236 c 0,19,20
 655 101 655 101 798 101 c 0,21,22
 873 101 873 101 917 150 c 0,23,24
 957 195 957 195 971 262 c 2,25,-1
 1095 845 l 2,26,27
 1098 860 1098 860 1098 873 c 0,28,29
 1098 963 1098 963 956 991 c 1,30,-1
 959 1006 l 1,31,32
 1194 1112 1194 1112 1443 1120 c 1,33,-1
 1233 134 l 2,34,35
 1177 -130 1177 -130 1003 -269 c 0,36,37
 801 -430 801 -430 470 -430 c 0,38,39
 318 -430 318 -430 166 -384 c 1,40,-1
 244 -20 l 1,41,-1
 259 -20 l 1,42,43
 259 -142 259 -142 304 -214 c 0,44,45
 363 -309 363 -309 507 -309 c 128,-1,46
 651 -309 651 -309 738 -243 c 0,47,48
 856 -154 856 -154 912 -13 c 1,49,50
 876 -20 876 -20 840 -20 c 0,0,1
EndSplineSet
Validated: 1
EndChar

StartChar: z
Encoding: 122 122 167
Width: 1141
Flags: W
HStem: 0 120<465 926.21> 980 120<501.522 880>
DStem2: 10 0 465 120 0.66389 0.74783<391.81 1310.46>
LayerCount: 2
Fore
SplineSet
10 0 m 1,0,-1
 880 980 l 1,1,-1
 788 980 l 2,2,3
 470 980 470 980 244 788 c 1,4,-1
 230 788 l 1,5,-1
 477 1100 l 1,6,-1
 1335 1100 l 1,7,-1
 465 120 l 1,8,-1
 637 120 l 2,9,10
 960 120 960 120 1182 312 c 1,11,-1
 1197 312 l 1,12,-1
 951 0 l 1,13,-1
 10 0 l 1,0,-1
EndSplineSet
Validated: 1
EndChar

StartChar: x
Encoding: 120 120 168
Width: 1326
Flags: W
HStem: 0 21G<10 472 702 1319> 1085 15<244 254.381>
DStem2: 365 243 530 235 0.737063 0.675824<-48.0882 366.043 658.217 1070.48> 850 688 475 849 0.471416 -0.881911<-267.204 0 186.35 444.031>
LayerCount: 2
Fore
SplineSet
10 0 m 1,0,-1
 13 15 l 1,1,2
 174 69 174 69 365 243 c 2,3,-1
 657 511 l 1,4,-1
 475 849 l 2,5,6
 385 1017 385 1017 241 1085 c 1,7,-1
 244 1100 l 1,8,-1
 851 1100 l 1,9,-1
 848 1085 l 1,10,11
 761 1053 761 1053 745 972 c 0,12,13
 741 952 741 952 741 934 c 0,14,15
 741 893 741 893 759 859 c 2,16,-1
 850 688 l 1,17,-1
 1035 857 l 2,18,19
 1108 924 1108 924 1122 990 c 0,20,21
 1125 1004 1125 1004 1125 1017 c 0,22,23
 1125 1067 1125 1067 1077 1085 c 1,24,-1
 1080 1100 l 1,25,-1
 1550 1100 l 1,26,-1
 1547 1085 l 1,27,28
 1395 1027 1395 1027 1204 853 c 2,29,-1
 908 581 l 1,30,-1
 1084 251 l 2,31,32
 1166 98 1166 98 1319 15 c 1,33,-1
 1316 0 l 1,34,-1
 702 0 l 1,35,-1
 705 15 l 1,36,37
 800 47 800 47 815 131 c 0,38,39
 818 149 818 149 818 166 c 0,40,41
 818 211 818 211 798 248 c 2,42,-1
 714 404 l 1,43,-1
 530 235 l 2,44,45
 454 166 454 166 441 102 c 0,46,47
 438 86 438 86 438 73 c 0,48,49
 438 31 438 31 472 15 c 1,50,-1
 469 0 l 1,51,-1
 10 0 l 1,0,-1
EndSplineSet
Validated: 1
EndChar

StartChar: AE
Encoding: 198 198 169
Width: 2215
Flags: W
HStem: 0 120<1358.01 1957.88> 0 15<13 34.2927 497.316 508 828 849.953> 530 120<730 1108 1453 1673.11> 1390 120<1608.81 2077.43>
DStem2: 292 250 439 250 0.587178 0.809458<-24.0416 432.748 580.967 1489.47> 994.861 0 1314.86 0 0.207912 0.978148<239.985 541.941 731.048 1357.37>
LayerCount: 2
Fore
SplineSet
10 0 m 1,0,-1
 13 15 l 1,1,2
 149 52 149 52 292 250 c 2,3,-1
 1206 1510 l 1,4,-1
 2192 1510 l 1,5,-1
 2320 1158 l 1,6,-1
 2305 1158 l 1,7,8
 2130 1390 2130 1390 1858 1390 c 2,9,-1
 1632 1390 l 1,10,11
 1599 1338 1599 1338 1583 1260 c 2,12,-1
 1453 650 l 1,13,-1
 1617 650 l 2,14,15
 1841 650 1841 650 2072 847 c 1,16,-1
 2087 847 l 1,17,-1
 1693 345 l 1,18,-1
 1678 345 l 1,19,20
 1687 389 1687 389 1687 423 c 0,21,22
 1687 530 1687 530 1592 530 c 2,23,-1
 1428 530 l 1,24,-1
 1368 250 l 2,25,26
 1358 204 1358 204 1358 167 c 0,27,28
 1358 141 1358 141 1363 120 c 1,29,-1
 1719 120 l 2,30,31
 1992 120 1992 120 2265 352 c 1,32,-1
 2280 352 l 1,33,-1
 2001 0 l 1,34,-1
 825 0 l 1,35,-1
 828 15 l 1,36,37
 1008 60 1008 60 1048 250 c 2,38,-1
 1108 530 l 1,39,-1
 643 530 l 1,40,-1
 439 250 l 2,41,42
 409 209 409 209 401 170 c 0,43,44
 398 156 398 156 398 143 c 0,45,46
 398 62 398 62 511 15 c 1,47,-1
 508 0 l 1,48,-1
 10 0 l 1,0,-1
730 650 m 1,49,-1
 1133 650 l 1,50,-1
 1263 1260 l 2,51,52
 1271 1298 1271 1298 1271 1330 c 0,53,54
 1271 1360 1271 1360 1264 1385 c 1,55,-1
 730 650 l 1,49,-1
EndSplineSet
Validated: 1
EndChar

StartChar: Eth
Encoding: 208 208 170
Width: 1514
Flags: W
HStem: -20 123<582.933 866.801> 700 121<253 329 664 800> 1408 122<830.571 1131.21>
VStem: 1277 353<683.265 1189.34>
DStem2: 175.634 -20 485.421 -20 0.207912 0.978148<315.214 736.153 924.159 1314.99>
LayerCount: 2
Fore
SplineSet
616 -20 m 0,0,1
 290 -20 290 -20 32 102 c 1,2,-1
 35 116 l 1,3,4
 216 168 216 168 236 264 c 2,5,-1
 329 700 l 1,6,-1
 159 700 l 1,7,-1
 253 821 l 1,8,-1
 355 821 l 1,9,-1
 445 1246 l 2,10,11
 447 1257 447 1257 447 1267 c 0,12,13
 447 1348 447 1348 306 1394 c 1,14,-1
 309 1408 l 1,15,16
 617 1530 617 1530 945 1530 c 0,17,18
 1341 1530 1341 1530 1517 1306 c 0,19,20
 1630 1162 1630 1162 1630 959 c 0,21,22
 1630 872 1630 872 1609 775 c 0,23,24
 1536 430 1536 430 1320 239 c 0,25,26
 1027 -20 1027 -20 616 -20 c 0,0,1
704 103 m 0,27,28
 896 103 896 103 1060 322 c 0,29,30
 1198 506 1198 506 1250 754 c 0,31,32
 1277 884 1277 884 1277 992 c 0,33,34
 1277 1102 1277 1102 1249 1189 c 0,35,36
 1177 1408 1177 1408 981 1408 c 0,37,38
 904 1408 904 1408 854 1380 c 0,39,40
 774 1336 774 1336 755 1246 c 2,41,-1
 664 821 l 1,42,-1
 893 821 l 1,43,-1
 800 701 l 1,44,-1
 639 701 l 1,45,-1
 546 265 l 2,46,47
 541 243 541 243 541 224 c 0,48,49
 541 163 541 163 589 131 c 0,50,51
 632 103 632 103 704 103 c 0,27,28
EndSplineSet
Validated: 1
EndChar

StartChar: Dcroat
Encoding: 272 272 171
Width: 1514
Flags: W
HStem: -20 123<582.933 866.801> 700 121<253 329 664 800> 1408 122<830.571 1131.21>
VStem: 1277 353<683.265 1189.34>
DStem2: 175.634 -20 485.421 -20 0.207912 0.978148<315.214 736.153 924.159 1314.99>
LayerCount: 2
Fore
SplineSet
616 -20 m 0,0,1
 290 -20 290 -20 32 102 c 1,2,-1
 35 116 l 1,3,4
 216 168 216 168 236 264 c 2,5,-1
 329 700 l 1,6,-1
 159 700 l 1,7,-1
 253 821 l 1,8,-1
 355 821 l 1,9,-1
 445 1246 l 2,10,11
 447 1257 447 1257 447 1267 c 0,12,13
 447 1348 447 1348 306 1394 c 1,14,-1
 309 1408 l 1,15,16
 617 1530 617 1530 945 1530 c 0,17,18
 1341 1530 1341 1530 1517 1306 c 0,19,20
 1630 1162 1630 1162 1630 959 c 0,21,22
 1630 872 1630 872 1609 775 c 0,23,24
 1536 430 1536 430 1320 239 c 0,25,26
 1027 -20 1027 -20 616 -20 c 0,0,1
704 103 m 0,27,28
 896 103 896 103 1060 322 c 0,29,30
 1198 506 1198 506 1250 754 c 0,31,32
 1277 884 1277 884 1277 992 c 0,33,34
 1277 1102 1277 1102 1249 1189 c 0,35,36
 1177 1408 1177 1408 981 1408 c 0,37,38
 904 1408 904 1408 854 1380 c 0,39,40
 774 1336 774 1336 755 1246 c 2,41,-1
 664 821 l 1,42,-1
 893 821 l 1,43,-1
 800 701 l 1,44,-1
 639 701 l 1,45,-1
 546 265 l 2,46,47
 541 243 541 243 541 224 c 0,48,49
 541 163 541 163 589 131 c 0,50,51
 632 103 632 103 704 103 c 0,27,28
EndSplineSet
Validated: 1
EndChar

StartChar: Hbar
Encoding: 294 294 172
Width: 1527
Flags: W
HStem: 0 15<13 34.8359 653.781 670 860 881.836 1500.78 1517> 525 130<639 1139> 1028 120<352 399 744 1246 1591 1639> 1495 15<331 347.219 966.164 988 1178 1194.22 1813.16 1835>
DStem2: 179.861 0 499.861 0 0.207912 0.978148<252.046 603.374 736.147 1051.1 1240.2 1358.29> 1026.86 0 1346.86 0 0.207912 0.978148<252.046 536.843 669.615 1051.1 1240.2 1358.29>
LayerCount: 2
Fore
SplineSet
10 0 m 1,0,-1
 13 15 l 1,1,2
 192 60 192 60 233 250 c 2,3,-1
 399 1028 l 1,4,-1
 259 1028 l 1,5,-1
 352 1148 l 1,6,-1
 424 1148 l 1,7,-1
 448 1260 l 2,8,9
 456 1297 456 1297 456 1331 c 0,10,11
 456 1459 456 1459 328 1495 c 1,12,-1
 331 1510 l 1,13,-1
 991 1510 l 1,14,-1
 988 1495 l 1,15,16
 809 1450 809 1450 768 1260 c 2,17,-1
 744 1148 l 1,18,-1
 1271 1148 l 1,19,-1
 1295 1260 l 2,20,21
 1303 1297 1303 1297 1303 1331 c 0,22,23
 1303 1459 1303 1459 1175 1495 c 1,24,-1
 1178 1510 l 1,25,-1
 1838 1510 l 1,26,-1
 1835 1495 l 1,27,28
 1656 1450 1656 1450 1615 1260 c 2,29,-1
 1591 1148 l 1,30,-1
 1731 1148 l 1,31,-1
 1639 1028 l 1,32,-1
 1566 1028 l 1,33,-1
 1400 250 l 2,34,35
 1392 213 1392 213 1392 179 c 0,36,37
 1392 51 1392 51 1520 15 c 1,38,-1
 1517 0 l 1,39,-1
 857 0 l 1,40,-1
 860 15 l 1,41,42
 1039 60 1039 60 1080 250 c 2,43,-1
 1139 525 l 1,44,-1
 612 525 l 1,45,-1
 553 250 l 2,46,47
 545 213 545 213 545 179 c 0,48,49
 545 51 545 51 673 15 c 1,50,-1
 670 0 l 1,51,-1
 10 0 l 1,0,-1
719 1028 m 1,52,-1
 639 655 l 1,53,-1
 1166 655 l 1,54,-1
 1246 1028 l 1,55,-1
 719 1028 l 1,52,-1
EndSplineSet
Validated: 1
EndChar

StartChar: Lslash
Encoding: 321 321 173
Width: 1318
Flags: W
HStem: 0 120<545.494 1061.19> 0 15<13 34.9531> 413 136<132 268> 939 135<732 867> 1495 15<331 347.219 966.047 988>
DStem2: 132 549 129 413 0.813584 0.581447<0 119.94 701.787 823.122> 179.861 0 499.861 0 0.207912 0.978148<252.963 541.941 703.35 884.424 1044.85 1358.35>
LayerCount: 2
Fore
SplineSet
10 0 m 1,0,-1
 13 15 l 1,1,2
 193 60 193 60 233 250 c 2,3,-1
 293 530 l 1,4,-1
 129 413 l 1,5,-1
 132 549 l 1,6,-1
 326 688 l 1,7,-1
 448 1260 l 2,8,9
 456 1299 456 1299 456 1331 c 0,10,11
 456 1459 456 1459 328 1495 c 1,12,-1
 331 1510 l 1,13,-1
 991 1510 l 1,14,-1
 988 1495 l 1,15,16
 808 1450 808 1450 768 1260 c 2,17,-1
 703 957 l 1,18,-1
 867 1074 l 1,19,-1
 865 939 l 1,20,-1
 670 800 l 1,21,-1
 553 250 l 2,22,23
 545 212 545 212 545 180 c 0,24,25
 545 146 545 146 554 120 c 1,26,-1
 823 120 l 2,27,28
 1095 120 1095 120 1368 352 c 1,29,-1
 1383 352 l 1,30,-1
 1105 0 l 1,31,-1
 10 0 l 1,0,-1
EndSplineSet
Validated: 1
EndChar

StartChar: Eng
Encoding: 330 330 174
Width: 1574
Flags: W
HStem: -430 21G<791 1070> 0 15<13 34.9531 653.781 670> 1408 122<841.607 1139.04>
VStem: 1295 335<669.219 1190.32>
DStem2: 88.4615 -430 408.462 -430 0.207912 0.978148<691.592 1734.15> 1017.6 -430 1352.6 -430 0.207912 0.978148<291.448 1435.63>
LayerCount: 2
Fore
SplineSet
10 0 m 1,0,-1
 13 15 l 1,1,2
 193 60 193 60 233 250 c 2,3,-1
 445 1246 l 2,4,5
 447 1257 447 1257 447 1267 c 0,6,7
 447 1348 447 1348 306 1394 c 1,8,-1
 309 1408 l 1,9,10
 617 1530 617 1530 945 1530 c 0,11,12
 1341 1530 1341 1530 1517 1306 c 0,13,14
 1630 1162 1630 1162 1630 959 c 0,15,16
 1630 872 1630 872 1609 775 c 2,17,-1
 1444 0 l 2,18,19
 1352 -430 1352 -430 788 -430 c 1,20,-1
 791 -415 l 1,21,22
 1048 -288 1048 -288 1109 0 c 2,23,-1
 1269 755 l 2,24,25
 1295 878 1295 878 1295 982 c 0,26,27
 1295 1094 1295 1094 1265 1184 c 0,28,29
 1190 1408 1190 1408 981 1408 c 0,30,31
 909 1408 909 1408 864 1380 c 0,32,33
 783 1333 783 1333 765 1246 c 2,34,-1
 553 250 l 2,35,36
 545 211 545 211 545 179 c 0,37,38
 545 51 545 51 673 15 c 1,39,-1
 670 0 l 1,40,-1
 10 0 l 1,0,-1
EndSplineSet
Validated: 1
EndChar

StartChar: OE
Encoding: 338 338 175
Width: 2198
Flags: W
HStem: -20 122<657.804 948.141> 0 120<1341.01 1940.88> 530 120<1436 1656.11> 1390 120<1591.81 2060.43> 1408 122<917.493 1206.56>
VStem: 206 335<290.334 779.083>
DStem2: 973.61 -20 1293.61 -20 0.207912 0.978148<260.432 628.92 751.495 1364.29>
LayerCount: 2
Fore
SplineSet
1984 0 m 1,0,-1
 955 0 l 1,1,2
 865 -20 865 -20 767 -20 c 0,3,4
 489 -20 489 -20 343 142 c 0,5,6
 206 295 206 295 206 534 c 0,7,8
 206 637 206 637 231 755 c 0,9,10
 315 1150 315 1150 604 1368 c 0,11,12
 818 1530 818 1530 1096 1530 c 0,13,14
 1194 1530 1194 1530 1276 1510 c 1,15,-1
 2175 1510 l 1,16,-1
 2303 1158 l 1,17,-1
 2288 1158 l 1,18,19
 2113 1390 2113 1390 1841 1390 c 2,20,-1
 1615 1390 l 1,21,22
 1582 1338 1582 1338 1566 1260 c 2,23,-1
 1436 650 l 1,24,-1
 1600 650 l 2,25,26
 1824 650 1824 650 2055 847 c 1,27,-1
 2070 847 l 1,28,-1
 1676 345 l 1,29,-1
 1661 345 l 1,30,31
 1670 389 1670 389 1670 423 c 0,32,33
 1670 530 1670 530 1575 530 c 2,34,-1
 1411 530 l 1,35,-1
 1351 250 l 2,36,37
 1341 204 1341 204 1341 167 c 0,38,39
 1341 141 1341 141 1346 120 c 1,40,-1
 1702 120 l 2,41,42
 1975 120 1975 120 2248 352 c 1,43,-1
 2263 352 l 1,44,-1
 1984 0 l 1,0,-1
793 102 m 0,45,46
 907 102 907 102 1015 194 c 1,47,48
 1025 220 1025 220 1031 250 c 2,49,-1
 1246 1260 l 2,50,51
 1252 1290 1252 1290 1254 1316 c 1,52,53
 1185 1408 1185 1408 1070 1408 c 0,54,55
 940 1408 940 1408 818 1289 c 0,56,57
 661 1137 661 1137 579 755 c 0,58,59
 541 578 541 578 541 450 c 0,60,61
 541 303 541 303 591 221 c 0,62,63
 663 102 663 102 793 102 c 0,45,46
EndSplineSet
Validated: 1
EndChar

StartChar: Tbar
Encoding: 358 358 176
Width: 1529
Flags: W
HStem: 0 15<438 459.953 1078.78 1095> 698 121<648 753 1099 1205> 1390 120<577.316 881.984 1218.81 1522.75>
DStem2: 604.861 0 924.861 0 0.207912 0.978148<251.985 713.547 903.84 1369.16>
LayerCount: 2
Fore
SplineSet
435 0 m 1,0,-1
 438 15 l 1,1,2
 618 60 618 60 658 250 c 2,3,-1
 753 698 l 1,4,-1
 554 698 l 1,5,-1
 648 819 l 1,6,-1
 779 819 l 1,7,-1
 873 1260 l 2,8,9
 882 1305 882 1305 882 1342 c 0,10,11
 882 1368 882 1368 878 1390 c 1,12,-1
 816 1390 l 2,13,14
 543 1390 543 1390 271 1158 c 1,15,-1
 256 1158 l 1,16,-1
 534 1510 l 1,17,-1
 1638 1510 l 1,18,-1
 1765 1158 l 1,19,-1
 1750 1158 l 1,20,21
 1575 1390 1575 1390 1304 1390 c 2,22,-1
 1242 1390 l 1,23,24
 1209 1339 1209 1339 1193 1260 c 2,25,-1
 1099 819 l 1,26,-1
 1298 819 l 1,27,-1
 1205 699 l 1,28,-1
 1074 699 l 1,29,-1
 978 250 l 2,30,31
 970 211 970 211 970 179 c 0,32,33
 970 51 970 51 1098 15 c 1,34,-1
 1095 0 l 1,35,-1
 435 0 l 1,0,-1
EndSplineSet
Validated: 1
EndChar

StartChar: uni1E02
Encoding: 7682 7682 177
Width: 1395
Flags: W
HStem: -20 121<570.676 863.586> 1409 121<816.459 1067.48> 1560 370<930.766 1109.31>
VStem: 1098 337<371.414 700.512> 1102 316<1068.38 1374.87>
DStem2: 175.421 -20 475.421 -20 0.207912 0.978148<313.179 1315.03>
LayerCount: 2
Fore
SplineSet
1059 1930 m 0,0,1
 1137 1930 1137 1930 1177 1876 c 0,2,3
 1206 1838 1206 1838 1206 1786 c 0,4,5
 1206 1766 1206 1766 1202 1745 c 0,6,7
 1186 1668 1186 1668 1121.5 1614 c 128,-1,8
 1057 1560 1057 1560 981 1560 c 128,-1,9
 905 1560 905 1560 863 1614 c 0,10,11
 834 1652 834 1652 834 1704 c 0,12,13
 834 1724 834 1724 838 1745 c 0,14,15
 854 1822 854 1822 918.5 1876 c 128,-1,16
 983 1930 983 1930 1059 1930 c 0,0,1
706 101 m 0,17,18
 839 101 839 101 949 214 c 0,19,20
 1060 327 1060 327 1090 477 c 0,21,22
 1098 519 1098 519 1098 556 c 0,23,24
 1098 665 1098 665 1026 733 c 0,25,26
 950 804 950 804 783 837 c 1,27,28
 884 876 884 876 964 939 c 0,29,30
 1060 1015 1060 1015 1093 1171 c 0,31,32
 1102 1214 1102 1214 1102 1250 c 0,33,34
 1102 1308 1102 1308 1079 1348 c 0,35,36
 1044 1409 1044 1409 955 1409 c 0,37,38
 880 1409 880 1409 832 1377 c 24,39,40
 763 1332 763 1332 745 1246 c 2,41,-1
 536 265 l 2,42,43
 531 243 531 243 531 224 c 0,44,45
 531 165 531 165 576 132 c 0,46,47
 619 101 619 101 706 101 c 0,17,18
627 -20 m 0,48,49
 287 -20 287 -20 32 103 c 1,50,-1
 35 118 l 1,51,52
 216 170 216 170 236 265 c 2,53,-1
 445 1246 l 2,54,55
 447 1257 447 1257 447 1267 c 0,56,57
 447 1347 447 1347 306 1393 c 1,58,-1
 309 1408 l 1,59,60
 619 1530 619 1530 936 1530 c 0,61,62
 1259 1530 1259 1530 1364 1391 c 0,63,64
 1418 1319 1418 1319 1418 1231 c 0,65,66
 1418 1199 1418 1199 1411 1165 c 0,67,68
 1383 1035 1383 1035 1250 932 c 0,69,70
 1201 894 1201 894 1140 866 c 1,71,72
 1231 848 1231 848 1302 801 c 0,73,74
 1435 711 1435 711 1435 561 c 0,75,76
 1435 519 1435 519 1426 476 c 0,77,78
 1380 262 1380 262 1165 114 c 0,79,80
 971 -20 971 -20 627 -20 c 0,48,49
EndSplineSet
Validated: 1
EndChar

StartChar: uni1E03
Encoding: 7683 7683 178
Width: 1300
Flags: W
HStem: -20 121<397.13 774.061> 999 121<708.469 944.062> 1510 20G<675.5 790.777> 1560 370<603.766 782.305>
VStem: 1037 326<456.142 879.846>
DStem2: 175.846 -20 466.059 -20 0.207912 0.978148<290.269 1060.8 1223.77 1317.76>
LayerCount: 2
Fore
SplineSet
732 1930 m 0,0,1
 810 1930 810 1930 850 1876 c 0,2,3
 879 1838 879 1838 879 1786 c 0,4,5
 879 1766 879 1766 875 1745 c 0,6,7
 859 1668 859 1668 794.5 1614 c 128,-1,8
 730 1560 730 1560 654 1560 c 128,-1,9
 578 1560 578 1560 536 1614 c 0,10,11
 507 1652 507 1652 507 1704 c 0,12,13
 507 1724 507 1724 511 1745 c 0,14,15
 527 1822 527 1822 591.5 1876 c 128,-1,16
 656 1930 656 1930 732 1930 c 0,0,1
813 999 m 0,17,18
 746 999 746 999 703 954 c 0,19,20
 664 913 664 913 648 838 c 2,21,-1
 526 262 l 2,22,23
 519 229 519 229 519 203 c 0,24,25
 519 172 519 172 529 150 c 0,26,27
 552 101 552 101 622 101 c 0,28,29
 767 101 767 101 879 238 c 0,30,31
 977 358 977 358 1018 552 c 0,32,33
 1037 643 1037 643 1037 716 c 0,34,35
 1037 801 1037 801 1011 862 c 0,36,37
 952 999 952 999 813 999 c 0,17,18
537 -20 m 0,38,39
 263 -20 263 -20 32 102 c 1,40,-1
 35 117 l 1,41,42
 212 150 212 150 236 263 c 2,43,-1
 444 1240 l 2,44,45
 447 1256 447 1256 447 1270 c 0,46,47
 447 1363 447 1363 306 1391 c 1,48,-1
 309 1406 l 1,49,50
 556 1511 556 1511 795 1530 c 1,51,-1
 708 1118 l 1,52,53
 738 1120 738 1120 779 1120 c 0,54,55
 1116 1120 1116 1120 1268 952 c 0,56,57
 1363 847 1363 847 1363 688 c 0,58,59
 1363 623 1363 623 1347 550 c 0,60,61
 1293 296 1293 296 1085 138 c 128,-1,62
 877 -20 877 -20 537 -20 c 0,38,39
EndSplineSet
Validated: 1
EndChar

StartChar: uni1E0A
Encoding: 7690 7690 179
Width: 1514
Flags: W
HStem: -20 123<582.933 866.801> 1408 122<830.571 1131.21> 1560 370<1005.77 1184.31>
VStem: 1277 353<683.265 1189.34>
DStem2: 175.634 -20 485.421 -20 0.207912 0.978148<315.214 1314.99>
LayerCount: 2
Fore
SplineSet
1134 1930 m 0,0,1
 1212 1930 1212 1930 1252 1876 c 0,2,3
 1281 1838 1281 1838 1281 1786 c 0,4,5
 1281 1766 1281 1766 1277 1745 c 0,6,7
 1261 1668 1261 1668 1196.5 1614 c 128,-1,8
 1132 1560 1132 1560 1056 1560 c 128,-1,9
 980 1560 980 1560 938 1614 c 0,10,11
 909 1652 909 1652 909 1704 c 0,12,13
 909 1724 909 1724 913 1745 c 0,14,15
 929 1822 929 1822 993.5 1876 c 128,-1,16
 1058 1930 1058 1930 1134 1930 c 0,0,1
704 103 m 0,17,18
 896 103 896 103 1060 322 c 0,19,20
 1198 506 1198 506 1250 754 c 0,21,22
 1277 884 1277 884 1277 992 c 0,23,24
 1277 1102 1277 1102 1249 1189 c 0,25,26
 1177 1408 1177 1408 981 1408 c 0,27,28
 904 1408 904 1408 854 1380 c 0,29,30
 774 1336 774 1336 755 1246 c 2,31,-1
 546 265 l 2,32,33
 541 243 541 243 541 224 c 0,34,35
 541 163 541 163 589 131 c 0,36,37
 632 103 632 103 704 103 c 0,17,18
616 -20 m 0,38,39
 290 -20 290 -20 32 102 c 1,40,-1
 35 116 l 1,41,42
 216 168 216 168 236 264 c 2,43,-1
 445 1246 l 2,44,45
 447 1257 447 1257 447 1267 c 0,46,47
 447 1348 447 1348 306 1394 c 1,48,-1
 309 1408 l 1,49,50
 617 1530 617 1530 945 1530 c 0,51,52
 1341 1530 1341 1530 1517 1306 c 0,53,54
 1630 1162 1630 1162 1630 959 c 0,55,56
 1630 872 1630 872 1609 775 c 0,57,58
 1536 430 1536 430 1320 239 c 24,59,60
 1027 -20 1027 -20 616 -20 c 0,38,39
EndSplineSet
Validated: 1
EndChar

StartChar: uni1E0B
Encoding: 7691 7691 180
Width: 1300
Flags: W
HStem: -20 121<588.641 826.146> 999 121<759.229 1034.4> 1510 20G<1325.5 1440.75> 1560 370<1234.77 1413.31>
VStem: 172 324<221.847 643.835>
DStem2: 824.626 -20 1115.85 -20 0.207912 0.978148<322.257 935.538 1155.84 1318.01>
LayerCount: 2
Fore
SplineSet
1363 1930 m 0,0,1
 1441 1930 1441 1930 1481 1876 c 0,2,3
 1510 1838 1510 1838 1510 1786 c 0,4,5
 1510 1766 1510 1766 1506 1745 c 0,6,7
 1490 1668 1490 1668 1425.5 1614 c 128,-1,8
 1361 1560 1361 1560 1285 1560 c 128,-1,9
 1209 1560 1209 1560 1167 1614 c 0,10,11
 1138 1652 1138 1652 1138 1704 c 0,12,13
 1138 1724 1138 1724 1142 1745 c 0,14,15
 1158 1822 1158 1822 1222.5 1876 c 128,-1,16
 1287 1930 1287 1930 1363 1930 c 0,0,1
720 101 m 0,17,18
 787 101 787 101 830 146 c 0,19,20
 869 187 869 187 885 262 c 2,21,-1
 1007 838 l 2,22,23
 1014 871 1014 871 1014 897 c 0,24,25
 1014 928 1014 928 1004 950 c 0,26,27
 981 999 981 999 911 999 c 0,28,29
 766 999 766 999 654 862 c 0,30,31
 556 742 556 742 515 548 c 0,32,33
 496 457 496 457 496 384 c 0,34,35
 496 299 496 299 522 238 c 0,36,37
 581 101 581 101 720 101 c 0,17,18
755 -20 m 0,38,39
 415 -20 415 -20 273 138 c 0,40,41
 172 252 172 252 172 416 c 0,42,43
 172 479 172 479 187 550 c 0,44,45
 241 805 241 805 436 952 c 0,46,47
 660 1120 660 1120 997 1120 c 0,48,49
 1038 1120 1038 1120 1068 1118 c 1,50,-1
 1094 1240 l 2,51,52
 1097 1256 1097 1256 1097 1270 c 0,53,54
 1097 1363 1097 1363 956 1391 c 1,55,-1
 959 1406 l 1,56,57
 1206 1511 1206 1511 1445 1530 c 1,58,-1
 1176 263 l 2,59,60
 1173 248 1173 248 1173 235 c 0,61,62
 1173 145 1173 145 1315 117 c 1,63,-1
 1312 102 l 1,64,65
 1029 -20 1029 -20 755 -20 c 0,38,39
EndSplineSet
Validated: 1
EndChar

StartChar: uni1E1E
Encoding: 7710 7710 181
Width: 1269
Flags: W
HStem: 0 15<13 34.9531 653.781 670> 530 120<638 858.109> 1390 120<793.813 1262.43> 1495 15<331 347.219> 1560 370<891.766 1070.31>
DStem2: 179.861 0 499.861 0 0.207912 0.978148<252.963 608.473 731.048 1357.37>
LayerCount: 2
Fore
SplineSet
1020 1930 m 0,0,1
 1098 1930 1098 1930 1138 1876 c 0,2,3
 1167 1838 1167 1838 1167 1786 c 0,4,5
 1167 1766 1167 1766 1163 1745 c 0,6,7
 1147 1668 1147 1668 1082.5 1614 c 128,-1,8
 1018 1560 1018 1560 942 1560 c 128,-1,9
 866 1560 866 1560 824 1614 c 0,10,11
 795 1652 795 1652 795 1704 c 0,12,13
 795 1724 795 1724 799 1745 c 0,14,15
 815 1822 815 1822 879.5 1876 c 128,-1,16
 944 1930 944 1930 1020 1930 c 0,0,1
10 0 m 1,17,-1
 13 15 l 1,18,19
 193 60 193 60 233 250 c 2,20,-1
 448 1260 l 2,21,22
 456 1298 456 1298 456 1330 c 0,23,24
 456 1459 456 1459 328 1495 c 1,25,-1
 331 1510 l 1,26,-1
 1377 1510 l 1,27,-1
 1505 1158 l 1,28,-1
 1490 1158 l 1,29,30
 1315 1390 1315 1390 1043 1390 c 2,31,-1
 817 1390 l 1,32,33
 784 1338 784 1338 768 1260 c 2,34,-1
 638 650 l 1,35,-1
 802 650 l 2,36,37
 1026 650 1026 650 1257 847 c 1,38,-1
 1272 847 l 1,39,-1
 878 345 l 1,40,-1
 863 345 l 1,41,42
 872 389 872 389 872 423 c 0,43,44
 872 530 872 530 777 530 c 2,45,-1
 613 530 l 1,46,-1
 553 250 l 2,47,48
 545 212 545 212 545 180 c 0,49,50
 545 51 545 51 673 15 c 1,51,-1
 670 0 l 1,52,-1
 10 0 l 1,17,-1
EndSplineSet
Validated: 1
EndChar

StartChar: uni1E1F
Encoding: 7711 7711 182
Width: 1082
Flags: W
HStem: 0 15<13 34.9531 619.946 640> 639 120<631 803.76> 1409 121<798.247 1088.36> 1560 370<885.766 1064.31>
VStem: 1258 15<995 1026.8>
DStem2: 179.861 0 469.861 0 0.207912 0.978148<242.667 713.636 836.211 1301.51>
LayerCount: 2
Fore
SplineSet
1014 1930 m 0,0,1
 1092 1930 1092 1930 1132 1876 c 0,2,3
 1161 1838 1161 1838 1161 1786 c 0,4,5
 1161 1766 1161 1766 1157 1745 c 0,6,7
 1141 1668 1141 1668 1076.5 1614 c 128,-1,8
 1012 1560 1012 1560 936 1560 c 128,-1,9
 860 1560 860 1560 818 1614 c 0,10,11
 789 1652 789 1652 789 1704 c 0,12,13
 789 1724 789 1724 793 1745 c 0,14,15
 809 1822 809 1822 873.5 1876 c 128,-1,16
 938 1930 938 1930 1014 1930 c 0,0,1
10 0 m 1,17,-1
 13 15 l 1,18,19
 193 62 193 62 233 250 c 2,20,-1
 445 1247 l 2,21,22
 448 1261 448 1261 448 1274 c 0,23,24
 448 1362 448 1362 306 1393 c 1,25,-1
 309 1408 l 1,26,27
 595 1530 595 1530 866 1530 c 0,28,29
 1174 1530 1174 1530 1350 1353 c 1,30,-1
 1273 995 l 1,31,-1
 1258 995 l 1,32,33
 1239 1168 1239 1168 1180 1268 c 0,34,35
 1096 1409 1096 1409 927 1409 c 0,36,37
 844 1409 844 1409 797 1366 c 0,38,39
 751 1324 751 1324 735 1248 c 2,40,-1
 631 759 l 1,41,-1
 805 759 l 2,42,43
 942 759 942 759 1084 850 c 1,44,-1
 1099 850 l 1,45,-1
 834 530 l 1,46,-1
 819 530 l 1,47,48
 819 639 819 639 701 639 c 2,49,-1
 606 639 l 1,50,-1
 523 250 l 2,51,52
 514 210 514 210 514 176 c 0,53,54
 514 46 514 46 643 15 c 1,55,-1
 640 0 l 1,56,-1
 10 0 l 1,17,-1
EndSplineSet
Validated: 1
EndChar

StartChar: uni1E40
Encoding: 7744 7744 183
Width: 2172
Flags: W
HStem: 0 15<508.137 521 1460 1478.01 2149.71 2164.87> 1560 370<1374.77 1553.31>
VStem: 1690 308<126.525 479.376>
DStem2: 279 250 410 250 0.34064 0.940194<-39.5257 749.126> 765 1550 651 912 0.329591 -0.944124<564.778 1231.83> 1171 387 992 -40 0.609447 0.792827<0 766.062> 1690 250 1999 250 0.0621871 0.998065<1.25427 673.311>
LayerCount: 2
Fore
SplineSet
10 0 m 1,0,-1
 13 15 l 17,1,2
 219 84 219 84 279 250 c 2,3,-1
 750 1550 l 1,4,-1
 765 1550 l 1,5,-1
 1171 387 l 1,6,-1
 2065 1550 l 1,7,-1
 2080 1550 l 1,8,-1
 1999 250 l 2,9,10
 1998 234 1998 234 1998 232 c 0,11,12
 1998 80 1998 80 2165 15 c 1,13,14
 2164 9 2164 9 2162 0 c 1,15,-1
 1457 0 l 1,16,-1
 1460 15 l 1,17,18
 1656 73 1656 73 1685 211 c 0,19,20
 1689 228 1689 228 1690 250 c 2,21,-1
 1732 922 l 1,22,-1
 992 -40 l 1,23,-1
 977 -40 l 1,24,-1
 651 912 l 1,25,-1
 410 250 l 2,26,27
 405 237 405 237 398 209 c 0,28,29
 393 187 393 187 393 166 c 0,30,31
 393 63 393 63 524 15 c 1,32,-1
 521 0 l 1,33,-1
 10 0 l 1,0,-1
1503 1930 m 0,34,35
 1581 1930 1581 1930 1621 1876 c 0,36,37
 1650 1838 1650 1838 1650 1786 c 0,38,39
 1650 1766 1650 1766 1646 1745 c 0,40,41
 1630 1668 1630 1668 1565.5 1614 c 128,-1,42
 1501 1560 1501 1560 1425 1560 c 128,-1,43
 1349 1560 1349 1560 1307 1614 c 0,44,45
 1278 1652 1278 1652 1278 1704 c 0,46,47
 1278 1724 1278 1724 1282 1745 c 0,48,49
 1298 1822 1298 1822 1362.5 1876 c 128,-1,50
 1427 1930 1427 1930 1503 1930 c 0,34,35
EndSplineSet
Validated: 1
EndChar

StartChar: uni1E41
Encoding: 7745 7745 184
Width: 2090
Flags: W
HStem: -20 21G<1605.23 1732.5> 0 15<13 34.8359 620.125 640 738 759.953 1345.12 1365> 999 121<706.412 957.656 1430.86 1664.33> 1160 370<1237.77 1416.31>
VStem: 1742 302<438.438 893.672>
DStem2: 175.61 -20 465.61 -20 0.207912 0.978148<264.269 902.83> 900.61 -20 1190.61 -20 0.207912 0.978148<264.299 765.771> 1601 -20 1905.55 -20 0.207912 0.978148<317.827 757.571>
LayerCount: 2
Fore
SplineSet
1366 1530 m 0,0,1
 1444 1530 1444 1530 1484 1476 c 0,2,3
 1513 1438 1513 1438 1513 1386 c 0,4,5
 1513 1366 1513 1366 1509 1345 c 0,6,7
 1493 1268 1493 1268 1428.5 1214 c 128,-1,8
 1364 1160 1364 1160 1288 1160 c 128,-1,9
 1212 1160 1212 1160 1170 1214 c 0,10,11
 1141 1252 1141 1252 1141 1304 c 0,12,13
 1141 1324 1141 1324 1145 1345 c 0,14,15
 1161 1422 1161 1422 1225.5 1476 c 128,-1,16
 1290 1530 1290 1530 1366 1530 c 0,0,1
10 0 m 1,17,-1
 13 15 l 1,18,19
 192 59 192 59 233 250 c 2,20,-1
 358 837 l 2,21,22
 361 851 361 851 361 864 c 0,23,24
 361 952 361 952 219 983 c 1,25,-1
 222 998 l 1,26,27
 508 1120 508 1120 776 1120 c 0,28,29
 1039 1120 1039 1120 1186 1015 c 1,30,31
 1325 1120 1325 1120 1504 1120 c 0,32,33
 1831 1120 1831 1120 1966 947 c 0,34,35
 2044 847 2044 847 2044 699 c 0,36,37
 2044 630 2044 630 2027 551 c 2,38,-1
 1964 255 l 2,39,40
 1961 241 1961 241 1961 228 c 0,41,42
 1961 139 1961 139 2103 109 c 1,43,-1
 2100 94 l 1,44,45
 1864 -12 1864 -12 1601 -20 c 1,46,-1
 1721 548 l 2,47,48
 1742 648 1742 648 1742 727 c 0,49,50
 1742 804 1742 804 1722 861 c 0,51,52
 1674 999 1674 999 1545 999 c 0,53,54
 1470 999 1470 999 1426 952 c 0,55,56
 1389 912 1389 912 1373 838 c 2,57,-1
 1248 250 l 2,58,59
 1240 211 1240 211 1240 177 c 0,60,61
 1240 47 1240 47 1368 15 c 1,62,-1
 1365 0 l 1,63,-1
 735 0 l 1,64,-1
 738 15 l 1,65,66
 918 61 918 61 958 250 c 2,67,-1
 1022 549 l 2,68,69
 1044 652 1044 652 1044 735 c 0,70,71
 1044 811 1044 811 1024 862 c 0,72,73
 970 999 970 999 820 999 c 0,74,75
 743 999 743 999 700 950 c 0,76,77
 663 908 663 908 648 838 c 2,78,-1
 523 250 l 2,79,80
 515 210 515 210 515 177 c 0,81,82
 515 47 515 47 643 15 c 1,83,-1
 640 0 l 1,84,-1
 10 0 l 1,17,-1
EndSplineSet
Validated: 1
EndChar

StartChar: uni1E56
Encoding: 7766 7766 185
Width: 1385
Flags: W
HStem: 0 15<13 40.1265 639.946 660> 478 122<684.945 948.654> 1408 122<831.976 1101.16> 1560 370<969.766 1148.31>
VStem: 1198 344<905.271 1296.1>
DStem2: 179.861 0 489.861 0 0.207912 0.978148<246.825 614.427 805.083 1294.55>
LayerCount: 2
Fore
SplineSet
1098 1930 m 0,0,1
 1176 1930 1176 1930 1216 1876 c 0,2,3
 1245 1838 1245 1838 1245 1786 c 0,4,5
 1245 1766 1245 1766 1241 1745 c 0,6,7
 1225 1668 1225 1668 1160.5 1614 c 128,-1,8
 1096 1560 1096 1560 1020 1560 c 128,-1,9
 944 1560 944 1560 902 1614 c 0,10,11
 873 1652 873 1652 873 1704 c 0,12,13
 873 1724 873 1724 877 1745 c 0,14,15
 893 1822 893 1822 957.5 1876 c 128,-1,16
 1022 1930 1022 1930 1098 1930 c 0,0,1
804 600 m 0,17,18
 897 600 897 600 980 666 c 0,19,20
 1140 793 1140 793 1184 1003 c 0,21,22
 1198 1072 1198 1072 1198 1131 c 0,23,24
 1198 1258 1198 1258 1132 1337 c 0,25,26
 1072 1408 1072 1408 975 1408 c 0,27,28
 902 1408 902 1408 851 1378 c 0,29,30
 773 1333 773 1333 755 1246 c 2,31,-1
 652 762 l 2,32,33
 648 741 648 741 648 723 c 0,34,35
 648 664 648 664 692 630 c 0,36,37
 731 600 731 600 804 600 c 0,17,18
10 0 m 1,38,-1
 13 15 l 1,39,40
 192 56 192 56 233 250 c 2,41,-1
 445 1246 l 2,42,43
 447 1257 447 1257 447 1267 c 0,44,45
 447 1348 447 1348 306 1394 c 1,46,-1
 309 1408 l 1,47,48
 616 1530 616 1530 919 1530 c 0,49,50
 1285 1530 1285 1530 1437 1377 c 0,51,52
 1542 1271 1542 1271 1542 1119 c 0,53,54
 1542 1067 1542 1067 1530 1010 c 0,55,56
 1482 782 1482 782 1279 631 c 0,57,58
 1074 478 1074 478 815 478 c 0,59,60
 689 478 689 478 604 538 c 1,61,-1
 543 250 l 2,62,63
 534 210 534 210 534 176 c 0,64,65
 534 46 534 46 663 15 c 1,66,-1
 660 0 l 1,67,-1
 10 0 l 1,38,-1
EndSplineSet
Validated: 1
EndChar

StartChar: uni1E57
Encoding: 7767 7767 186
Width: 1300
Flags: W
HStem: -410 15<-74 -52.0469 536.781 553> -20 121<499.1 773.967> 999 121<707.354 944.823> 1160 370<818.766 997.305>
VStem: 1037 325<456.165 877.81>
DStem2: 92.8609 -410 382.861 -410 0.207912 0.978148<245.748 468.682 689.001 1302.49>
LayerCount: 2
Fore
SplineSet
947 1530 m 0,0,1
 1025 1530 1025 1530 1065 1476 c 0,2,3
 1094 1438 1094 1438 1094 1386 c 0,4,5
 1094 1366 1094 1366 1090 1345 c 0,6,7
 1074 1268 1074 1268 1009.5 1214 c 128,-1,8
 945 1160 945 1160 869 1160 c 128,-1,9
 793 1160 793 1160 751 1214 c 0,10,11
 722 1252 722 1252 722 1304 c 0,12,13
 722 1324 722 1324 726 1345 c 0,14,15
 742 1422 742 1422 806.5 1476 c 128,-1,16
 871 1530 871 1530 947 1530 c 0,0,1
-77 -410 m 1,17,-1
 -74 -395 l 1,18,19
 106 -349 106 -349 146 -160 c 2,20,-1
 358 837 l 2,21,22
 361 852 361 852 361 865 c 0,23,24
 361 955 361 955 219 983 c 1,25,-1
 222 998 l 1,26,27
 505 1120 505 1120 779 1120 c 0,28,29
 1119 1120 1119 1120 1260 962 c 0,30,31
 1362 847 1362 847 1362 682 c 0,32,33
 1362 619 1362 619 1347 550 c 0,34,35
 1293 295 1293 295 1097 148 c 0,36,37
 873 -20 873 -20 537 -20 c 0,38,39
 496 -20 496 -20 466 -18 c 1,40,-1
 436 -160 l 2,41,42
 428 -199 428 -199 428 -231 c 0,43,44
 428 -359 428 -359 556 -395 c 1,45,-1
 553 -410 l 1,46,-1
 -77 -410 l 1,17,-1
813 999 m 0,47,48
 746 999 746 999 703 954 c 0,49,50
 664 913 664 913 648 838 c 2,51,-1
 526 262 l 2,52,53
 519 229 519 229 519 203 c 0,54,55
 519 172 519 172 529 150 c 0,56,57
 552 101 552 101 622 101 c 0,58,59
 767 101 767 101 879 238 c 0,60,61
 977 358 977 358 1018 552 c 0,62,63
 1037 643 1037 643 1037 716 c 0,64,65
 1037 801 1037 801 1011 862 c 0,66,67
 952 999 952 999 813 999 c 0,47,48
EndSplineSet
Validated: 1
EndChar

StartChar: uni1E60
Encoding: 7776 7776 187
Width: 1321
Flags: W
HStem: -20 122<413.444 814.064> 1412 118<833.903 1152.97> 1560 370<923.766 1102.31>
VStem: 66 15<-20 -11.0278> 194 15<556.34 585> 413 315<1079.24 1270.39> 1019 339<349.057 589.05> 1269 15<1058 1089.29>
DStem2: 852 1024 638 779 0.904733 -0.425979<-141.579 318.679>
LayerCount: 2
Fore
SplineSet
1052 1930 m 0,0,1
 1130 1930 1130 1930 1170 1876 c 0,2,3
 1199 1838 1199 1838 1199 1786 c 0,4,5
 1199 1766 1199 1766 1195 1745 c 0,6,7
 1179 1668 1179 1668 1114.5 1614 c 128,-1,8
 1050 1560 1050 1560 974 1560 c 128,-1,9
 898 1560 898 1560 856 1614 c 0,10,11
 827 1652 827 1652 827 1704 c 0,12,13
 827 1724 827 1724 831 1745 c 0,14,15
 847 1822 847 1822 911.5 1876 c 128,-1,16
 976 1930 976 1930 1052 1930 c 0,0,1
642 -20 m 0,17,18
 446 -20 446 -20 315 53 c 0,19,20
 270 78 270 78 235 78 c 0,21,22
 153 78 153 78 81 -20 c 1,23,-1
 66 -20 l 1,24,-1
 194 585 l 1,25,-1
 209 585 l 1,26,27
 209 352 209 352 299 238 c 0,28,29
 405 102 405 102 628 102 c 0,30,31
 746 102 746 102 834 158 c 0,32,33
 987 256 987 256 1014 408 c 0,34,35
 1019 436 1019 436 1019 461 c 0,36,37
 1019 602 1019 602 860 676 c 2,38,-1
 638 779 l 2,39,40
 413 883 413 883 413 1094 c 0,41,42
 413 1120 413 1120 416 1147 c 0,43,44
 435 1304 435 1304 604 1429 c 0,45,46
 741 1530 741 1530 934 1530 c 0,47,48
 1063 1530 1063 1530 1145 1492 c 0,49,50
 1195 1469 1195 1469 1244 1469 c 0,51,52
 1317 1469 1317 1469 1369 1530 c 1,53,-1
 1384 1530 l 1,54,-1
 1284 1058 l 1,55,-1
 1269 1058 l 1,56,57
 1269 1204 1269 1204 1217 1296 c 0,58,59
 1152 1412 1152 1412 991 1412 c 0,60,61
 890 1412 890 1412 824 1361 c 0,62,63
 755 1307 755 1307 735 1230 c 0,64,65
 728 1203 728 1203 728 1179 c 0,66,67
 728 1082 728 1082 852 1024 c 2,68,-1
 1092 911 l 2,69,70
 1358 786 1358 786 1358 550 c 0,71,72
 1358 511 1358 511 1351 470 c 0,73,74
 1314 256 1314 256 1115 118 c 128,-1,75
 916 -20 916 -20 642 -20 c 0,17,18
EndSplineSet
Validated: 1
EndChar

StartChar: uni1E61
Encoding: 7777 7777 188
Width: 1070
Flags: W
HStem: -20 116<328.58 657.94> 1016 104<655.759 934.13> 1160 370<724.766 903.305>
VStem: 66 15<-20 -9.82812> 170 15<438.338 472> 339 282<802.625 950.777> 773 304<227.016 414.787> 1009 15<749 781.944>
DStem2: 734 752 501 567 0.859046 -0.511898<-150.839 228.269>
LayerCount: 2
Fore
SplineSet
853 1530 m 0,0,1
 931 1530 931 1530 971 1476 c 0,2,3
 1000 1438 1000 1438 1000 1386 c 0,4,5
 1000 1366 1000 1366 996 1345 c 0,6,7
 980 1268 980 1268 915.5 1214 c 128,-1,8
 851 1160 851 1160 775 1160 c 128,-1,9
 699 1160 699 1160 657 1214 c 0,10,11
 628 1252 628 1252 628 1304 c 0,12,13
 628 1324 628 1324 632 1345 c 0,14,15
 648 1422 648 1422 712.5 1476 c 128,-1,16
 777 1530 777 1530 853 1530 c 0,0,1
508 -20 m 0,17,18
 378 -20 378 -20 270 42 c 16,19,20
 232 64 232 64 198 64 c 0,21,22
 131 64 131 64 81 -20 c 1,23,-1
 66 -20 l 1,24,-1
 170 472 l 1,25,-1
 185 472 l 1,26,27
 198 289 198 289 285 180 c 0,28,29
 353 96 353 96 484 96 c 0,30,31
 616 96 616 96 698 169 c 0,32,33
 758 222 758 222 771 296 c 0,34,35
 773 308 773 308 773 317 c 0,36,37
 773 405 773 405 647 480 c 2,38,-1
 501 567 l 2,39,40
 339 664 339 664 339 805 c 0,41,42
 339 828 339 828 343 851 c 0,43,44
 366 974 366 974 496 1056 c 0,45,46
 598 1120 598 1120 728 1120 c 0,47,48
 861 1120 861 1120 932 1082 c 0,49,50
 960 1067 960 1067 999 1067 c 0,51,52
 1053 1067 1053 1067 1088 1120 c 1,53,-1
 1103 1120 l 1,54,-1
 1024 749 l 1,55,-1
 1009 749 l 1,56,57
 1009 870 1009 870 965 936 c 0,58,59
 911 1016 911 1016 801 1016 c 0,60,61
 732 1016 732 1016 687 993 c 0,62,63
 629 964 629 964 622 909 c 0,64,65
 621 901 621 901 621 892 c 0,66,67
 621 818 621 818 734 752 c 2,68,-1
 870 673 l 2,69,70
 1077 553 1077 553 1077 387 c 0,71,72
 1077 368 1077 368 1074 349 c 0,73,74
 1052 187 1052 187 885 82 c 0,75,76
 724 -20 724 -20 508 -20 c 0,17,18
EndSplineSet
Validated: 1
EndChar

StartChar: uni1E6A
Encoding: 7786 7786 189
Width: 1529
Flags: W
HStem: 0 15<438 459.953 1078.78 1095> 1390 120<577.316 881.984 1218.81 1522.75> 1560 370<1045.77 1224.31>
DStem2: 604.861 0 924.861 0 0.207912 0.978148<251.985 1369.16>
LayerCount: 2
Fore
SplineSet
1174 1930 m 0,0,1
 1252 1930 1252 1930 1292 1876 c 0,2,3
 1321 1838 1321 1838 1321 1786 c 0,4,5
 1321 1766 1321 1766 1317 1745 c 0,6,7
 1301 1668 1301 1668 1236.5 1614 c 128,-1,8
 1172 1560 1172 1560 1096 1560 c 128,-1,9
 1020 1560 1020 1560 978 1614 c 0,10,11
 949 1652 949 1652 949 1704 c 0,12,13
 949 1724 949 1724 953 1745 c 0,14,15
 969 1822 969 1822 1033.5 1876 c 128,-1,16
 1098 1930 1098 1930 1174 1930 c 0,0,1
435 0 m 1,17,-1
 438 15 l 1,18,19
 618 60 618 60 658 250 c 2,20,-1
 873 1260 l 2,21,22
 882 1305 882 1305 882 1342 c 0,23,24
 882 1368 882 1368 878 1390 c 1,25,-1
 816 1390 l 2,26,27
 543 1390 543 1390 271 1158 c 1,28,-1
 256 1158 l 1,29,-1
 534 1510 l 1,30,-1
 1638 1510 l 1,31,-1
 1765 1158 l 1,32,-1
 1750 1158 l 1,33,34
 1575 1390 1575 1390 1304 1390 c 2,35,-1
 1242 1390 l 1,36,37
 1209 1339 1209 1339 1193 1260 c 2,38,-1
 978 250 l 2,39,40
 970 211 970 211 970 179 c 0,41,42
 970 51 970 51 1098 15 c 1,43,-1
 1095 0 l 1,44,-1
 435 0 l 1,17,-1
EndSplineSet
Validated: 1
EndChar

StartChar: uni1E6B
Encoding: 7787 7787 190
Width: 1026
Flags: W
HStem: 0 15<206 227.953 806.781 823> 980 120<495.531 581 887 972.469> 1510 20G<863.5 973.767> 1560 370<791.766 970.305>
DStem2: 372.861 0 652.861 0 0.207912 0.978148<243.669 1001.86 1182.86 1297.36>
LayerCount: 2
Fore
SplineSet
920 1930 m 0,0,1
 998 1930 998 1930 1038 1876 c 0,2,3
 1067 1838 1067 1838 1067 1786 c 0,4,5
 1067 1766 1067 1766 1063 1745 c 0,6,7
 1047 1668 1047 1668 982.5 1614 c 128,-1,8
 918 1560 918 1560 842 1560 c 128,-1,9
 766 1560 766 1560 724 1614 c 0,10,11
 695 1652 695 1652 695 1704 c 0,12,13
 695 1724 695 1724 699 1745 c 0,14,15
 715 1822 715 1822 779.5 1876 c 128,-1,16
 844 1930 844 1930 920 1930 c 0,0,1
203 0 m 1,17,-1
 206 15 l 1,18,19
 386 61 386 61 426 250 c 2,20,-1
 581 980 l 1,21,-1
 492 980 l 2,22,23
 355 980 355 980 214 889 c 1,24,-1
 199 889 l 1,25,-1
 464 1209 l 1,26,-1
 479 1209 l 1,27,28
 479 1100 479 1100 607 1100 c 1,29,-1
 637 1240 l 2,30,31
 640 1256 640 1256 640 1270 c 0,32,33
 640 1363 640 1363 499 1391 c 1,34,-1
 502 1406 l 1,35,36
 749 1511 749 1511 978 1530 c 1,37,-1
 887 1100 l 1,38,-1
 976 1100 l 2,39,40
 1113 1100 1113 1100 1254 1191 c 1,41,-1
 1269 1191 l 1,42,-1
 1004 871 l 1,43,-1
 989 871 l 1,44,45
 989 980 989 980 861 980 c 1,46,-1
 706 250 l 2,47,48
 698 211 698 211 698 179 c 0,49,50
 698 51 698 51 826 15 c 1,51,-1
 823 0 l 1,52,-1
 203 0 l 1,17,-1
EndSplineSet
Validated: 1
EndChar

StartChar: Wgrave
Encoding: 7808 7808 191
Width: 2582
Flags: W
HStem: 1495 15<331 349.387 2395 2405.66 2864.82 2890>
VStem: 1149 309<1201 1510> 1926 147<1363 1510>
DStem2: 848 1264 528 1260 0.292069 -0.956397<-51.6718 905.93> 1114 398 1421 618 0.590121 0.807315<0 358.776 819.471 1376.91> 1458 1510 1149 1510 0.291874 -0.956457<0 470.976 617.431 694.949 842.36 1174.13> 1804 388 1637 -40 0.590017 0.807391<0 1196.3>
LayerCount: 2
Fore
SplineSet
925 -40 m 1,0,-1
 528 1260 l 2,1,2
 468 1455 468 1455 328 1495 c 1,3,-1
 331 1510 l 1,4,-1
 1002 1510 l 1,5,-1
 999 1495 l 1,6,7
 867 1442 867 1442 842 1342 c 0,8,9
 839 1330 839 1330 839 1316 c 0,10,11
 839 1293 839 1293 848 1264 c 2,12,-1
 1114 398 l 1,13,-1
 1378 759 l 1,14,-1
 1149 1510 l 1,15,-1
 1458 1510 l 1,16,-1
 1597 1060 l 1,17,-1
 1926 1510 l 1,18,-1
 2073 1510 l 1,19,-1
 1640 920 l 1,20,-1
 1804 388 l 1,21,-1
 2443 1264 l 2,22,23
 2469 1300 2469 1300 2479 1341 c 0,24,25
 2483 1358 2483 1358 2483 1374 c 0,26,27
 2483 1453 2483 1453 2392 1495 c 1,28,-1
 2395 1510 l 1,29,-1
 2893 1510 l 1,30,-1
 2890 1495 l 1,31,32
 2728 1453 2728 1453 2587 1260 c 2,33,-1
 1637 -40 l 1,34,-1
 1622 -40 l 1,35,-1
 1421 618 l 1,36,-1
 940 -40 l 1,37,-1
 925 -40 l 1,0,-1
1504 1928 m 0,38,39
 1574 1928 1574 1928 1604 1870 c 2,40,-1
 1743 1604 l 1,41,-1
 1718 1580 l 1,42,-1
 1434 1710 l 2,43,44
 1378 1736 1378 1736 1378 1803 c 0,45,46
 1378 1856 1378 1856 1411 1893 c 0,47,48
 1442 1928 1442 1928 1504 1928 c 0,38,39
EndSplineSet
Validated: 1
EndChar

StartChar: wgrave
Encoding: 7809 7809 192
Width: 2017
Flags: W
HStem: -20 121<545.773 786.119 1246.26 1484> 1100 20G<589 713.756 1289 1413.76 1912.38 2023>
VStem: 228 302<115.906 327.992> 1771 318<491.062 892.409>
DStem2: 175.421 -20 475.996 -20 0.207912 0.978148<296.588 912.088> 875.369 -20 1176 -20 0.207912 0.978148<296.598 912.098>
LayerCount: 2
Fore
SplineSet
1099 1508 m 0,0,1
 1169 1508 1169 1508 1199 1450 c 2,2,-1
 1338 1184 l 1,3,-1
 1313 1160 l 1,4,-1
 1029 1290 l 2,5,6
 973 1316 973 1316 973 1383 c 0,7,8
 973 1436 973 1436 1006 1473 c 0,9,10
 1037 1508 1037 1508 1099 1508 c 0,0,1
568 -20 m 0,11,12
 228 -20 228 -20 228 194 c 0,13,14
 228 227 228 227 236 265 c 2,15,-1
 360 845 l 2,16,17
 363 860 363 860 363 873 c 0,18,19
 363 963 363 963 221 991 c 1,20,-1
 224 1006 l 1,21,22
 460 1113 460 1113 718 1120 c 1,23,-1
 537 267 l 2,24,25
 530 234 530 234 530 207 c 0,26,27
 530 101 530 101 642 101 c 0,28,29
 736 101 736 101 819 167 c 0,30,31
 934 256 934 256 991 524 c 2,32,-1
 1060 845 l 2,33,34
 1063 860 1063 860 1063 873 c 0,35,36
 1063 963 1063 963 921 991 c 1,37,-1
 924 1006 l 1,38,39
 1160 1113 1160 1113 1418 1120 c 1,40,-1
 1237 267 l 2,41,42
 1230 234 1230 234 1230 207 c 0,43,44
 1230 101 1230 101 1342 101 c 0,45,46
 1432 101 1432 101 1519 167 c 0,47,48
 1711 313 1711 313 1761 591 c 0,49,50
 1771 644 1771 644 1771 694 c 0,51,52
 1771 857 1771 857 1667 990 c 1,53,-1
 1957 1120 l 1,54,55
 2089 962 2089 962 2089 751 c 0,56,57
 2089 672 2089 672 2071 585 c 0,58,59
 2016 325 2016 325 1813 157 c 0,60,61
 1599 -20 1599 -20 1268 -20 c 0,62,63
 1052 -20 1052 -20 973 66 c 1,64,65
 799 -20 799 -20 568 -20 c 0,11,12
EndSplineSet
Validated: 1
EndChar

